{
.formatVersion = 3;
axes = (
{
name = Weight;
tag = wght;
}
);
classes = (
{
code = "zero one two three four five six seven eight nine zero.tf one.tf two.tf three.tf four.tf five.tf six.tf seven.tf eight.tf nine.tf";
name = calt;
}
);
familyName = "Alba Sans";
customParameters = (
{
name = glyphOrder;
value = (
A,
Aacute,
Abreve,
Acircumflex,
Adieresis,
Agrave,
Amacron,
Aogonek,
Aring,
Atilde,
AE,
AEacute,
B,
C,
Cacute,
Ccaron,
Ccedilla,
Cdotaccent,
D,
Eth,
Dcaron,
Dcroat,
E,
Eacute,
Ebreve,
Ecaron,
Ecircumflex,
Edieresis,
Edotaccent,
Egrave,
Emacron,
Eogonek,
Etilde,
F,
G,
Gbreve,
Gcommaaccent,
Gdotaccent,
H,
I,
Iacute,
Ibreve,
Icircumflex,
Idieresis,
Idotaccent,
Igrave,
Imacron,
Iogonek,
Itilde,
J,
K,
Kcommaaccent,
L,
Lacute,
Lcaron,
Lcommaaccent,
Ldot,
Lslash,
M,
N,
Nacute,
Ncaron,
Ncommaaccent,
Ntilde,
O,
Oacute,
Obreve,
Ocircumflex,
Odieresis,
Ograve,
Ohungarumlaut,
Omacron,
Oslash,
Otilde,
OE,
P,
Thorn,
Q,
R,
Racute,
Rcaron,
Rcommaaccent,
S,
Sacute,
Scaron,
Scedilla,
Scommaaccent,
T,
Tcaron,
Tcedilla,
Tcommaaccent,
U,
Uacute,
Ubreve,
Ucircumflex,
Udieresis,
Ugrave,
Uhungarumlaut,
Umacron,
Uogonek,
Uring,
Utilde,
V,
W,
Wacute,
Wcircumflex,
Wdieresis,
Wgrave,
X,
Y,
Yacute,
Ycircumflex,
Ydieresis,
Ygrave,
Ytilde,
Z,
Zacute,
Zcaron,
Zdotaccent,
a,
aacute,
abreve,
acircumflex,
adieresis,
agrave,
amacron,
aogonek,
aring,
atilde,
ae,
aeacute,
b,
c,
cacute,
ccaron,
ccedilla,
cdotaccent,
d,
eth,
dcaron,
dcroat,
e,
eacute,
ebreve,
ecaron,
ecircumflex,
edieresis,
edotaccent,
egrave,
emacron,
eogonek,
etilde,
f,
g,
gbreve,
gcommaaccent,
gdotaccent,
h,
i,
dotlessi,
iacute,
ibreve,
icircumflex,
idieresis,
igrave,
imacron,
iogonek,
itilde,
j,
k,
kcommaaccent,
l,
lacute,
lcaron,
lcommaaccent,
ldot,
lslash,
m,
n,
nacute,
ncaron,
ncommaaccent,
ntilde,
o,
oacute,
obreve,
ocircumflex,
odieresis,
ograve,
ohungarumlaut,
omacron,
oslash,
otilde,
oe,
p,
thorn,
q,
r,
racute,
rcaron,
rcommaaccent,
s,
sacute,
scaron,
scedilla,
scommaaccent,
germandbls,
t,
tcaron,
tcedilla,

glyphs = (
{
glyphname = A;
layers = (
{
layerId = "8A84D32D-FB1E-4DD2-B3EC-97AE96C1F3F2";
shapes = (
{
closed = 1;
nodes = (
(321,708,l),
(-62,0,l),
(171,0,l),
(468,593,l),
(389,593,l),
(477,0,l),
(711,0,l),
(577,708,l)
);
},
{
closed = 1;
nodes = (
(70,107,l),
(590,107,l),
(565,274,l),
(156,274,l)
);
}
);
width = 773;
},
{
layerId = "9E02F294-FA05-4D2D-A912-E8181F430C35";
shapes = (
{
closed = 1;
nodes = (
(348,708,l),
(-42,0,l),
(57,0,l),
(411,656,l),
(375,656,l),
(495,0,l),
(596,0,l),
(454,708,l)
);
},
{
closed = 1;
nodes = (
(86,167,l),
(517,167,l),
(505,240,l),
(123,240,l)
);
}
);
width = 676;
},
{
layerId = "67B2D992-FDF5-421B-B89F-40A62CC9CD8A";
shapes = (
{
closed = 1;
nodes = (
(364,708,l),
(-31,0,l),
(-7,0,l),
(379,692,l),
(366,692,l),
(506,0,l),
(530,0,l),
(385,708,l)
);
},
{
closed = 1;
nodes = (
(94,201,l),
(475,201,l),
(471,220,l),
(104,220,l)
);
}
);
width = 623;
}
);
unicode = 65;
},
{
glyphname = Aogonek;
layers = (
{
anchors = (
{
name = _ogonek;
position = "{723, 0}";
}
);
background = {
shapes = (
{
closed = 1;
nodes = (
(114,107,l),
(634,107,l),
(579,274,l),
(170,274,l)
);
},
{
closed = 1;
nodes = (
(0,0,l),
(233,0,l),
(426,593,l),
(347,593,l),
(549,-30,l),
(565,15,l),
(515,-13,o),
(494,-49,o),
(494,-97,c),
(494,-192,o),
(577,-219,o),
(644,-219,c),
(812,-219,l),
(812,-106,l),
(667,-106,ls),
(651,-106,o),
(641,-100,o),
(641,-90,cs),
(641,-80,o),
(651,-75,o),
(667,-75,cs),
(767,-75,l),
(767,15,l),
(515,708,l),
(259,708,l)
);
}
);
};
layerId = "8A84D32D-FB1E-4DD2-B3EC-97AE96C1F3F2";
shapes = (
{
closed = 1;
nodes = (
(660,90,ls),
(493,27,o),
(445,-26,o),
(432,-97,cs),
(418,-177,o),
(470,-223,o),
(570,-223,cs),
(613,-223,o),
(652,-217,o),
(687,-207,c),
(707,-91,l),
(672,-102,o),
(644,-107,o),
(622,-107,cs),
(598,-107,o),
(587,-98,o),
(590,-82,cs),
(593,-66,o),
(608,-46,o),
(676,-19,cs),
(723,0,l),
(700,105,l)
);
},
{
alignment = -1;
ref = A;
}
);
width = 773;
},
{
anchors = (
{
name = _ogonek;
position = "{612, 0}";
}
);
background = {
shapes = (
{
closed = 1;
nodes = (
(138,142,l),
(554,142,l),
(524,231,l),
(167,231,l)
);
},
{
closed = 1;
nodes = (
(34,0,l),
(153,0,l),
(359,586,l),
(339,586,l),
(553,-24,l),
(558,1,l),
(501,-7,o),
(464,-42,o),
(464,-96,cs),
(464,-165,o),
(521,-205,o),
(592,-205,cs),
(698,-205,l),
(698,-133,l),
(614,-133,ls),
(579,-133,o),
(558,-126,o),
(558,-96,cs),
(558,-66,o),
(579,-60,o),
(614,-60,cs),
(664,-60,l),
(664,1,l),
(415,696,l),
(283,696,l)
);
}
);
};
layerId = "9E02F294-FA05-4D2D-A912-E8181F430C35";
shapes = (
{
closed = 1;
nodes = (
(544,48,ls),
(443,6,o),
(403,-52,o),
(394,-102,cs),
(380,-183,o),
(446,-211,o),
(509,-211,cs),
(538,-211,o),
(568,-205,o),
(593,-196,c),
(606,-123,l),
(581,-132,o),
(556,-137,o),
(537,-137,cs),
(503,-137,o),
(485,-119,o),
(490,-91,cs),
(495,-67,o),
(512,-47,o),
(559,-25,cs),
(612,0,l),
(590,67,l)
);
},
{
alignment = -1;
ref = A;
}
);
width = 697;
},
{
layerId = "AFE4C23B-5DB3-4092-A8F1-47FBD819ED6E";
associatedMasterId = "67B2D992-FDF5-421B-B89F-40A62CC9CD8A";
name = "Sep 20 17, 19:55";
shapes = (
{
closed = 1;
nodes = (
(117,194,l),
(484,194,l),
(477,212,l),
(123,212,l)
);
},
{
closed = 1;
nodes = (
(30,0,l),
(53,0,l),
(306,662,l),
(296,662,l),
(551,-6,l),
(557,0,l),
(466,0,o),
(428,-42,o),
(428,-95,c),
(428,-148,o),
(466,-190,o),
(543,-190,c),
(611,-190,l),
(611,-170,l),
(543,-170,ls),
(484,-170,o),
(448,-142,o),
(448,-95,c),
(448,-48,o),
(484,-20,o),
(543,-20,cs),
(571,-20,l),
(571,0,l),
(311,683,l),
(291,683,l)
);
}
);
width = 601;
},
{
anchors = (
{
name = _ogonek;
position = "{523, 0}";
}
);
background = {
shapes = (
{
closed = 1;
nodes = (
(117,194,l),
(484,194,l),
(477,212,l),
(123,212,l)
);
},
{
closed = 1;
nodes = (
(30,0,l),
(53,0,l),
(306,662,l),
(296,662,l),
(551,-6,l),
(557,0,l),
(466,0,o),
(428,-42,o),
(428,-95,c),
(428,-148,o),
(466,-190,o),
(543,-190,c),
(611,-190,l),
(611,-170,l),
(543,-170,ls),
(484,-170,o),
(448,-142,o),
(448,-95,c),
(448,-48,o),
(484,-20,o),
(543,-20,cs),
(571,-20,l),
(571,0,l),
(311,683,l),
(291,683,l)
);
}
);
};
layerId = "67B2D992-FDF5-421B-B89F-40A62CC9CD8A";
shapes = (
{
closed = 1;
nodes = (
(445,-13,ls),
(378,-41,o),
(348,-78,o),
(341,-116,cs),
(332,-167,o),
(367,-190,o),
(418,-190,cs),
(437,-190,o),
(460,-186,o),
(482,-178,c),
(486,-158,l),
(463,-166,o),
(440,-171,o),
(420,-171,cs),
(381,-171,o),
(354,-154,o),
(361,-115,cs),
(366,-86,o),
(389,-57,o),
(446,-33,cs),
(523,0,l),
(519,18,l)
);
},
{
alignment = -1;
ref = A;
}
);
width = 601;
}
);
unicode = 260;
},
{
glyphname = AE;
layers = (
{
layerId = "8A84D32D-FB1E-4DD2-B3EC-97AE96C1F3F2";
shapes = (
{
closed = 1;
nodes = (
(110,97,l),
(553,97,l),
(582,264,l),
(232,264,l)
);
},
{
closed = 1;
nodes = (
(983,532,l),
(1014,708,l),
(401,708,l),
(-62,0,l),
(179,0,l),
(522,537,l),
(428,0,l),
(890,0,l),
(921,177,l),
(681,177,l),
(699,280,l),
(909,280,l),
(938,447,l),
(728,447,l),
(743,532,l)
);
}
);
width = 986;
},
{
layerId = "9E02F294-FA05-4D2D-A912-E8181F430C35";
shapes = (
{
closed = 1;
nodes = (
(109,161,l),
(471,161,l),
(483,231,l),
(159,231,l)
);
},
{
closed = 1;
nodes = (
(898,633,l),
(911,708,l),
(470,708,l),
(-56,0,l),
(45,0,l),
(509,623,l),
(399,0,l),
(787,0,l),
(800,74,l),
(504,74,l),
(547,322,l),
(813,322,l),
(826,393,l),
(560,393,l),
(602,633,l)
);
}
);
width = 893;
},
{
layerId = "67B2D992-FDF5-421B-B89F-40A62CC9CD8A";
shapes = (
{
closed = 1;
nodes = (
(110,195,l),
(424,195,l),
(427,213,l),
(119,213,l)
);
},
{
closed = 1;
nodes = (
(851,690,l),
(854,708,l),
(508,708,l),
(-52,0,l),
(-29,0,l),
(502,671,l),
(383,0,l),
(729,0,l),
(732,18,l),
(406,18,l),
(464,345,l),
(759,345,l),
(763,363,l),
(468,363,l),
(525,690,l)
);
}
);
width = 842;
}
);
unicode = 198;
},
{
glyphname = B;
layers = (
{
layerId = "8A84D32D-FB1E-4DD2-B3EC-97AE96C1F3F2";
shapes = (
{
closed = 1;
nodes = (
(433,447,o),
(412,432,o),
(372,432,cs),
(286,432,l),
(303,532,l),
(389,532,ls),
(429,532,o),
(446,516,o),
(439,481,cs)
);
},
{
closed = 1;
nodes = (
(647,285,o),
(597,364,o),
(484,369,c),
(465,357,l),
(563,352,o),
(654,416,o),
(673,524,cs),
(695,647,o),
(614,708,o),
(473,708,cs),
(112,708,l),
(-12,0,l),
(359,0,ls),
(513,0,o),
(609,70,o),
(631,194,cs)
);
},
{
closed = 1;
nodes = (
(404,192,o),
(382,178,o),
(342,178,cs),
(241,178,l),
(259,278,l),
(360,278,ls),
(400,278,o),
(416,261,o),
(410,227,cs)
);
}
);
width = 684;
},
{
layerId = "9E02F294-FA05-4D2D-A912-E8181F430C35";
shapes = (
{
closed = 1;
nodes = (
(471,442,o),
(416,397,o),
(325,397,cs),
(172,397,l),
(214,633,l),
(363,633,ls),
(463,633,o),
(496,585,o),
(484,516,cs)
);
},
{
closed = 1;
nodes = (
(554,291,o),
(490,369,o),
(381,370,c),
(369,361,l),
(462,360,o),
(559,414,o),
(580,531,cs),
(599,637,o),
(540,708,o),
(394,708,cs),
(135,708,l),
(11,0,l),
(273,0,ls),
(427,0,o),
(517,79,o),
(536,191,cs)
);
},
{
closed = 1;
nodes = (
(430,122,o),
(367,76,o),
(269,76,cs),
(115,76,l),
(161,330,l),
(314,330,ls),
(410,330,o),
(459,281,o),
(445,202,cs)
);
}
);
width = 606;
},
{
layerId = "67B2D992-FDF5-421B-B89F-40A62CC9CD8A";
shapes = (
{
closed = 1;
nodes = (
(492,439,o),
(418,378,o),
(299,378,cs),
(110,378,l),
(165,688,l),
(348,688,ls),
(481,688,o),
(524,623,o),
(509,535,c)
);
},
{
closed = 1;
nodes = (
(503,295,o),
(431,371,o),
(325,371,c),
(316,363,l),
(406,364,o),
(507,413,o),
(529,535,c),
(546,632,o),
(499,708,o),
(351,708,cs),
(148,708,l),
(23,0,l),
(226,0,ls),
(379,0,o),
(466,84,o),
(484,189,cs)
);
},
{
closed = 1;
nodes = (
(445,84,o),
(358,20,o),
(229,20,cs),
(46,20,l),
(107,358,l),
(288,358,ls),
(416,358,o),
(482,292,o),
(464,189,cs)
);
}
);
width = 563;
}
);
unicode = 66;
},
{
glyphname = C;
layers = (
{
layerId = "8A84D32D-FB1E-4DD2-B3EC-97AE96C1F3F2";
shapes = (
{
closed = 1;
nodes = (
(-7,144,o),
(100,-5,o),
(317,-5,c),
(504,-5,o),
(650,107,o),
(709,274,c),
(475,274,l),
(445,227,o),
(399,200,o),
(349,200,c),
(274,200,o),
(238,261,o),
(255,355,c),
(272,449,o),
(328,510,o),
(403,510,c),
(453,510,o),
(491,483,o),
(503,436,c),
(737,436,l),
(738,603,o),
(630,715,o),
(443,715,c),
(226,715,o),
(67,566,o),
(30,355,c)
);
}
);
width = 753;
},
{
layerId = "9E02F294-FA05-4D2D-A912-E8181F430C35";
shapes = (
{
closed = 1;
nodes = (
(12,143,o),
(122,-6,o),
(323,-6,cs),
(500,-6,o),
(628,88,o),
(694,232,c),
(598,232,l),
(549,143,o),
(458,78,o),
(336,78,cs),
(200,78,o),
(113,184,o),
(144,353,cs),
(174,525,o),
(297,630,o),
(434,630,cs),
(555,630,o),
(623,566,o),
(641,477,c),
(738,477,l),
(722,620,o),
(626,715,o),
(450,715,cs),
(249,715,o),
(86,566,o),
(49,353,cs)
);
}
);
width = 766;
},
{
layerId = "67B2D992-FDF5-421B-B89F-40A62CC9CD8A";
shapes = (
{
closed = 1;
nodes = (
(23,142,o),
(135,-7,o),
(327,-7,c),
(497,-7,o),
(616,78,o),
(687,208,c),
(667,208,l),
(606,96,o),
(491,11,o),
(330,11,c),
(159,11,o),
(44,141,o),
(81,353,c),
(119,567,o),
(280,697,o),
(451,697,c),
(611,697,o),
(697,612,o),
(718,499,c),
(738,499,l),
(713,630,o),
(623,715,o),
(454,715,c),
(261,715,o),
(98,566,o),
(60,353,c)
);
}
);
width = 773;
}
);
unicode = 67;
},
{
glyphname = D;
layers = (
{
layerId = "8A84D32D-FB1E-4DD2-B3EC-97AE96C1F3F2";
shapes = (
{
closed = 1;
nodes = (
(112,708,l),
(-12,0,l),
(283,0,ls),
(509,0,o),
(678,154,o),
(713,356,cs),
(749,560,o),
(633,708,o),
(407,708,cs)
);
},
{
closed = 1;
nodes = (
(244,198,l),
(300,514,l),
(353,514,ls),
(451,514,o),
(507,459,o),
(488,356,cs),
(470,253,o),
(395,198,o),
(297,198,cs)
);
}
);
width = 743;
},
{
layerId = "9E02F294-FA05-4D2D-A912-E8181F430C35";
shapes = (
{
closed = 1;
nodes = (
(135,708,l),
(11,0,l),
(236,0,ls),
(475,0,o),
(632,140,o),
(669,354,cs),
(708,571,o),
(599,708,o),
(360,708,cs)
);
},
{
closed = 1;
nodes = (
(116,82,l),
(213,627,l),
(339,627,ls),
(527,627,o),
(606,525,o),
(576,354,cs),
(547,185,o),
(431,82,o),
(243,82,cs)
);
}
);
width = 719;
},
{
layerId = "67B2D992-FDF5-421B-B89F-40A62CC9CD8A";
shapes = (
{
closed = 1;
nodes = (
(148,708,l),
(23,0,l),
(209,0,l),
(456,0,o),
(606,131,o),
(646,354,c),
(685,577,o),
(580,708,o),
(334,708,c)
);
},
{
closed = 1;
nodes = (
(46,18,l),
(165,690,l),
(331,690,l),
(568,690,o),
(662,561,o),
(625,354,c),
(589,147,o),
(450,18,o),
(212,18,c)
);
}
);
width = 706;
}
);
unicode = 68;
},
{
glyphname = Eth;
layers = (
{
layerId = "8A84D32D-FB1E-4DD2-B3EC-97AE96C1F3F2";
shapes = (
{
closed = 1;
nodes = (
(-15,268,l),
(387,268,l),
(418,444,l),
(16,444,l)
);
},
{
closed = 1;
nodes = (
(112,708,l),
(-12,0,l),
(283,0,ls),
(509,0,o),
(678,154,o),
(713,356,cs),
(749,560,o),
(633,708,o),
(407,708,cs)
);
},
{
closed = 1;
nodes = (
(244,198,l),
(300,514,l),
(353,514,ls),
(451,514,o),
(507,459,o),
(488,356,cs),
(470,253,o),
(395,198,o),
(297,198,cs)
);
}
);
width = 743;
},
{
layerId = "9E02F294-FA05-4D2D-A912-E8181F430C35";
shapes = (
{
closed = 1;
nodes = (
(0,317,l),
(381,317,l),
(394,391,l),
(13,391,l)
);
},
{
closed = 1;
nodes = (
(161,708,l),
(36,0,l),
(261,0,ls),
(501,0,o),
(657,140,o),
(696,354,cs),
(734,571,o),
(625,708,o),
(385,708,cs)
);
},
{
closed = 1;
nodes = (
(143,82,l),
(239,627,l),
(364,627,ls),
(552,627,o),
(632,525,o),
(602,354,cs),
(573,185,o),
(456,82,o),
(268,82,cs)
);
}
);
width = 745;
},
{
layerId = "67B2D992-FDF5-421B-B89F-40A62CC9CD8A";
shapes = (
{
closed = 1;
nodes = (
(8,345,l),
(378,345,l),
(382,363,l),
(12,363,l)
);
},
{
closed = 1;
nodes = (
(188,708,l),
(63,0,l),
(249,0,l),
(496,0,o),
(647,131,o),
(686,354,c),
(725,577,o),
(620,708,o),
(374,708,c)
);
},
{
closed = 1;
nodes = (
(86,18,l),
(205,690,l),
(371,690,l),
(608,690,o),
(702,561,o),
(666,354,c),
(630,147,o),
(490,18,o),
(252,18,c)
);
}
);
width = 746;
}
);
unicode = 208;
},
{
glyphname = E;
layers = (
{
layerId = "8A84D32D-FB1E-4DD2-B3EC-97AE96C1F3F2";
shapes = (
{
closed = 1;
nodes = (
(584,708,l),
(112,708,l),
(-12,0,l),
(460,0,l),
(491,177,l),
(241,177,l),
(258,277,l),
(478,277,l),
(508,444,l),
(288,444,l),
(303,532,l),
(553,532,l)
);
}
);
width = 556;
},
{
layerId = "9E02F294-FA05-4D2D-A912-E8181F430C35";
shapes = (
{
closed = 1;
nodes = (
(526,708,l),
(135,708,l),
(11,0,l),
(401,0,l),
(414,74,l),
(115,74,l),
(159,321,l),
(428,321,l),
(441,391,l),
(172,391,l),
(214,633,l),
(513,633,l)
);
}
);
width = 508;
},
{
layerId = "67B2D992-FDF5-421B-B89F-40A62CC9CD8A";
shapes = (
{
closed = 1;
nodes = (
(494,708,l),
(148,708,l),
(23,0,l),
(369,0,l),
(372,18,l),
(46,18,l),
(104,345,l),
(399,345,l),
(403,363,l),
(108,363,l),
(165,690,l),
(491,690,l)
);
}
);
width = 482;
}
);
unicode = 69;
},
{
glyphname = F;
layers = (
{
layerId = "8A84D32D-FB1E-4DD2-B3EC-97AE96C1F3F2";
shapes = (
{
closed = 1;
nodes = (
(-12,0,l),
(210,0,l),
(257,267,l),
(457,267,l),
(486,434,l),
(286,434,l),
(303,532,l),
(581,532,l),
(612,708,l),
(112,708,l)
);
}
);
width = 575;
},
{
layerId = "9E02F294-FA05-4D2D-A912-E8181F430C35";
shapes = (
{
closed = 1;
nodes = (
(11,0,l),
(102,0,l),
(158,317,l),
(420,317,l),
(432,388,l),
(171,388,l),
(214,634,l),
(523,634,l),
(536,708,l),
(135,708,l)
);
}
);
width = 509;
},
{
layerId = "67B2D992-FDF5-421B-B89F-40A62CC9CD8A";
shapes = (
{
closed = 1;
nodes = (
(23,0,l),
(43,0,l),
(104,345,l),
(399,345,l),
(403,363,l),
(108,363,l),
(165,690,l),
(491,690,l),
(494,708,l),
(148,708,l)
);
}
);
width = 472;
}
);
unicode = 70;
},
{
glyphname = G;
layers = (
{
layerId = "8A84D32D-FB1E-4DD2-B3EC-97AE96C1F3F2";
shapes = (
{
closed = 1;
nodes = (
(-8,148,o),
(104,-5,o),
(327,-5,c),
(520,-5,o),
(628,82,o),
(693,187,c),
(732,409,l),
(371,409,l),
(343,252,l),
(520,252,l),
(479,208,o),
(435,190,o),
(385,190,c),
(276,190,o),
(236,245,o),
(255,355,c),
(272,449,o),
(331,510,o),
(417,510,c),
(463,510,o),
(492,493,o),
(504,466,c),
(738,466,l),
(733,607,o),
(639,715,o),
(451,715,c),
(229,715,o),
(66,570,o),
(30,365,c)
);
}
);
width = 752;
},
{
layerId = "9E02F294-FA05-4D2D-A912-E8181F430C35";
shapes = (
{
closed = 1;
nodes = (
(12,142,o),
(141,-6,o),
(340,-6,cs),
(532,-6,o),
(696,135,o),
(743,310,c),
(756,381,l),
(376,381,l),
(362,308,l),
(644,308,l),
(606,166,o),
(494,77,o),
(354,77,cs),
(205,77,o),
(113,185,o),
(143,354,cs),
(173,524,o),
(304,632,o),
(453,632,cs),
(552,632,o),
(621,584,o),
(645,502,c),
(756,502,l),
(726,638,o),
(617,715,o),
(467,715,cs),
(268,715,o),
(87,566,o),
(49,354,cs)
);
}
);
width = 780;
},
{
layerId = "67B2D992-FDF5-421B-B89F-40A62CC9CD8A";
shapes = (
{
closed = 1;
nodes = (
(23,141,o),
(138,-8,o),
(335,-8,c),
(532,-8,o),
(699,141,o),
(736,353,c),
(737,361,l),
(384,361,l),
(381,343,l),
(715,343,l),
(674,136,o),
(511,10,o),
(338,10,c),
(162,10,o),
(44,140,o),
(81,353,c),
(119,566,o),
(283,696,o),
(459,696,c),
(605,696,o),
(697,611,o),
(718,498,c),
(738,498,l),
(713,627,o),
(617,714,o),
(462,714,c),
(264,714,o),
(98,565,o),
(60,353,c)
);
}
);
width = 796;
}
);
unicode = 71;
},
{
glyphname = Gcommaaccent;
layers = (
{
layerId = "8A84D32D-FB1E-4DD2-B3EC-97AE96C1F3F2";
shapes = (
{
closed = 1;
nodes = (
(260,-35,l),
(234,-182,l),
(306,-182,l),
(304,-193,ls),
(294,-245,o),
(270,-268,o),
(235,-268,c),
(222,-346,l),
(336,-346,o),
(401,-266,o),
(418,-170,cs),
(425,-128,o),
(425,-82,o),
(416,-35,c)
);
},
{
alignment = -1;
pos = (-2,0);
ref = G;
}
);
width = 757;
},
{
layerId = "9E02F294-FA05-4D2D-A912-E8181F430C35";
shapes = (
{
closed = 1;
nodes = (
(299,-50,l),
(285,-127,l),
(331,-127,l),
(329,-136,l),
(322,-175,o),
(304,-197,o),
(270,-197,c),
(264,-236,l),
(328,-236,o),
(371,-198,o),
(385,-118,cs),
(389,-98,o),
(390,-73,o),
(387,-50,c)
);
},
{
alignment = -1;
pos = (1,0);
ref = G;
}
);
width = 780;
},
{
layerId = "67B2D992-FDF5-421B-B89F-40A62CC9CD8A";
shapes = (
{
closed = 1;
nodes = (
(320,-59,l),
(313,-97,l),
(344,-97,l),
(343,-104,l),
(337,-137,o),
(322,-158,o),
(290,-158,c),
(287,-176,l),
(323,-176,o),
(355,-161,o),
(367,-90,cs),
(369,-81,o),
(370,-68,o),
(371,-59,c)
);
},
{
alignment = -1;
pos = (3,0);
ref = G;
}
);
width = 792;
}
);
unicode = 290;
},
{
glyphname = H;
layers = (
{
layerId = "8A84D32D-FB1E-4DD2-B3EC-97AE96C1F3F2";
shapes = (
{
closed = 1;
nodes = (
(-12,0,l),
(210,0,l),
(334,708,l),
(112,708,l)
);
},
{
closed = 1;
nodes = (
(421,0,l),
(643,0,l),
(767,708,l),
(545,708,l)
);
},
{
closed = 1;
nodes = (
(238,276,l),
(491,276,l),
(522,453,l),
(269,453,l)
);
}
);
width = 755;
},
{
layerId = "9E02F294-FA05-4D2D-A912-E8181F430C35";
shapes = (
{
closed = 1;
nodes = (
(11,0,l),
(102,0,l),
(227,708,l),
(135,708,l)
);
},
{
closed = 1;
nodes = (
(462,0,l),
(554,0,l),
(678,708,l),
(586,708,l)
);
},
{
closed = 1;
nodes = (
(147,327,l),
(535,327,l),
(548,401,l),
(160,401,l)
);
}
);
width = 689;
},
{
layerId = "67B2D992-FDF5-421B-B89F-40A62CC9CD8A";
shapes = (
{
closed = 1;
nodes = (
(23,0,l),
(43,0,l),
(168,708,l),
(148,708,l)
);
},
{
closed = 1;
nodes = (
(485,0,l),
(505,0,l),
(630,708,l),
(609,708,l)
);
},
{
closed = 1;
nodes = (
(96,355,l),
(559,355,l),
(562,373,l),
(99,373,l)
);
}
);
width = 653;
}
);
unicode = 72;
},
{
glyphname = I;
layers = (
{
layerId = "8A84D32D-FB1E-4DD2-B3EC-97AE96C1F3F2";
shapes = (
{
closed = 1;
nodes = (
(-12,0,l),
(210,0,l),
(334,708,l),
(112,708,l)
);
}
);
width = 322;
},
{
layerId = "9E02F294-FA05-4D2D-A912-E8181F430C35";
shapes = (
{
closed = 1;
nodes = (
(11,0,l),
(102,0,l),
(227,708,l),
(135,708,l)
);
}
);
width = 238;
},
{
layerId = "67B2D992-FDF5-421B-B89F-40A62CC9CD8A";
shapes = (
{
closed = 1;
nodes = (
(23,0,l),
(43,0,l),
(168,708,l),
(148,708,l)
);
}
);
width = 191;
}
);
unicode = 73;
},
{
glyphname = J;
layers = (
{
layerId = "8A84D32D-FB1E-4DD2-B3EC-97AE96C1F3F2";
shapes = (
{
closed = 1;
nodes = (
(305,251,ls),
(297,205,o),
(277,193,o),
(253,193,cs),
(224,193,o),
(204,209,o),
(215,271,c),
(-4,271,l),
(-37,85,o),
(62,-7,o),
(228,-7,cs),
(384,-7,o),
(496,78,o),
(526,251,cs),
(607,708,l),
(386,708,l)
);
}
);
width = 590;
},
{
layerId = "9E02F294-FA05-4D2D-A912-E8181F430C35";
shapes = (
{
closed = 1;
nodes = (
(296,182,ls),
(287,128,o),
(253,76,o),
(177,76,cs),
(96,76,o),
(75,132,o),
(89,209,c),
(-2,209,l),
(-26,71,o),
(38,-7,o),
(166,-7,cs),
(285,-7,o),
(367,66,o),
(388,182,cs),
(481,708,l),
(389,708,l)
);
}
);
width = 486;
},
{
layerId = "67B2D992-FDF5-421B-B89F-40A62CC9CD8A";
shapes = (
{
closed = 1;
nodes = (
(292,144,ls),
(282,85,o),
(239,11,o),
(134,11,cs),
(26,11,o),
(4,89,o),
(19,174,c),
(-1,174,l),
(-20,63,o),
(25,-7,o),
(131,-7,cs),
(230,-7,o),
(297,60,o),
(312,144,cs),
(411,708,l),
(391,708,l)
);
}
);
width = 428;
}
);
unicode = 74;
},
{
glyphname = K;
layers = (
{
layerId = "8A84D32D-FB1E-4DD2-B3EC-97AE96C1F3F2";
shapes = (
{
closed = 1;
nodes = (
(-12,0,l),
(210,0,l),
(334,708,l),
(112,708,l)
);
},
{
closed = 1;
nodes = (
(238,359,l),
(416,0,l),
(683,0,l),
(479,375,l),
(452,329,l),
(807,708,l),
(542,708,l)
);
}
);
width = 755;
},
{
layerId = "9E02F294-FA05-4D2D-A912-E8181F430C35";
shapes = (
{
closed = 1;
nodes = (
(11,0,l),
(102,0,l),
(227,708,l),
(135,708,l)
);
},
{
closed = 1;
nodes = (
(144,355,l),
(397,0,l),
(510,0,l),
(243,366,l),
(234,342,l),
(634,708,l),
(523,708,l)
);
}
);
width = 589;
},
{
layerId = "67B2D992-FDF5-421B-B89F-40A62CC9CD8A";
shapes = (
{
closed = 1;
nodes = (
(23,0,l),
(43,0,l),
(168,708,l),
(148,708,l)
);
},
{
closed = 1;
nodes = (
(91,353,l),
(387,0,l),
(414,0,l),
(112,361,l),
(113,350,l),
(539,708,l),
(512,708,l)
);
}
);
width = 497;
}
);
unicode = 75;
},
{
glyphname = Kcommaaccent;
layers = (
{
layerId = "8A84D32D-FB1E-4DD2-B3EC-97AE96C1F3F2";
shapes = (
{
closed = 1;
nodes = (
(281,-35,l),
(255,-182,l),
(327,-182,l),
(325,-193,ls),
(316,-245,o),
(291,-268,o),
(257,-268,c),
(243,-346,l),
(356,-346,o),
(421,-266,o),
(438,-170,cs),
(446,-128,o),
(447,-82,o),
(437,-35,c)
);
},
{
alignment = -1;
pos = (-2,0);
ref = K;
}
);
width = 748;
},
{
layerId = "9E02F294-FA05-4D2D-A912-E8181F430C35";
shapes = (
{
closed = 1;
nodes = (
(203,-50,l),
(189,-127,l),
(235,-127,l),
(233,-136,l),
(226,-175,o),
(208,-197,o),
(176,-197,c),
(168,-236,l),
(232,-236,o),
(275,-198,o),
(290,-118,c),
(293,-98,o),
(294,-73,o),
(291,-50,c)
);
},
{
alignment = -1;
pos = (-5,0);
ref = K;
}
);
width = 584;
},
{
layerId = "67B2D992-FDF5-421B-B89F-40A62CC9CD8A";
shapes = (
{
closed = 1;
nodes = (
(160,-59,l),
(153,-97,l),
(184,-97,l),
(183,-104,l),
(177,-137,o),
(163,-158,o),
(131,-158,c),
(127,-176,l),
(163,-176,o),
(195,-161,o),
(208,-90,c),
(209,-81,o),
(210,-68,o),
(211,-59,c)
);
},
{
alignment = -1;
pos = (-7,0);
ref = K;
}
);
width = 494;
}
);
unicode = 310;
},
{
glyphname = L;
layers = (
{
layerId = "8A84D32D-FB1E-4DD2-B3EC-97AE96C1F3F2";
shapes = (
{
closed = 1;
nodes = (
(112,708,l),
(-12,0,l),
(424,0,l),
(453,168,l),
(239,168,l),
(334,708,l)
);
}
);
width = 506;
},
{
layerId = "9E02F294-FA05-4D2D-A912-E8181F430C35";
shapes = (
{
closed = 1;
nodes = (
(135,708,l),
(11,0,l),
(353,0,l),
(366,71,l),
(115,71,l),
(227,708,l)
);
}
);
width = 436;
},
{
layerId = "67B2D992-FDF5-421B-B89F-40A62CC9CD8A";
shapes = (
{
closed = 1;
nodes = (
(148,708,l),
(23,0,l),
(315,0,l),
(318,18,l),
(46,18,l),
(168,708,l)
);
}
);
width = 397;
}
);
unicode = 76;
},
{
glyphname = Lcaron;
layers = (
{
layerId = "8A84D32D-FB1E-4DD2-B3EC-97AE96C1F3F2";
shapes = (
{
closed = 1;
nodes = (
(431,708,l),
(405,562,l),
(477,562,l),
(475,550,ls),
(466,499,o),
(441,476,o),
(407,476,c),
(393,397,l),
(506,397,o),
(571,477,o),
(588,574,cs),
(596,616,o),
(597,662,o),
(587,708,c)
);
},
{
alignment = -1;
pos = (-3,0);
ref = L;
}
);
width = 577;
},
{
layerId = "9E02F294-FA05-4D2D-A912-E8181F430C35";
shapes = (
{
closed = 1;
nodes = (
(343,705,l),
(328,619,l),
(378,619,l),
(374,596,ls),
(367,560,o),
(350,541,o),
(315,541,c),
(308,500,l),
(374,500,o),
(416,538,o),
(429,613,cs),
(434,640,o),
(436,670,o),
(434,705,c)
);
},
{
alignment = -1;
pos = (-2,0);
ref = L;
}
);
width = 460;
},
{
layerId = "67B2D992-FDF5-421B-B89F-40A62CC9CD8A";
shapes = (
{
closed = 1;
nodes = (
(294,704,l),
(285,651,l),
(323,651,l),
(318,622,l),
(312,593,o),
(300,577,o),
(265,577,c),
(261,557,l),
(301,557,o),
(331,572,o),
(342,635,cs),
(345,653,o),
(348,675,o),
(350,704,c)
);
},
{
alignment = -1;
pos = (-2,0);
ref = L;
}
);
width = 395;
}
);
unicode = 317;
},
{
glyphname = Lcommaaccent;
layers = (
{
layerId = "8A84D32D-FB1E-4DD2-B3EC-97AE96C1F3F2";
shapes = (
{
closed = 1;
nodes = (
(171,-35,l),
(146,-182,l),
(218,-182,l),
(216,-193,ls),
(206,-245,o),
(182,-268,o),
(147,-268,c),
(134,-346,l),
(248,-346,o),
(313,-266,o),
(330,-170,cs),
(337,-128,o),
(337,-82,o),
(327,-35,c)
);
},
{
alignment = -1;
pos = (-2,0);
ref = L;
}
);
width = 511;
},
{
layerId = "9E02F294-FA05-4D2D-A912-E8181F430C35";
shapes = (
{
closed = 1;
nodes = (
(157,-50,l),
(144,-127,l),
(190,-127,l),
(188,-136,l),
(181,-175,o),
(163,-197,o),
(130,-197,c),
(123,-236,l),
(187,-236,o),
(230,-198,o),
(245,-118,c),
(248,-98,o),
(249,-73,o),
(246,-50,c)
);
},
{
alignment = -1;
pos = (-5,0);
ref = L;
}
);
width = 436;
},
{
layerId = "67B2D992-FDF5-421B-B89F-40A62CC9CD8A";
shapes = (
{
closed = 1;
nodes = (
(150,-59,l),
(143,-97,l),
(174,-97,l),
(173,-104,l),
(167,-137,o),
(153,-158,o),
(121,-158,c),
(117,-176,l),
(153,-176,o),
(185,-161,o),
(198,-90,c),
(199,-81,o),
(200,-68,o),
(201,-59,c)
);
},
{
alignment = -1;
pos = (-7,0);
ref = L;
}
);
width = 395;
}
);
unicode = 315;
},
{
glyphname = Lslash;
layers = (
{
layerId = "8A84D32D-FB1E-4DD2-B3EC-97AE96C1F3F2";
shapes = (
{
closed = 1;
nodes = (
(-13,221,l),
(356,318,l),
(394,534,l),
(25,437,l)
);
},
{
closed = 1;
nodes = (
(127,708,l),
(3,0,l),
(439,0,l),
(468,168,l),
(254,168,l),
(349,708,l)
);
}
);
width = 521;
},
{
layerId = "9E02F294-FA05-4D2D-A912-E8181F430C35";
shapes = (
{
closed = 1;
nodes = (
(-3,281,l),
(322,399,l),
(339,491,l),
(13,372,l)
);
},
{
closed = 1;
nodes = (
(153,708,l),
(29,0,l),
(372,0,l),
(384,71,l),
(133,71,l),
(245,708,l)
);
}
);
width = 454;
},
{
layerId = "67B2D992-FDF5-421B-B89F-40A62CC9CD8A";
shapes = (
{
closed = 1;
nodes = (
(3,314,l),
(304,444,l),
(308,467,l),
(7,336,l)
);
},
{
closed = 1;
nodes = (
(168,708,l),
(43,0,l),
(335,0,l),
(338,18,l),
(66,18,l),
(188,708,l)
);
}
);
width = 417;
}
);
unicode = 321;
},
{
glyphname = M;
layers = (
{
layerId = "8A84D32D-FB1E-4DD2-B3EC-97AE96C1F3F2";
shapes = (
{
closed = 1;
nodes = (
(-12,0,l),
(210,0,l),
(312,579,l),
(244,564,l),
(319,0,l),
(509,0,l),
(782,564,l),
(720,579,l),
(618,0,l),
(839,0,l),
(963,708,l),
(692,708,l),
(389,139,l),
(490,159,l),
(384,708,l),
(112,708,l)
);
}
);
width = 951;
},
{
layerId = "9E02F294-FA05-4D2D-A912-E8181F430C35";
shapes = (
{
closed = 1;
nodes = (
(13,0,l),
(105,0,l),
(216,632,l),
(189,630,l),
(333,0,l),
(414,0,l),
(778,630,l),
(753,632,l),
(642,0,l),
(734,0,l),
(858,708,l),
(749,708,l),
(363,60,l),
(406,67,l),
(247,708,l),
(137,708,l)
);
}
);
width = 870;
},
{
layerId = "67B2D992-FDF5-421B-B89F-40A62CC9CD8A";
shapes = (
{
closed = 1;
nodes = (
(26,0,l),
(47,0,l),
(163,661,l),
(159,667,l),
(341,0,l),
(362,0,l),
(776,667,l),
(771,661,l),
(655,0,l),
(676,0,l),
(800,708,l),
(780,708,l),
(348,16,l),
(360,16,l),
(171,708,l),
(150,708,l)
);
}
);
width = 826;
}
);
unicode = 77;
},
{
glyphname = N;
layers = (
{
layerId = "8A84D32D-FB1E-4DD2-B3EC-97AE96C1F3F2";
shapes = (
{
closed = 1;
nodes = (
(569,708,l),
(506,346,l),
(334,708,l),
(112,708,l),
(-12,0,l),
(210,0,l),
(272,356,l),
(445,0,l),
(667,0,l),
(791,708,l)
);
}
);
width = 779;
},
{
layerId = "9E02F294-FA05-4D2D-A912-E8181F430C35";
shapes = (
{
closed = 1;
nodes = (
(594,707,l),
(496,147,l),
(227,707,l),
(135,707,l),
(11,0,l),
(102,0,l),
(201,559,l),
(470,0,l),
(561,0,l),
(685,707,l)
);
}
);
width = 696;
},
{
layerId = "67B2D992-FDF5-421B-B89F-40A62CC9CD8A";
shapes = (
{
closed = 1;
nodes = (
(607,707,l),
(490,37,l),
(168,707,l),
(148,707,l),
(23,0,l),
(43,0,l),
(162,671,l),
(483,0,l),
(503,0,l),
(627,707,l)
);
}
);
width = 651;
}
);
unicode = 78;
},
{
glyphname = Ncommaaccent;
layers = (
{
layerId = "8A84D32D-FB1E-4DD2-B3EC-97AE96C1F3F2";
shapes = (
{
closed = 1;
nodes = (
(288,-35,l),
(262,-182,l),
(334,-182,l),
(332,-193,ls),
(323,-245,o),
(299,-268,o),
(264,-268,c),
(250,-346,l),
(364,-346,o),
(429,-266,o),
(446,-170,cs),
(454,-128,o),
(454,-82,o),
(444,-35,c)
);
},
{
alignment = -1;
ref = N;
}
);
width = 781;
},
{
layerId = "9E02F294-FA05-4D2D-A912-E8181F430C35";
shapes = (
{
closed = 1;
nodes = (
(257,-50,l),
(243,-127,l),
(289,-127,l),
(287,-136,l),
(280,-175,o),
(263,-197,o),
(230,-197,c),
(223,-236,l),
(287,-236,o),
(330,-198,o),
(344,-118,cs),
(348,-98,o),
(349,-73,o),
(345,-50,c)
);
},
{
alignment = -1;
pos = (-4,0);
ref = N;
}
);
width = 695;
},
{
layerId = "67B2D992-FDF5-421B-B89F-40A62CC9CD8A";
shapes = (
{
closed = 1;
nodes = (
(240,-59,l),
(233,-97,l),
(264,-97,l),
(263,-104,l),
(257,-137,o),
(243,-158,o),
(211,-158,c),
(208,-176,l),
(244,-176,o),
(275,-161,o),
(288,-90,c),
(289,-81,o),
(291,-68,o),
(291,-59,c)
);
},
{
alignment = -1;
pos = (-6,0);
ref = N;
}
);
width = 647;
}
);
unicode = 325;
},
{
glyphname = O;
layers = (
{
layerId = "8A84D32D-FB1E-4DD2-B3EC-97AE96C1F3F2";
shapes = (
{
closed = 1;
nodes = (
(-10,161,o),
(108,-7,o),
(353,-7,cs),
(562,-7,o),
(707,127,o),
(740,317,cs),
(782,553,o),
(657,720,o),
(421,720,cs),
(211,720,o),
(66,587,o),
(32,397,cs)
);
},
{
closed = 1;
nodes = (
(510,259,o),
(453,200,o),
(369,200,cs),
(270,200,o),
(231,267,o),
(248,367,cs),
(264,457,o),
(320,515,o),
(405,515,cs),
(502,515,o),
(543,449,o),
(525,347,cs)
);
}
);
width = 772;
},
{
layerId = "9E02F294-FA05-4D2D-A912-E8181F430C35";
shapes = (
{
closed = 1;
nodes = (
(11,148,o),
(127,-8,o),
(341,-8,cs),
(543,-8,o),
(702,135,o),
(738,340,cs),
(777,561,o),
(658,717,o),
(448,717,cs),
(246,717,o),
(86,573,o),
(50,368,cs)
);
},
{
closed = 1;
nodes = (
(618,183,o),
(492,77,o),
(349,77,cs),
(201,77,o),
(110,185,o),
(141,358,cs),
(171,527,o),
(296,631,o),
(440,631,cs),
(587,631,o),
(677,525,o),
(647,351,cs)
);
}
);
width = 787;
},
{
layerId = "67B2D992-FDF5-421B-B89F-40A62CC9CD8A";
shapes = (
{
closed = 1;
nodes = (
(23,141,o),
(138,-8,o),
(335,-8,c),
(532,-8,o),
(699,141,o),
(736,353,c),
(773,565,o),
(659,714,o),
(462,714,c),
(264,714,o),
(98,565,o),
(60,353,c)
);
},
{
closed = 1;
nodes = (
(678,140,o),
(514,10,o),
(338,10,c),
(162,10,o),
(44,140,o),
(81,353,c),
(119,566,o),
(283,696,o),
(459,696,c),
(635,696,o),
(752,566,o),
(715,353,c)
);
}
);
width = 796;
}
);
unicode = 79;
},
{
glyphname = Oslash;
layers = (
{
layerId = "8A84D32D-FB1E-4DD2-B3EC-97AE96C1F3F2";
shapes = (
{
closed = 1;
nodes = (
(-45,1,l),
(71,1,l),
(832,712,l),
(717,712,l)
);
},
{
alignment = -1;
pos = (-1,0);
ref = O;
}
);
width = 788;
},
{
layerId = "9E02F294-FA05-4D2D-A912-E8181F430C35";
shapes = (
{
closed = 1;
nodes = (
(-17,0,l),
(41,0,l),
(807,707,l),
(751,707,l)
);
},
{
alignment = -1;
ref = O;
}
);
width = 791;
},
{
layerId = "67B2D992-FDF5-421B-B89F-40A62CC9CD8A";
shapes = (
{
closed = 1;
nodes = (
(-1,0,l),
(24,0,l),
(793,704,l),
(769,704,l)
);
},
{
alignment = -1;
ref = O;
}
);
width = 792;
}
);
unicode = 216;
},
{
glyphname = OE;
layers = (
{
layerId = "8A84D32D-FB1E-4DD2-B3EC-97AE96C1F3F2";
shapes = (
{
closed = 1;
nodes = (
(278,456,o),
(336,515,o),
(424,515,cs),
(513,515,o),
(551,452,o),
(534,354,c),
(516,256,o),
(457,193,o),
(368,193,cs),
(281,193,o),
(244,260,o),
(262,364,c)
);
},
{
closed = 1;
nodes = (
(1047,532,l),
(1078,708,l),
(606,708,l),
(600,671,l),
(560,705,o),
(497,720,o),
(434,720,cs),
(217,720,o),
(67,577,o),
(31,374,c),
(-9,148,o),
(112,-12,o),
(314,-12,c),
(374,-9,o),
(438,4,o),
(488,37,c),
(481,0,l),
(953,0,l),
(984,177,l),
(734,177,l),
(752,277,l),
(972,277,l),
(1001,444,l),
(781,444,l),
(797,532,l)
);
}
);
width = 1050;
},
{
layerId = "9E02F294-FA05-4D2D-A912-E8181F430C35";
shapes = (
{
closed = 1;
nodes = (
(175,527,o),
(302,632,o),
(447,632,cs),
(592,632,o),
(681,526,o),
(651,353,cs),
(620,181,o),
(494,75,o),
(349,75,cs),
(204,75,o),
(115,183,o),
(145,357,cs)
);
},
{
closed = 1;
nodes = (
(1095,634,l),
(1108,708,l),
(717,708,l),
(688,538,l),
(670,647,o),
(574,716,o),
(452,716,cs),
(247,716,o),
(87,569,o),
(50,360,cs),
(12,143,o),
(129,-9,o),
(328,-9,c),
(449,-8,o),
(567,60,o),
(622,169,c),
(593,0,l),
(983,0,l),
(996,74,l),
(697,74,l),
(741,321,l),
(1010,321,l),
(1022,392,l),
(753,392,l),
(796,634,l)
);
}
);
width = 1090;
},
{
layerId = "67B2D992-FDF5-421B-B89F-40A62CC9CD8A";
shapes = (
{
closed = 1;
nodes = (
(119,566,o),
(283,696,o),
(459,696,c),
(635,696,o),
(752,566,o),
(715,353,c),
(678,140,o),
(514,10,o),
(338,10,c),
(162,10,o),
(44,140,o),
(81,353,c)
);
},
{
closed = 1;
nodes = (
(1121,690,l),
(1124,708,l),
(778,708,l),
(736,465,l),
(730,615,o),
(617,714,o),
(462,714,c),
(264,714,o),
(98,565,o),
(60,353,c),
(23,141,o),
(138,-8,o),
(335,-8,c),
(491,-8,o),
(638,91,o),
(696,241,c),
(654,0,l),
(1000,0,l),
(1003,18,l),
(677,18,l),
(735,345,l),
(1031,345,l),
(1034,363,l),
(738,363,l),
(795,690,l)
);
}
);
width = 1112;
}
);
unicode = 338;
},
{
glyphname = P;
layers = (
{
layerId = "8A84D32D-FB1E-4DD2-B3EC-97AE96C1F3F2";
shapes = (
{
closed = 1;
nodes = (
(280,400,l),
(303,530,l),
(366,530,ls),
(416,530,o),
(430,504,o),
(424,465,c),
(417,426,o),
(393,400,o),
(343,400,c)
);
},
{
closed = 1;
nodes = (
(674,608,o),
(600,708,o),
(422,708,cs),
(112,708,l),
(-12,0,l),
(210,0,l),
(249,225,l),
(337,225,ls),
(515,225,o),
(625,334,o),
(649,465,c)
);
}
);
width = 649;
},
{
layerId = "9E02F294-FA05-4D2D-A912-E8181F430C35";
shapes = (
{
closed = 1;
nodes = (
(166,361,l),
(214,632,l),
(339,632,ls),
(455,632,o),
(487,580,o),
(472,496,cs),
(458,414,o),
(407,361,o),
(291,361,cs)
);
},
{
closed = 1;
nodes = (
(587,623,o),
(528,708,o),
(361,708,cs),
(135,708,l),
(11,0,l),
(102,0,l),
(153,286,l),
(286,286,ls),
(444,286,o),
(542,365,o),
(565,496,cs)
);
}
);
width = 573;
},
{
layerId = "67B2D992-FDF5-421B-B89F-40A62CC9CD8A";
shapes = (
{
closed = 1;
nodes = (
(104,340,l),
(165,688,l),
(324,688,ls),
(476,688,o),
(518,622,o),
(499,513,cs),
(481,408,o),
(414,340,o),
(262,340,cs)
);
},
{
closed = 1;
nodes = (
(539,631,o),
(488,708,o),
(327,708,cs),
(148,708,l),
(23,0,l),
(43,0,l),
(100,319,l),
(258,319,ls),
(405,319,o),
(496,382,o),
(519,513,cs)
);
}
);
width = 531;
}
);
unicode = 80;
},
{
glyphname = Thorn;
layers = (
{
layerId = "8A84D32D-FB1E-4DD2-B3EC-97AE96C1F3F2";
shapes = (
{
closed = 1;
nodes = (
(261,290,l),
(284,420,l),
(347,420,ls),
(397,420,o),
(411,394,o),
(404,355,c),
(397,316,o),
(374,290,o),
(324,290,c)
);
},
{
closed = 1;
nodes = (
(653,492,o),
(579,588,o),
(401,588,cs),
(311,588,l),
(332,708,l),
(112,708,l),
(-12,0,l),
(210,0,l),
(232,125,l),
(320,125,ls),
(498,125,o),
(607,229,o),
(629,355,c)
);
}
);
width = 649;
},
{
layerId = "9E02F294-FA05-4D2D-A912-E8181F430C35";
shapes = (
{
closed = 1;
nodes = (
(141,220,l),
(189,490,l),
(314,490,ls),
(429,490,o),
(462,439,o),
(447,354,cs),
(433,273,o),
(382,220,o),
(266,220,cs)
);
},
{
closed = 1;
nodes = (
(562,479,o),
(502,563,o),
(335,563,cs),
(201,563,l),
(226,708,l),
(135,708,l),
(11,0,l),
(102,0,l),
(128,148,l),
(262,148,ls),
(420,148,o),
(517,225,o),
(540,354,cs)
);
}
);
width = 573;
},
{
layerId = "67B2D992-FDF5-421B-B89F-40A62CC9CD8A";
shapes = (
{
closed = 1;
nodes = (
(75,181,l),
(137,529,l),
(296,529,ls),
(447,529,o),
(490,464,o),
(471,354,cs),
(453,249,o),
(386,181,o),
(234,181,cs)
);
},
{
closed = 1;
nodes = (
(512,472,o),
(460,549,o),
(299,549,cs),
(140,549,l),
(168,708,l),
(148,708,l),
(23,0,l),
(43,0,l),
(71,160,l),
(230,160,ls),
(377,160,o),
(468,223,o),
(491,354,cs)
);
}
);
width = 531;
}
);
unicode = 222;
},
{
glyphname = Q;
layers = (
{
layerId = "4221A5E4-585D-4FB3-ABE8-62FACE6AB4F1";
associatedMasterId = "8A84D32D-FB1E-4DD2-B3EC-97AE96C1F3F2";
name = 1;
shapes = (
{
closed = 1;
nodes = (
(660,-120,l),
(499,297,l),
(287,297,l),
(449,-120,l)
);
},
{
alignment = -1;
ref = O;
}
);
width = 788;
},
{
layerId = "8A84D32D-FB1E-4DD2-B3EC-97AE96C1F3F2";
shapes = (
{
closed = 1;
nodes = (
(639,-120,l),
(480,305,l),
(298,305,l),
(457,-120,l)
);
},
{
alignment = -1;
ref = O;
}
);
width = 772;
},
{
anchors = (
{
name = top;
position = "{465, 699}";
}
);
layerId = "C16E06DE-C772-479D-9024-17D0314B1FFD";
associatedMasterId = "9E02F294-FA05-4D2D-A912-E8181F430C35";
name = 1;
shapes = (
{
closed = 1;
nodes = (
(607,-100,l),
(452,277,l),
(345,277,l),
(501,-100,l)
);
},
{
alignment = -1;
ref = O;
}
);
width = 790;
},
{
layerId = "9E02F294-FA05-4D2D-A912-E8181F430C35";
shapes = (
{
closed = 1;
nodes = (
(608,-95,l),
(453,273,l),
(357,273,l),
(513,-95,l)
);
},
{
alignment = -1;
pos = (1,0);
ref = O;
}
);
width = 791;
},
{
layerId = "75265587-A3E9-41B7-8A1E-9296CCD9F2C3";
associatedMasterId = "67B2D992-FDF5-421B-B89F-40A62CC9CD8A";
name = 1;
shapes = (
{
closed = 1;
nodes = (
(539,-85,l),
(390,266,l),
(368,266,l),
(517,-85,l)
);
},
{
alignment = -1;
ref = O;
}
);
width = 792;
},
{
layerId = "67B2D992-FDF5-421B-B89F-40A62CC9CD8A";
shapes = (
{
closed = 1;
nodes = (
(547,-86,l),
(398,266,l),
(376,266,l),
(525,-86,l)
);
},
{
alignment = -1;
pos = (1,0);
ref = O;
}
);
width = 792;
}
);
unicode = 81;
},
{
glyphname = R;
layers = (
{
layerId = "8A84D32D-FB1E-4DD2-B3EC-97AE96C1F3F2";
shapes = (
{
closed = 1;
nodes = (
(436,420,o),
(410,402,o),
(368,402,cs),
(280,402,l),
(302,522,l),
(390,522,ls),
(432,522,o),
(449,498,o),
(443,462,cs)
);
},
{
closed = 1;
nodes = (
(112,708,l),
(-12,0,l),
(210,0,l),
(254,254,l),
(362,254,l),
(540,254,o),
(649,352,o),
(671,476,c),
(693,606,o),
(620,708,o),
(442,708,cs)
);
},
{
closed = 1;
nodes = (
(236,305,l),
(344,0,l),
(588,0,l),
(467,305,l)
);
}
);
width = 670;
},
{
layerId = "9E02F294-FA05-4D2D-A912-E8181F430C35";
shapes = (
{
closed = 1;
nodes = (
(464,409,o),
(411,355,o),
(299,355,cs),
(166,355,l),
(214,628,l),
(347,628,ls),
(460,628,o),
(493,575,o),
(479,492,cs)
);
},
{
closed = 1;
nodes = (
(135,708,l),
(11,0,l),
(102,0,l),
(154,289,l),
(294,289,ls),
(452,289,o),
(550,368,o),
(572,497,cs),
(594,618,o),
(535,708,o),
(368,708,cs)
);
},
{
closed = 1;
nodes = (
(241,312,l),
(386,0,l),
(490,0,l),
(338,312,l)
);
}
);
width = 585;
},
{
layerId = "67B2D992-FDF5-421B-B89F-40A62CC9CD8A";
shapes = (
{
closed = 1;
nodes = (
(480,403,o),
(412,330,o),
(260,330,cs),
(102,330,l),
(165,688,l),
(324,688,ls),
(476,688,o),
(517,617,o),
(498,508,cs)
);
},
{
closed = 1;
nodes = (
(148,708,l),
(23,0,l),
(43,0,l),
(98,309,l),
(256,309,ls),
(403,309,o),
(495,377,o),
(518,508,cs),
(539,625,o),
(488,708,o),
(327,708,cs)
);
},
{
closed = 1;
nodes = (
(243,317,l),
(410,0,l),
(435,0,l),
(267,317,l)
);
}
);
width = 538;
}
);
unicode = 82;
},
{
glyphname = Rcommaaccent;
layers = (
{
layerId = "8A84D32D-FB1E-4DD2-B3EC-97AE96C1F3F2";
shapes = (
{
closed = 1;
nodes = (
(232,-35,l),
(206,-182,l),
(278,-182,l),
(276,-193,ls),
(267,-245,o),
(243,-268,o),
(208,-268,c),
(194,-346,l),
(308,-346,o),
(373,-266,o),
(390,-170,cs),
(398,-128,o),
(398,-82,o),
(388,-35,c)
);
},
{
alignment = -1;
pos = (-32,0);
ref = R;
}
);
width = 701;
},
{
layerId = "9E02F294-FA05-4D2D-A912-E8181F430C35";
shapes = (
{
closed = 1;
nodes = (
(198,-50,l),
(185,-127,l),
(230,-127,l),
(229,-136,l),
(222,-175,o),
(204,-197,o),
(171,-197,c),
(164,-236,l),
(227,-236,o),
(271,-198,o),
(286,-118,c),
(289,-98,o),
(290,-73,o),
(287,-50,c)
);
},
{
alignment = -1;
pos = (-16,0);
ref = R;
}
);
width = 594;
},
{
layerId = "67B2D992-FDF5-421B-B89F-40A62CC9CD8A";
shapes = (
{
closed = 1;
nodes = (
(180,-59,l),
(173,-97,l),
(204,-97,l),
(203,-104,l),
(197,-137,o),
(183,-158,o),
(151,-158,c),
(147,-176,l),
(183,-176,o),
(215,-161,o),
(228,-90,c),
(229,-81,o),
(230,-68,o),
(231,-59,c)
);
},
{
alignment = -1;
pos = (-7,0);
ref = R;
}
);
width = 535;
}
);
unicode = 342;
},
{
glyphname = S;
layers = (
{
layerId = "8A84D32D-FB1E-4DD2-B3EC-97AE96C1F3F2";
shapes = (
{
closed = 1;
nodes = (
(445,-7,o),
(551,75,o),
(569,179,cs),
(618,451,o),
(276,413,o),
(294,513,cs),
(298,537,o),
(314,547,o),
(332,547,cs),
(353,547,o),
(372,536,o),
(368,491,c),
(607,491,l),
(603,631,o),
(522,720,o),
(333,720,cs),
(197,720,o),
(75,660,o),
(54,544,c),
(5,271,o),
(350,309,o),
(331,201,cs),
(327,177,o),
(309,166,o),
(287,166,cs),
(265,166,o),
(238,175,o),
(243,227,c),
(7,227,l),
(9,78,o),
(111,-7,o),
(285,-7,cs)
);
}
);
width = 621;
},
{
layerId = "9E02F294-FA05-4D2D-A912-E8181F430C35";
shapes = (
{
closed = 1;
nodes = (
(395,-7,o),
(476,80,o),
(490,167,cs),
(541,455,o),
(143,340,o),
(179,547,cs),
(190,611,o),
(244,643,o),
(312,643,cs),
(406,643,o),
(439,585,o),
(440,537,c),
(537,537,l),
(533,630,o),
(468,717,o),
(315,717,cs),
(188,717,o),
(96,652,o),
(80,558,cs),
(30,278,o),
(430,392,o),
(392,175,cs),
(382,114,o),
(333,66,o),
(254,66,cs),
(152,66,o),
(116,134,o),
(119,191,c),
(22,191,l),
(21,83,o),
(100,-7,o),
(252,-7,cs)
);
}
);
width = 568;
},
{
layerId = "67B2D992-FDF5-421B-B89F-40A62CC9CD8A";
shapes = (
{
closed = 1;
nodes = (
(368,-7,o),
(433,82,o),
(446,160,cs),
(498,457,o),
(68,301,o),
(115,566,cs),
(130,652,o),
(205,697,o),
(302,697,c),
(435,697,o),
(475,612,o),
(479,562,c),
(499,562,l),
(495,631,o),
(437,715,o),
(305,715,c),
(183,715,o),
(109,649,o),
(95,566,cs),
(44,283,o),
(474,438,o),
(426,160,cs),
(412,79,o),
(347,11,o),
(236,11,cs),
(89,11,o),
(49,112,o),
(51,170,c),
(31,170,l),
(27,86,o),
(95,-7,o),
(233,-7,cs)
);
}
);
width = 539;
}
);
unicode = 83;
},
{
glyphname = Scommaaccent;
layers = (
{
layerId = "8A84D32D-FB1E-4DD2-B3EC-97AE96C1F3F2";
shapes = (
{
closed = 1;
nodes = (
(222,-35,l),
(196,-182,l),
(268,-182,l),
(266,-193,ls),
(257,-245,o),
(233,-268,o),
(198,-268,c),
(184,-346,l),
(298,-346,o),
(363,-266,o),
(380,-170,cs),
(388,-128,o),
(388,-82,o),
(378,-35,c)
);
},
{
alignment = -1;
pos = (5,0);
ref = S;
}
);
width = 626;
},
{
layerId = "9E02F294-FA05-4D2D-A912-E8181F430C35";
shapes = (
{
closed = 1;
nodes = (
(214,-50,l),
(201,-127,l),
(246,-127,l),
(244,-136,l),
(238,-175,o),
(219,-197,o),
(186,-197,c),
(179,-236,l),
(243,-236,o),
(286,-198,o),
(301,-118,cs),
(305,-98,o),
(305,-73,o),
(302,-50,c)
);
},
{
alignment = -1;
pos = (-3,0);
ref = S;
}
);
width = 568;
},
{
layerId = "67B2D992-FDF5-421B-B89F-40A62CC9CD8A";
shapes = (
{
closed = 1;
nodes = (
(209,-59,l),
(203,-97,l),
(234,-97,l),
(232,-104,l),
(227,-137,o),
(212,-158,o),
(180,-158,c),
(177,-176,l),
(213,-176,o),
(244,-161,o),
(257,-90,cs),
(259,-81,o),
(260,-68,o),
(260,-59,c)
);
},
{
alignment = -1;
pos = (-7,0);
ref = S;
}
);
width = 536;
}
);
unicode = 536;
},
{
glyphname = T;
layers = (
{
layerId = "8A84D32D-FB1E-4DD2-B3EC-97AE96C1F3F2";
shapes = (
{
closed = 1;
nodes = (
(41,532,l),
(227,532,l),
(134,0,l),
(356,0,l),
(449,532,l),
(637,532,l),
(668,708,l),
(72,708,l)
);
}
);
width = 616;
},
{
layerId = "9E02F294-FA05-4D2D-A912-E8181F430C35";
shapes = (
{
closed = 1;
nodes = (
(66,633,l),
(265,633,l),
(154,0,l),
(245,0,l),
(356,633,l),
(556,633,l),
(569,708,l),
(78,708,l)
);
}
);
width = 524;
},
{
layerId = "67B2D992-FDF5-421B-B89F-40A62CC9CD8A";
shapes = (
{
closed = 1;
nodes = (
(79,690,l),
(286,690,l),
(164,0,l),
(184,0,l),
(306,690,l),
(512,690,l),
(515,708,l),
(82,708,l)
);
}
);
width = 473;
}
);
unicode = 84;
},
{
glyphname = Tcommaaccent;
layers = (
{
layerId = "8A84D32D-FB1E-4DD2-B3EC-97AE96C1F3F2";
shapes = (
{
closed = 1;
nodes = (
(161,-35,l),
(135,-182,l),
(207,-182,l),
(205,-193,ls),
(196,-245,o),
(171,-268,o),
(137,-268,c),
(123,-346,l),
(236,-346,o),
(301,-266,o),
(318,-170,cs),
(326,-128,o),
(327,-82,o),
(317,-35,c)
);
},
{
alignment = -1;
pos = (-2,0);
ref = T;
}
);
width = 616;
},
{
layerId = "9E02F294-FA05-4D2D-A912-E8181F430C35";
shapes = (
{
closed = 1;
nodes = (
(141,-50,l),
(127,-127,l),
(173,-127,l),
(171,-136,l),
(164,-175,o),
(146,-197,o),
(114,-197,c),
(106,-236,l),
(170,-236,o),
(213,-198,o),
(228,-118,c),
(231,-98,o),
(232,-73,o),
(229,-50,c)
);
},
{
alignment = -1;
pos = (-5,0);
ref = T;
}
);
width = 522;
},
{
layerId = "67B2D992-FDF5-421B-B89F-40A62CC9CD8A";
shapes = (
{
closed = 1;
nodes = (
(130,-59,l),
(123,-97,l),
(154,-97,l),
(153,-104,l),
(147,-137,o),
(133,-158,o),
(101,-158,c),
(97,-176,l),
(133,-176,o),
(165,-161,o),
(178,-90,c),
(179,-81,o),
(180,-68,o),
(181,-59,c)
);
},
{
alignment = -1;
pos = (-7,0);
ref = T;
}
);
width = 470;
}
);
unicode = 538;
},
{
glyphname = U;
layers = (
{
layerId = "8A84D32D-FB1E-4DD2-B3EC-97AE96C1F3F2";
shapes = (
{
closed = 1;
nodes = (
(39,309,ls),
(2,100,o),
(113,-7,o),
(290,-7,cs),
(467,-7,o),
(629,100,o),
(666,309,cs),
(736,708,l),
(515,708,l),
(445,309,ls),
(434,248,o),
(399,203,o),
(332,203,cs),
(265,203,o),
(249,248,o),
(260,309,cs),
(330,708,l),
(109,708,l)
);
}
);
width = 719;
},
{
layerId = "9E02F294-FA05-4D2D-A912-E8181F430C35";
shapes = (
{
closed = 1;
nodes = (
(56,283,ls),
(21,83,o),
(115,-7,o),
(268,-7,cs),
(421,-7,o),
(548,83,o),
(584,283,cs),
(658,708,l),
(567,708,l),
(492,283,ls),
(466,140,o),
(387,79,o),
(285,79,cs),
(181,79,o),
(122,140,o),
(149,283,cs),
(223,708,l),
(131,708,l)
);
}
);
width = 664;
},
{
layerId = "67B2D992-FDF5-421B-B89F-40A62CC9CD8A";
shapes = (
{
closed = 1;
nodes = (
(66,268,ls),
(31,73,o),
(117,-7,o),
(255,-7,cs),
(394,-7,o),
(503,73,o),
(538,268,cs),
(615,708,l),
(595,708,l),
(518,268,ls),
(484,79,o),
(381,11,o),
(258,11,cs),
(134,11,o),
(52,79,o),
(86,268,cs),
(164,708,l),
(144,708,l)
);
}
);
width = 633;
}
);
unicode = 85;
},
{
glyphname = Uogonek;
layers = (
{
background = {
shapes = (
{
closed = 1;
nodes = (
(71,309,ls),
(71,134,o),
(176,30,o),
(302,1,c),
(302,-4,o),
(302,-8,o),
(302,-13,c),
(302,-103,o),
(376,-141,o),
(435,-141,cs),
(611,-141,l),
(611,-29,l),
(478,-29,ls),
(458,-29,o),
(450,-23,o),
(450,-14,cs),
(450,-5,o),
(456,2,o),
(484,10,cs),
(589,40,o),
(698,140,o),
(698,309,cs),
(698,708,l),
(477,708,l),
(477,309,ls),
(477,248,o),
(450,203,o),
(383,203,cs),
(316,203,o),
(292,248,o),
(292,309,cs),
(292,708,l),
(71,708,l)
);
}
);
};
layerId = "8A84D32D-FB1E-4DD2-B3EC-97AE96C1F3F2";
shapes = (
{
alignment = -1;
ref = U;
},
{
pos = (158,3);
ref = ogonek;
}
);
width = 719;
},
{
background = {
shapes = (
{
closed = 1;
nodes = (
(74,254,ls),
(74,99,o),
(170,15,o),
(292,-3,c),
(288,-13,o),
(286,-24,o),
(286,-36,cs),
(286,-105,o),
(343,-145,o),
(414,-145,cs),
(520,-145,l),
(520,-74,l),
(428,-74,ls),
(396,-74,o),
(380,-61,o),
(380,-37,cs),
(380,-16,o),
(395,-6,o),
(440,6,cs),
(522,30,o),
(617,100,o),
(617,254,cs),
(617,695,l),
(503,695,l),
(503,254,ls),
(503,146,o),
(442,95,o),
(345,95,cs),
(249,95,o),
(188,146,o),
(188,254,cs),
(188,695,l),
(74,695,l)
);
}
);
};
layerId = "9E02F294-FA05-4D2D-A912-E8181F430C35";
shapes = (
{
alignment = -1;
ref = U;
},
{
pos = (209,0);
ref = ogonek;
}
);
width = 690;
},
{
layerId = "E8ADA500-8AED-4BE2-8B73-CA1D2A5A1EEB";
associatedMasterId = "67B2D992-FDF5-421B-B89F-40A62CC9CD8A";
name = "Sep 20 17, 19:51";
shapes = (
{
closed = 1;
nodes = (
(80,267,ls),
(80,93,o),
(170,10,o),
(286,-5,c),
(254,-14,o),
(233,-48,o),
(233,-82,c),
(233,-135,o),
(271,-177,o),
(348,-177,c),
(416,-177,l),
(416,-157,l),
(348,-157,ls),
(289,-157,o),
(253,-129,o),
(253,-82,c),
(253,-39,o),
(283,-11,o),
(333,-7,cs),
(462,2,o),
(549,80,o),
(549,267,cs),
(549,704,l),
(529,704,l),
(529,267,ls),
(529,60,o),
(426,11,o),
(317,11,cs),
(193,11,o),
(100,79,o),
(100,267,cs),
(100,704,l),
(80,704,l)
);
}
);
width = 629;
},
{
background = {
shapes = (
{
closed = 0;
nodes = (
(333,-7,l),
(462,2,o),
(549,80,o),
(549,267,cs),
(549,704,l),
(529,704,l),
(529,267,ls),
(529,60,o),
(426,11,o),
(317,11,cs),
(193,11,o),
(100,79,o),
(100,267,cs),
(100,704,l),
(80,704,l),
(80,267,ls),
(80,93,o),
(170,10,o),
(286,-5,c)
);
}
);
};
layerId = "67B2D992-FDF5-421B-B89F-40A62CC9CD8A";
shapes = (
{
alignment = -1;
ref = U;
},
{
pos = (165,0);
ref = ogonek;
}
);
width = 629;
}
);
unicode = 370;
},
{
glyphname = V;
layers = (
{
layerId = "8A84D32D-FB1E-4DD2-B3EC-97AE96C1F3F2";
shapes = (
{
closed = 1;
nodes = (
(176,0,l),
(463,0,l),
(825,708,l),
(589,708,l),
(359,221,l),
(298,708,l),
(62,708,l)
);
}
);
width = 763;
},
{
layerId = "9E02F294-FA05-4D2D-A912-E8181F430C35";
shapes = (
{
closed = 1;
nodes = (
(216,0,l),
(331,0,l),
(715,708,l),
(616,708,l),
(291,101,l),
(181,708,l),
(82,708,l)
);
}
);
width = 672;
},
{
layerId = "67B2D992-FDF5-421B-B89F-40A62CC9CD8A";
shapes = (
{
closed = 1;
nodes = (
(238,0,l),
(258,0,l),
(655,708,l),
(631,708,l),
(253,35,l),
(117,708,l),
(93,708,l)
);
}
);
width = 622;
}
);
unicode = 86;
},
{
glyphname = W;
layers = (
{
layerId = "8A84D32D-FB1E-4DD2-B3EC-97AE96C1F3F2";
shapes = (
{
closed = 1;
nodes = (
(130,0,l),
(406,0,l),
(577,451,l),
(557,451,l),
(570,0,l),
(846,0,l),
(1132,708,l),
(893,708,l),
(702,112,l),
(756,112,l),
(733,708,l),
(491,708,l),
(258,112,l),
(312,112,l),
(331,708,l),
(92,708,l)
);
}
);
width = 1100;
},
{
layerId = "9E02F294-FA05-4D2D-A912-E8181F430C35";
shapes = (
{
closed = 1;
nodes = (
(152,0,l),
(263,0,l),
(544,612,l),
(525,612,l),
(590,0,l),
(702,0,l),
(1006,708,l),
(905,708,l),
(640,49,l),
(670,49,l),
(601,708,l),
(500,708,l),
(200,49,l),
(230,49,l),
(197,708,l),
(95,708,l)
);
}
);
width = 977;
},
{
layerId = "67B2D992-FDF5-421B-B89F-40A62CC9CD8A";
shapes = (
{
closed = 1;
nodes = (
(163,0,l),
(183,0,l),
(525,701,l),
(507,701,l),
(601,0,l),
(621,0,l),
(936,708,l),
(912,708,l),
(606,15,l),
(622,15,l),
(529,708,l),
(505,708,l),
(168,15,l),
(184,15,l),
(122,708,l),
(98,708,l)
);
}
);
width = 909;
}
);
unicode = 87;
},
{
glyphname = X;
layers = (
{
layerId = "8A84D32D-FB1E-4DD2-B3EC-97AE96C1F3F2";
shapes = (
{
closed = 1;
nodes = (
(439,0,l),
(702,0,l),
(325,708,l),
(62,708,l)
);
},
{
closed = 1;
nodes = (
(286,416,l),
(-52,0,l),
(201,0,l),
(386,243,l)
);
},
{
closed = 1;
nodes = (
(469,293,l),
(807,708,l),
(554,708,l),
(370,466,l)
);
}
);
width = 764;
},
{
layerId = "9E02F294-FA05-4D2D-A912-E8181F430C35";
shapes = (
{
closed = 1;
nodes = (
(405,0,l),
(514,0,l),
(190,708,l),
(82,708,l)
);
},
{
closed = 1;
nodes = (
(261,388,l),
(-39,0,l),
(66,0,l),
(307,320,l)
);
},
{
closed = 1;
nodes = (
(333,329,l),
(632,708,l),
(527,708,l),
(289,397,l)
);
}
);
width = 596;
},
{
layerId = "67B2D992-FDF5-421B-B89F-40A62CC9CD8A";
shapes = (
{
closed = 1;
nodes = (
(387,0,l),
(410,0,l),
(116,708,l),
(93,708,l)
);
},
{
closed = 1;
nodes = (
(248,373,l),
(-32,0,l),
(-9,0,l),
(263,363,l)
);
},
{
closed = 1;
nodes = (
(258,349,l),
(535,708,l),
(512,708,l),
(244,359,l)
);
}
);
width = 503;
}
);
unicode = 88;
},
{
glyphname = Y;
layers = (
{
layerId = "8A84D32D-FB1E-4DD2-B3EC-97AE96C1F3F2";
shapes = (
{
closed = 1;
nodes = (
(229,215,l),
(192,0,l),
(414,0,l),
(451,215,l),
(792,708,l),
(542,708,l),
(329,368,l),
(409,368,l),
(316,708,l),
(62,708,l)
);
}
);
width = 730;
},
{
layerId = "9E02F294-FA05-4D2D-A912-E8181F430C35";
shapes = (
{
closed = 1;
nodes = (
(237,268,l),
(190,0,l),
(282,0,l),
(329,268,l),
(638,708,l),
(534,708,l),
(277,331,l),
(311,331,l),
(188,708,l),
(81,708,l)
);
}
);
width = 595;
},
{
layerId = "67B2D992-FDF5-421B-B89F-40A62CC9CD8A";
shapes = (
{
closed = 1;
nodes = (
(241,297,l),
(189,0,l),
(209,0,l),
(261,297,l),
(553,708,l),
(529,708,l),
(248,311,l),
(257,311,l),
(117,708,l),
(93,708,l)
);
}
);
width = 521;
}
);
unicode = 89;
},
{
glyphname = Z;
layers = (
{
layerId = "8A84D32D-FB1E-4DD2-B3EC-97AE96C1F3F2";
shapes = (
{
closed = 1;
nodes = (
(642,708,l),
(112,708,l),
(81,532,l),
(361,532,l),
(17,167,l),
(-12,0,l),
(518,0,l),
(549,177,l),
(265,177,l),
(613,541,l)
);
}
);
width = 630;
},
{
layerId = "9E02F294-FA05-4D2D-A912-E8181F430C35";
shapes = (
{
closed = 1;
nodes = (
(555,708,l),
(111,708,l),
(98,632,l),
(440,632,l),
(-9,72,l),
(-22,0,l),
(437,0,l),
(450,75,l),
(93,75,l),
(543,635,l)
);
}
);
width = 540;
},
{
layerId = "67B2D992-FDF5-421B-B89F-40A62CC9CD8A";
shapes = (
{
closed = 1;
nodes = (
(507,708,l),
(111,708,l),
(108,688,l),
(483,688,l),
(-24,19,l),
(-27,0,l),
(392,0,l),
(395,19,l),
(-2,19,l),
(504,688,l)
);
}
);
width = 490;
}
);
unicode = 90;
},
{
glyphname = a;
layers = (
{
layerId = "8A84D32D-FB1E-4DD2-B3EC-97AE96C1F3F2";
shapes = (
{
closed = 1;
nodes = (
(-11,108,o),
(65,-7,o),
(205,-7,c),
(280,-7,o),
(340,26,o),
(376,77,c),
(362,0,l),
(583,0,l),
(683,564,l),
(462,564,l),
(448,487,l),
(430,538,o),
(377,571,o),
(297,571,c),
(172,571,o),
(53,472,o),
(23,302,cs)
);
},
{
closed = 1;
nodes = (
(401,220,o),
(359,187,o),
(313,187,c),
(267,187,o),
(237,220,o),
(248,282,c),
(259,344,o),
(301,377,o),
(347,377,c),
(393,377,o),
(423,344,o),
(412,282,c)
);
}
);
width = 683;
},
{
anchors = (
{
name = ogonek;
position = "{548, 0}";
},
{
name = top;
position = "{385, 548}";
}
);
layerId = "9E02F294-FA05-4D2D-A912-E8181F430C35";
shapes = (
{
closed = 1;
nodes = (
(10,106,o),
(104,-9,o),
(250,-9,cs),
(351,-9,o),
(431,43,o),
(475,102,c),
(456,0,l),
(548,0,l),
(645,548,l),
(553,548,l),
(535,448,l),
(513,505,o),
(453,557,o),
(351,557,cs),
(203,557,o),
(70,447,o),
(40,276,cs)
);
},
{
closed = 1;
nodes = (
(482,146,o),
(383,71,o),
(283,71,cs),
(183,71,o),
(111,147,o),
(134,276,cs),
(156,405,o),
(255,478,o),
(355,478,cs),
(455,478,o),
(528,402,o),
(505,275,cs)
);
}
);
width = 676;
},
{
layerId = "67B2D992-FDF5-421B-B89F-40A62CC9CD8A";
shapes = (
{
closed = 1;
nodes = (
(30,98,o),
(119,-7,o),
(274,-7,c),
(402,-7,o),
(504,69,o),
(550,174,c),
(519,0,l),
(538,0,l),
(634,540,l),
(615,540,l),
(584,366,l),
(574,471,o),
(500,547,o),
(372,547,c),
(217,547,o),
(90,442,o),
(60,270,c)
);
},
{
closed = 1;
nodes = (
(539,114,o),
(418,11,o),
(277,11,c),
(129,11,o),
(52,109,o),
(80,270,c),
(108,431,o),
(221,529,o),
(369,529,c),
(510,529,o),
(595,426,o),
(567,270,c)
);
}
);
width = 671;
}
);
unicode = 97;
},
{
glyphname = ae;
layers = (
{
layerId = "8A84D32D-FB1E-4DD2-B3EC-97AE96C1F3F2";
shapes = (
{
closed = 1;
nodes = (
(390,377,o),
(420,344,o),
(409,282,c),
(398,220,o),
(356,187,o),
(310,187,c),
(264,187,o),
(234,220,o),
(245,282,c),
(256,344,o),
(298,377,o),
(344,377,c)
);
},
{
closed = 1;
nodes = (
(594,240,l),
(646,228,o),
(698,220,o),
(750,220,cs),
(899,220,o),
(1038,288,o),
(1038,397,cs),
(1038,512,o),
(956,571,o),
(847,571,cs),
(766,571,o),
(702,540,o),
(666,487,c),
(680,564,l),
(459,564,l),
(445,487,l),
(427,538,o),
(379,571,o),
(304,571,cs),
(174,571,o),
(52,464,o),
(20,282,cs),
(-12,100,o),
(72,-7,o),
(202,-7,cs),
(277,-7,o),
(337,26,o),
(373,77,c),
(359,0,l),
(580,0,l),
(594,77,l),
(613,25,o),
(664,-7,o),
(745,-7,cs),
(862,-7,o),
(963,83,o),
(1008,203,c),
(773,203,l),
(759,181,o),
(736,167,o),
(697,167,cs),
(657,167,o),
(630,184,o),
(631,240,cs),
(631,250,o),
(632,261,o),
(634,273,c),
(640,304,ls),
(653,378,o),
(698,397,o),
(744,397,cs),
(765,397,o),
(808,396,o),
(808,367,cs),
(808,344,o),
(776,325,o),
(742,325,cs),
(699,325,o),
(656,333,o),
(613,345,c)
);
}
);
width = 1057;
},
{
layerId = "9E02F294-FA05-4D2D-A912-E8181F430C35";
shapes = (
{
closed = 1;
nodes = (
(455,478,o),
(528,402,o),
(505,275,cs),
(482,146,o),
(383,71,o),
(283,71,cs),
(183,71,o),
(111,147,o),
(134,276,cs),
(156,405,o),
(255,478,o),
(355,478,cs)
);
},
{
closed = 1;
nodes = (
(581,243,l),
(637,230,o),
(747,219,o),
(803,219,cs),
(936,219,o),
(1053,296,o),
(1053,401,cs),
(1053,511,o),
(941,557,o),
(846,557,cs),
(759,557,o),
(682,524,o),
(622,447,c),
(639,548,l),
(554,548,l),
(536,447,l),
(508,517,o),
(446,557,o),
(355,557,cs),
(203,557,o),
(70,447,o),
(40,276,cs),
(10,106,o),
(104,-9,o),
(251,-9,cs),
(346,-9,o),
(427,41,o),
(476,105,c),
(457,0,l),
(543,0,l),
(561,106,l),
(585,36,o),
(657,-9,o),
(746,-9,cs),
(877,-9,o),
(977,69,o),
(1022,169,c),
(924,169,l),
(895,109,o),
(832,68,o),
(745,68,cs),
(665,68,o),
(591,118,o),
(591,221,cs),
(591,235,o),
(592,249,o),
(595,265,cs),
(599,286,ls),
(621,408,o),
(719,480,o),
(818,480,cs),
(875,480,o),
(959,457,o),
(959,386,cs),
(959,335,o),
(899,284,o),
(815,284,cs),
(759,284,o),
(648,292,o),
(593,309,c)
);
}
);
width = 1097;
},
{
layerId = "67B2D992-FDF5-421B-B89F-40A62CC9CD8A";
shapes = (
{
closed = 1;
nodes = (
(492,529,o),
(572,451,o),
(572,327,cs),
(572,162,o),
(449,11,o),
(277,11,c),
(149,11,o),
(74,84,o),
(74,208,cs),
(74,379,o),
(187,529,o),
(369,529,c)
);
},
{
closed = 1;
nodes = (
(575,261,l),
(677,231,o),
(744,224,o),
(847,224,cs),
(973,224,o),
(1077,298,o),
(1077,401,cs),
(1077,508,o),
(967,547,o),
(876,547,cs),
(753,547,o),
(652,485,o),
(603,365,c),
(634,540,l),
(615,540,l),
(584,366,l),
(574,471,o),
(500,547,o),
(372,547,cs),
(181,547,o),
(54,389,o),
(54,206,cs),
(54,73,o),
(139,-7,o),
(274,-7,cs),
(402,-7,o),
(504,69,o),
(550,174,c),
(519,0,l),
(538,0,l),
(569,175,l),
(576,53,o),
(665,-7,o),
(778,-7,cs),
(918,-7,o),
(1022,72,o),
(1060,183,c),
(1040,183,l),
(1004,76,o),
(901,11,o),
(781,11,cs),
(673,11,o),
(580,72,o),
(580,206,cs),
(580,224,o),
(582,245,o),
(586,266,c),
(588,275,l),
(619,451,o),
(740,529,o),
(873,529,cs),
(957,529,o),
(1059,496,o),
(1059,396,cs),
(1059,308,o),
(971,242,o),
(850,242,cs),
(780,242,o),
(699,249,o),
(579,279,c)
);
}
);
width = 1135;
}
);
unicode = 230;
},
{
glyphname = b;
layers = (
{
layerId = "8A84D32D-FB1E-4DD2-B3EC-97AE96C1F3F2";
shapes = (
{
closed = 1;
nodes = (
(236,77,l),
(254,26,o),
(301,-7,o),
(376,-7,c),
(506,-7,o),
(628,100,o),
(660,282,c),
(692,464,o),
(608,571,o),
(478,571,c),
(403,571,o),
(344,538,o),
(308,487,c),
(353,740,l),
(131,740,l),
(0,0,l),
(222,0,l)
);
},
{
closed = 1;
nodes = (
(282,344,o),
(324,377,o),
(370,377,c),
(416,377,o),
(446,344,o),
(435,282,c),
(424,220,o),
(382,187,o),
(336,187,c),
(290,187,o),
(260,220,o),
(271,282,c)
);
}
);
width = 682;
},
{
layerId = "9E02F294-FA05-4D2D-A912-E8181F430C35";
shapes = (
{
closed = 1;
nodes = (
(248,740,l),
(157,740,l),
(26,0,l),
(117,0,l),
(135,101,l),
(159,41,o),
(221,-9,o),
(321,-9,cs),
(468,-9,o),
(601,106,o),
(631,276,cs),
(661,447,o),
(569,557,o),
(420,557,cs),
(323,557,o),
(242,507,o),
(196,446,c)
);
},
{
closed = 1;
nodes = (
(515,147,o),
(417,71,o),
(316,71,cs),
(217,71,o),
(143,146,o),
(166,275,cs),
(189,402,o),
(289,478,o),
(388,478,cs),
(489,478,o),
(561,405,o),
(538,276,cs)
);
}
);
width = 676;
},
{
layerId = "67B2D992-FDF5-421B-B89F-40A62CC9CD8A";
shapes = (
{
closed = 1;
nodes = (
(70,174,l),
(80,69,o),
(154,-7,o),
(282,-7,c),
(437,-7,o),
(564,98,o),
(594,270,c),
(624,442,o),
(535,547,o),
(380,547,c),
(252,547,o),
(150,471,o),
(104,366,c),
(170,740,l),
(151,740,l),
(20,0,l),
(39,0,l)
);
},
{
closed = 1;
nodes = (
(114,426,o),
(236,529,o),
(377,529,c),
(525,529,o),
(602,431,o),
(574,270,c),
(546,109,o),
(433,11,o),
(285,11,c),
(144,11,o),
(59,114,o),
(87,270,c)
);
}
);
width = 671;
}
);
unicode = 98;
},
{
glyphname = c;
layers = (
{
layerId = "8A84D32D-FB1E-4DD2-B3EC-97AE96C1F3F2";
shapes = (
{
closed = 1;
nodes = (
(-12,110,o),
(90,-7,o),
(259,-7,cs),
(404,-7,o),
(528,79,o),
(581,227,c),
(346,227,l),
(334,200,o),
(316,183,o),
(288,183,cs),
(254,183,o),
(235,214,o),
(247,282,c),
(259,350,o),
(288,381,o),
(322,381,cs),
(350,381,o),
(362,364,o),
(366,337,c),
(601,337,l),
(600,485,o),
(502,571,o),
(351,571,cs),
(187,571,o),
(52,470,o),
(22,302,c)
);
}
);
width = 616;
},
{
layerId = "9E02F294-FA05-4D2D-A912-E8181F430C35";
shapes = (
{
closed = 1;
nodes = (
(14,101,o),
(110,-7,o),
(267,-7,cs),
(409,-7,o),
(520,74,o),
(563,199,c),
(467,199,l),
(439,120,o),
(366,72,o),
(279,72,cs),
(187,72,o),
(114,135,o),
(139,274,cs),
(164,414,o),
(258,476,o),
(350,476,cs),
(438,476,o),
(493,429,o),
(493,350,c),
(589,350,l),
(590,474,o),
(507,556,o),
(363,556,cs),
(208,556,o),
(77,453,o),
(47,281,cs)
);
}
);
width = 624;
},
{
layerId = "67B2D992-FDF5-421B-B89F-40A62CC9CD8A";
shapes = (
{
closed = 1;
nodes = (
(29,96,o),
(121,-7,o),
(271,-7,cs),
(411,-7,o),
(515,72,o),
(553,183,c),
(533,183,l),
(497,76,o),
(394,11,o),
(274,11,cs),
(150,11,o),
(48,91,o),
(80,270,c),
(112,449,o),
(242,529,o),
(366,529,cs),
(486,529,o),
(565,464,o),
(563,357,c),
(583,357,l),
(585,468,o),
(509,547,o),
(369,547,cs),
(219,547,o),
(91,444,o),
(60,270,c)
);
}
);
width = 628;
}
);
unicode = 99;
},
{
glyphname = d;
layers = (
{
layerId = "8A84D32D-FB1E-4DD2-B3EC-97AE96C1F3F2";
shapes = (
{
closed = 1;
nodes = (
(446,487,l),
(428,538,o),
(376,571,o),
(296,571,c),
(171,571,o),
(52,472,o),
(22,302,c),
(-12,108,o),
(74,-7,o),
(204,-7,c),
(279,-7,o),
(338,26,o),
(374,77,c),
(360,0,l),
(582,0,l),
(713,740,l),
(491,740,l)
);
},
{
closed = 1;
nodes = (
(400,220,o),
(358,187,o),
(312,187,c),
(266,187,o),
(236,220,o),
(247,282,c),
(258,344,o),
(300,377,o),
(346,377,c),
(392,377,o),
(422,344,o),
(411,282,c)
);
}
);
width = 676;
},
{
anchors = (
{
name = topright;
position = "{679, 740}";
}
);
layerId = "9E02F294-FA05-4D2D-A912-E8181F430C35";
shapes = (
{
closed = 1;
nodes = (
(10,106,o),
(104,-9,o),
(251,-9,cs),
(351,-9,o),
(431,42,o),
(475,103,c),
(456,0,l),
(548,0,l),
(679,740,l),
(587,740,l),
(536,450,l),
(508,513,o),
(438,557,o),
(352,557,cs),
(203,557,o),
(70,447,o),
(40,276,cs)
);
},
{
closed = 1;
nodes = (
(482,146,o),
(383,71,o),
(283,71,cs),
(183,71,o),
(111,147,o),
(134,276,cs),
(156,405,o),
(255,478,o),
(355,478,cs),
(455,478,o),
(528,402,o),
(505,275,cs)
);
}
);
width = 676;
},
{
layerId = "67B2D992-FDF5-421B-B89F-40A62CC9CD8A";
shapes = (
{
closed = 1;
nodes = (
(567,366,l),
(557,471,o),
(483,547,o),
(355,547,c),
(200,547,o),
(73,442,o),
(43,270,c),
(13,98,o),
(102,-7,o),
(257,-7,c),
(385,-7,o),
(487,69,o),
(533,174,c),
(502,0,l),
(521,0,l),
(652,740,l),
(633,740,l)
);
},
{
closed = 1;
nodes = (
(522,114,o),
(401,11,o),
(260,11,c),
(112,11,o),
(35,109,o),
(63,270,c),
(91,431,o),
(204,529,o),
(352,529,c),
(493,529,o),
(577,426,o),
(550,270,c)
);
}
);
width = 671;
}
);
unicode = 100;
},
{
glyphname = eth;
layers = (
{
layerId = "8A84D32D-FB1E-4DD2-B3EC-97AE96C1F3F2";
shapes = (
{
closed = 1;
nodes = (
(379,210,o),
(340,186,o),
(306,186,cs),
(273,186,o),
(228,210,o),
(241,282,cs),
(254,354,o),
(301,377,o),
(336,377,cs),
(367,377,o),
(405,354,o),
(392,282,cs)
);
},
{
closed = 1;
nodes = (
(-16,105,o),
(108,-6,o),
(272,-6,cs),
(432,-6,o),
(587,107,o),
(624,317,cs),
(652,476,o),
(598,636,o),
(516,740,c),
(323,740,l),
(359,702,o),
(403,627,o),
(424,560,c),
(396,565,o),
(369,568,o),
(346,568,cs),
(189,568,o),
(47,462,o),
(15,284,cs)
);
},
{
closed = 1;
nodes = (
(326,660,l),
(313,588,l),
(591,663,l),
(604,735,l)
);
}
);
width = 633;
},
{
layerId = "9E02F294-FA05-4D2D-A912-E8181F430C35";
shapes = (
{
closed = 1;
nodes = (
(469,143,o),
(376,73,o),
(276,73,cs),
(173,73,o),
(104,147,o),
(128,285,cs),
(151,413,o),
(244,478,o),
(346,478,cs),
(442,478,o),
(517,409,o),
(493,274,cs)
);
},
{
closed = 1;
nodes = (
(4,110,o),
(98,-7,o),
(262,-7,cs),
(419,-7,o),
(555,99,o),
(592,311,cs),
(622,479,o),
(572,620,o),
(448,740,c),
(365,740,l),
(472,640,o),
(513,547,o),
(517,425,c),
(500,517,o),
(432,558,o),
(352,558,cs),
(193,558,o),
(64,451,o),
(35,285,cs)
);
},
{
closed = 1;
nodes = (
(308,641,l),
(301,603,l),
(610,702,l),
(616,739,l)
);
}
);
width = 641;
},
{
layerId = "67B2D992-FDF5-421B-B89F-40A62CC9CD8A";
shapes = (
{
closed = 1;
nodes = (
(519,106,o),
(396,11,o),
(260,11,cs),
(118,11,o),
(35,112,o),
(66,286,cs),
(94,445,o),
(213,534,o),
(352,534,cs),
(484,534,o),
(578,440,o),
(548,270,cs)
);
},
{
closed = 1;
nodes = (
(15,113,o),
(92,-7,o),
(257,-7,cs),
(412,-7,o),
(537,95,o),
(574,307,cs),
(605,480,o),
(557,611,o),
(410,740,c),
(388,740,l),
(534,606,o),
(574,503,o),
(568,351,c),
(558,491,o),
(467,552,o),
(356,552,cs),
(195,552,o),
(74,445,o),
(46,286,cs)
);
},
{
closed = 1;
nodes = (
(298,630,l),
(295,612,l),
(620,723,l),
(623,741,l)
);
}
);
width = 645;
}
);
unicode = 240;
},
{
glyphname = dcaron;
layers = (
{
layerId = "8A84D32D-FB1E-4DD2-B3EC-97AE96C1F3F2";
shapes = (
{
closed = 1;
nodes = (
(741,740,l),
(715,594,l),
(787,594,l),
(785,582,ls),
(776,531,o),
(752,508,o),
(717,508,c),
(703,429,l),
(817,429,o),
(882,509,o),
(899,606,cs),
(906,648,o),
(906,694,o),
(897,740,c)
);
},
{
alignment = -1;
pos = (10,0);
ref = d;
}
);
width = 856;
},
{
layerId = "9E02F294-FA05-4D2D-A912-E8181F430C35";
shapes = (
{
closed = 1;
nodes = (
(722,740,l),
(707,654,l),
(757,654,l),
(753,631,ls),
(746,594,o),
(729,576,o),
(694,576,c),
(688,535,l),
(754,535,o),
(796,573,o),
(809,648,cs),
(814,674,o),
(816,705,o),
(814,740,c)
);
},
{
alignment = -1;
pos = (3,0);
ref = d;
}
);
width = 737;
},
{
layerId = "67B2D992-FDF5-421B-B89F-40A62CC9CD8A";
shapes = (
{
closed = 1;
nodes = (
(712,740,l),
(703,687,l),
(741,687,l),
(735,658,l),
(730,629,o),
(717,613,o),
(682,613,c),
(679,593,l),
(719,593,o),
(749,608,o),
(760,671,cs),
(763,689,o),
(766,711,o),
(768,740,c)
);
},
{
alignment = -1;
pos = (-1,0);
ref = d;
}
);
width = 671;
}
);
unicode = 271;
},
{
glyphname = dcroat;
layers = (
{
layerId = "8A84D32D-FB1E-4DD2-B3EC-97AE96C1F3F2";
shapes = (
{
closed = 1;
nodes = (
(384,592,l),
(729,592,l),
(746,688,l),
(401,688,l)
);
},
{
alignment = -1;
pos = (10,0);
ref = d;
}
);
width = 679;
},
{
layerId = "9E02F294-FA05-4D2D-A912-E8181F430C35";
shapes = (
{
closed = 1;
nodes = (
(402,629,l),
(713,629,l),
(721,675,l),
(410,675,l)
);
},
{
alignment = -1;
pos = (3,0);
ref = d;
}
);
width = 669;
},
{
layerId = "67B2D992-FDF5-421B-B89F-40A62CC9CD8A";
shapes = (
{
closed = 1;
nodes = (
(412,650,l),
(704,650,l),
(707,668,l),
(415,668,l)
);
},
{
alignment = -1;
pos = (-1,0);
ref = d;
}
);
width = 664;
}
);
unicode = 273;
},
{
glyphname = e;
layers = (
{
layerId = "8A84D32D-FB1E-4DD2-B3EC-97AE96C1F3F2";
shapes = (
{
closed = 1;
nodes = (
(144,240,l),
(196,228,o),
(248,220,o),
(300,220,cs),
(449,220,o),
(588,288,o),
(588,397,cs),
(588,530,o),
(491,571,o),
(375,571,cs),
(195,571,o),
(54,477,o),
(21,293,c),
(-12,106,o),
(88,-7,o),
(256,-7,cs),
(408,-7,o),
(524,83,o),
(569,203,c),
(334,203,l),
(323,186,o),
(305,170,o),
(276,170,cs),
(243,170,o),
(218,185,o),
(231,258,cs),
(240,311,ls),
(250,364,o),
(276,396,o),
(314,396,cs),
(335,396,o),
(358,388,o),
(358,367,cs),
(358,344,o),
(326,325,o),
(292,325,cs),
(249,325,o),
(206,333,o),
(163,345,c)
);
}
);
width = 617;
},
{
anchors = (
{
name = bottom;
position = "{259, 0}";
},
{
name = ogonek;
position = "{372, 14}";
},
{
name = top;
position = "{356, 548}";
}
);
guides = (
{
position = "{0, -221}";
}
);
layerId = "9E02F294-FA05-4D2D-A912-E8181F430C35";
shapes = (
{
closed = 1;
nodes = (
(96,243,l),
(152,230,o),
(262,219,o),
(318,219,cs),
(451,219,o),
(568,296,o),
(568,401,cs),
(568,511,o),
(456,557,o),
(361,557,cs),
(202,557,o),
(71,448,o),
(40,275,cs),
(9,101,o),
(106,-9,o),
(262,-9,cs),
(398,-9,o),
(499,69,o),
(545,169,c),
(447,169,l),
(417,110,o),
(358,68,o),
(276,68,cs),
(178,68,o),
(109,135,o),
(130,255,cs),
(136,290,ls),
(158,412,o),
(249,480,o),
(344,480,cs),
(401,480,o),
(474,457,o),
(474,386,cs),
(474,335,o),
(414,284,o),
(330,284,cs),
(274,284,o),
(163,292,o),
(108,309,c)
);
}
);
width = 620;
},
{
layerId = "67B2D992-FDF5-421B-B89F-40A62CC9CD8A";
shapes = (
{
closed = 1;
nodes = (
(68,261,l),
(170,231,o),
(237,224,o),
(340,224,cs),
(466,224,o),
(570,298,o),
(570,401,cs),
(570,508,o),
(460,547,o),
(369,547,cs),
(219,547,o),
(91,444,o),
(60,270,cs),
(29,96,o),
(121,-7,o),
(271,-7,cs),
(411,-7,o),
(515,72,o),
(553,183,c),
(533,183,l),
(497,76,o),
(394,11,o),
(274,11,cs),
(151,11,o),
(48,90,o),
(79,267,c),
(81,275,l),
(112,451,o),
(243,529,o),
(366,529,cs),
(450,529,o),
(552,496,o),
(552,396,cs),
(552,308,o),
(464,242,o),
(343,242,cs),
(273,242,o),
(192,249,o),
(72,279,c)
);
}
);
width = 628;
}
);
unicode = 101;
},
{
glyphname = eogonek;
layers = (
{
background = {
shapes = (
{
closed = 1;
nodes = (
(20,135,o),
(99,36,o),
(220,4,c),
(220,-6,o),
(220,-17,o),
(220,-27,c),
(220,-122,o),
(303,-149,o),
(370,-149,c),
(528,-149,l),
(528,-36,l),
(403,-36,l),
(377,-36,o),
(367,-29,o),
(367,-17,c),
(367,-5,o),
(376,0,o),
(388,3,cs),
(491,29,o),
(564,107,o),
(584,203,c),
(349,203,l),
(341,186,o),
(327,170,o),
(298,170,cs),
(268,170,o),
(236,188,o),
(236,258,cs),
(236,311,ls),
(236,370,o),
(263,397,o),
(308,397,c),
(341,397,o),
(371,379,o),
(371,334,c),
(216,334,l),
(216,243,l),
(591,243,l),
(594,257,o),
(596,273,o),
(596,287,c),
(596,464,o),
(477,571,o),
(308,571,c),
(139,571,o),
(20,462,o),
(20,282,c)
);
}
);
};
layerId = "8A84D32D-FB1E-4DD2-B3EC-97AE96C1F3F2";
shapes = (
{
alignment = -1;
ref = e;
},
{
pos = (113,8);
ref = ogonek;
}
);
width = 616;
},
{
background = {
shapes = (
{
closed = 1;
nodes = (
(37,113,o),
(137,4,o),
(281,-8,c),
(279,-14,o),
(278,-22,o),
(278,-30,cs),
(278,-99,o),
(335,-139,o),
(406,-139,cs),
(512,-139,l),
(512,-67,l),
(428,-67,ls),
(393,-67,o),
(372,-60,o),
(372,-30,cs),
(372,-9,o),
(387,0,o),
(414,10,cs),
(481,35,o),
(537,90,o),
(561,164,c),
(438,164,l),
(417,121,o),
(377,87,o),
(307,87,cs),
(218,87,o),
(154,150,o),
(154,251,cs),
(154,295,ls),
(154,400,o),
(221,464,o),
(307,464,cs),
(392,464,o),
(459,407,o),
(461,315,c),
(143,315,l),
(142,237,l),
(576,237,l),
(579,256,o),
(580,274,o),
(580,291,cs),
(580,451,o),
(469,560,o),
(312,560,cs),
(149,560,o),
(37,449,o),
(37,276,cs)
);
}
);
};
layerId = "9E02F294-FA05-4D2D-A912-E8181F430C35";
shapes = (
{
alignment = -1;
ref = e;
},
{
pos = (215,14);
ref = ogonek;
}
);
width = 617;
},
{
layerId = "282D5D36-A0FA-48D6-B6F8-48B26FA507A6";
associatedMasterId = "67B2D992-FDF5-421B-B89F-40A62CC9CD8A";
name = "Sep 21 17, 11:53";
shapes = (
{
alignment = -1;
ref = e;
},
{
pos = (215,12);
ref = ogonek;
}
);
width = 628;
},
{
background = {
shapes = (
{
closed = 1;
nodes = (
(60,99,o),
(166,-3,o),
(312,-7,c),
(312,-12,o),
(312,-17,o),
(312,-22,c),
(312,-75,o),
(350,-117,o),
(427,-117,c),
(495,-117,l),
(495,-97,l),
(427,-97,ls),
(368,-97,o),
(332,-69,o),
(332,-32,c),
(332,-16,o),
(337,-7,o),
(356,-5,cs),
(474,7,o),
(552,82,o),
(568,183,c),
(548,183,l),
(531,76,o),
(440,11,o),
(320,11,cs),
(197,11,o),
(80,90,o),
(80,267,cs),
(80,275,ls),
(80,451,o),
(197,529,o),
(320,529,cs),
(440,529,o),
(560,453,o),
(550,279,c),
(70,279,l),
(70,261,l),
(564,261,l),
(567,279,o),
(568,289,o),
(568,315,cs),
(568,428,o),
(485,547,o),
(320,547,cs),
(170,547,o),
(60,444,o),
(60,270,c)
);
}
);
};
layerId = "67B2D992-FDF5-421B-B89F-40A62CC9CD8A";
shapes = (
{
alignment = -1;
ref = e;
},
{
pos = (218,12);
ref = ogonek;
}
);
width = 628;
}
);
unicode = 281;
},
{
glyphname = f;
layers = (
{
layerId = "8A84D32D-FB1E-4DD2-B3EC-97AE96C1F3F2";
shapes = (
{
closed = 1;
nodes = (
(7,379,l),
(372,379,l),
(404,564,l),
(39,564,l)
);
},
{
closed = 1;
nodes = (
(-128,-254,l),
(62,-271,o),
(190,-183,o),
(219,-20,cs),
(317,539,ls),
(327,595,o),
(352,611,o),
(411,604,c),
(445,793,l),
(255,810,o),
(127,722,o),
(98,559,cs),
(0,0,ls),
(-10,-56,o),
(-35,-72,o),
(-94,-65,c)
);
}
);
width = 385;
},
{
layerId = "9E02F294-FA05-4D2D-A912-E8181F430C35";
shapes = (
{
closed = 1;
nodes = (
(32,469,l),
(331,469,l),
(345,549,l),
(46,549,l)
);
},
{
closed = 1;
nodes = (
(-145,-254,l),
(7,-260,o),
(86,-192,o),
(109,-66,cs),
(219,564,ls),
(233,647,o),
(271,681,o),
(368,679,c),
(382,759,l),
(230,765,o),
(150,697,o),
(128,571,cs),
(18,-59,ls),
(4,-142,o),
(-34,-176,o),
(-131,-174,c)
);
}
);
width = 342;
},
{
layerId = "67B2D992-FDF5-421B-B89F-40A62CC9CD8A";
shapes = (
{
closed = 1;
nodes = (
(46,519,l),
(309,519,l),
(313,540,l),
(50,540,l)
);
},
{
closed = 1;
nodes = (
(-155,-254,l),
(-24,-254,o),
(31,-197,o),
(48,-92,cs),
(165,578,ls),
(182,675,o),
(226,720,o),
(345,720,c),
(348,740,l),
(217,740,o),
(163,683,o),
(145,578,cs),
(28,-92,ls),
(11,-189,o),
(-33,-234,o),
(-152,-234,c)
);
}
);
width = 318;
}
);
unicode = 102;
},
{
glyphname = g;
layers = (
{
layerId = "8A84D32D-FB1E-4DD2-B3EC-97AE96C1F3F2";
shapes = (
{
closed = 1;
nodes = (
(364,10,l),
(350,-69,o),
(309,-85,o),
(264,-85,cs),
(223,-85,o),
(201,-70,o),
(200,-41,c),
(-18,-41,l),
(-18,-184,o),
(75,-277,o),
(256,-277,cs),
(461,-277,o),
(559,-139,o),
(585,10,c),
(683,564,l),
(462,564,l),
(448,487,l),
(430,538,o),
(377,571,o),
(297,571,c),
(172,571,o),
(53,472,o),
(23,302,c),
(-11,108,o),
(75,-7,o),
(205,-7,c),
(280,-7,o),
(340,26,o),
(376,77,c)
);
},
{
closed = 1;
nodes = (
(401,220,o),
(359,187,o),
(313,187,c),
(267,187,o),
(237,220,o),
(248,282,c),
(259,344,o),
(301,377,o),
(347,377,c),
(393,377,o),
(423,344,o),
(412,282,c)
);
}
);
width = 679;
},
{
anchors = (
{
name = top;
position = "{385, 548}";
}
);
layerId = "9E02F294-FA05-4D2D-A912-E8181F430C35";
shapes = (
{
closed = 1;
nodes = (
(203,557,o),
(70,447,o),
(40,276,cs),
(10,106,o),
(104,-9,o),
(251,-9,cs),
(351,-9,o),
(431,44,o),
(475,103,c),
(455,-12,ls),
(434,-129,o),
(350,-191,o),
(253,-191,cs),
(163,-191,o),
(106,-146,o),
(98,-80,c),
(7,-80,l),
(4,-197,o),
(95,-270,o),
(239,-270,cs),
(399,-270,o),
(519,-163,o),
(546,-12,cs),
(645,548,l),
(553,548,l),
(535,448,l),
(514,507,o),
(450,557,o),
(351,557,cs)
);
},
{
closed = 1;
nodes = (
(482,146,o),
(383,71,o),
(283,71,cs),
(183,71,o),
(111,147,o),
(134,276,cs),
(156,405,o),
(255,478,o),
(355,478,cs),
(455,478,o),
(528,402,o),
(505,275,cs)
);
}
);
width = 676;
},
{
layerId = "67B2D992-FDF5-421B-B89F-40A62CC9CD8A";
shapes = (
{
closed = 1;
nodes = (
(519,-20,l),
(495,-160,o),
(382,-246,o),
(260,-246,cs),
(134,-246,o),
(69,-182,o),
(55,-88,c),
(35,-88,l),
(49,-192,o),
(122,-264,o),
(256,-264,cs),
(380,-264,o),
(510,-176,o),
(537,-20,c),
(636,540,l),
(618,540,l),
(587,366,l),
(578,472,o),
(504,548,o),
(376,548,c),
(220,548,o),
(93,442,o),
(63,270,c),
(32,98,o),
(122,-8,o),
(278,-8,c),
(406,-8,o),
(507,70,o),
(554,174,c)
);
},
{
closed = 1;
nodes = (
(543,114,o),
(421,12,o),
(281,12,c),
(133,12,o),
(54,110,o),
(83,270,c),
(111,432,o),
(224,530,o),
(372,530,c),
(512,530,o),
(598,426,o),
(571,270,c)
);
}
);
width = 671;
}
);
unicode = 103;
},
{
glyphname = gcommaaccent;
layers = (
{
layerId = "8A84D32D-FB1E-4DD2-B3EC-97AE96C1F3F2";
shapes = (
{
closed = 1;
nodes = (
(497,599,l),
(523,746,l),
(451,746,l),
(453,757,ls),
(462,809,o),
(487,832,o),
(521,832,c),
(535,910,l),
(422,910,o),
(357,830,o),
(340,734,cs),
(332,692,o),
(331,646,o),
(341,599,c)
);
},
{
alignment = -1;
pos = (-17,0);
ref = g;
}
);
width = 679;
},
{
layerId = "9E02F294-FA05-4D2D-A912-E8181F430C35";
shapes = (
{
closed = 1;
nodes = (
(443,595,l),
(458,682,l),
(408,682,l),
(412,704,ls),
(418,741,o),
(435,760,o),
(470,760,c),
(478,800,l),
(412,800,o),
(369,762,o),
(356,688,cs),
(351,661,o),
(349,631,o),
(351,595,c)
);
},
{
alignment = -1;
pos = (-14,0);
ref = g;
}
);
width = 674;
},
{
layerId = "67B2D992-FDF5-421B-B89F-40A62CC9CD8A";
shapes = (
{
closed = 1;
nodes = (
(413,593,l),
(422,646,l),
(384,646,l),
(389,675,ls),
(394,704,o),
(407,720,o),
(442,720,c),
(446,740,l),
(406,740,o),
(376,725,o),
(365,662,cs),
(362,644,o),
(359,622,o),
(357,593,c)
);
},
{
alignment = -1;
pos = (-12,0);
ref = g;
}
);
width = 671;
}
);
unicode = 291;
},
{
glyphname = h;
layers = (
{
layerId = "8A84D32D-FB1E-4DD2-B3EC-97AE96C1F3F2";
shapes = (
{
closed = 1;
nodes = (
(0,0,l),
(222,0,l),
(352,740,l),
(130,740,l)
);
},
{
closed = 1;
nodes = (
(380,0,l),
(601,0,l),
(658,327,ls),
(684,473,o),
(625,568,o),
(495,568,cs),
(395,568,o),
(324,511,o),
(286,451,c),
(274,299,l),
(284,353,o),
(320,386,o),
(369,386,cs),
(417,386,o),
(442,353,o),
(432,299,cs)
);
}
);
width = 696;
},
{
layerId = "9E02F294-FA05-4D2D-A912-E8181F430C35";
shapes = (
{
closed = 1;
nodes = (
(26,0,l),
(117,0,l),
(248,740,l),
(157,740,l)
);
},
{
closed = 1;
nodes = (
(427,0,l),
(517,0,l),
(574,323,ls),
(602,480,o),
(519,558,o),
(397,558,cs),
(296,558,o),
(201,504,o),
(166,409,c),
(171,303,l),
(192,421,o),
(266,479,o),
(359,479,cs),
(451,479,o),
(501,422,o),
(482,310,cs)
);
}
);
width = 640;
},
{
layerId = "67B2D992-FDF5-421B-B89F-40A62CC9CD8A";
shapes = (
{
closed = 1;
nodes = (
(40,0,l),
(60,0,l),
(190,740,l),
(170,740,l)
);
},
{
closed = 1;
nodes = (
(470,0,l),
(489,0,l),
(544,315,ls),
(574,482,o),
(487,552,o),
(369,552,c),
(259,552,o),
(142,485,o),
(109,325,c),
(110,287,l),
(140,456,o),
(243,534,o),
(366,534,c),
(485,534,o),
(551,461,o),
(526,317,cs)
);
}
);
width = 614;
}
);
unicode = 104;
},
{
glyphname = i;
layers = (
{
layerId = "8A84D32D-FB1E-4DD2-B3EC-97AE96C1F3F2";
shapes = (
{
closed = 1;
nodes = (
(0,0,l),
(222,0,l),
(321,564,l),
(99,564,l)
);
},
{
closed = 1;
nodes = (
(297,609,o),
(355,657,o),
(365,718,cs),
(376,780,o),
(336,829,o),
(258,829,cs),
(179,829,o),
(121,780,o),
(110,718,cs),
(100,657,o),
(140,609,o),
(219,609,cs)
);
}
);
width = 320;
},
{
layerId = "9E02F294-FA05-4D2D-A912-E8181F430C35";
shapes = (
{
closed = 1;
nodes = (
(23,0,l),
(114,0,l),
(211,549,l),
(120,549,l)
);
},
{
closed = 1;
nodes = (
(221,654,o),
(251,677,o),
(256,710,cs),
(262,743,o),
(241,766,o),
(204,766,cs),
(167,766,o),
(138,743,o),
(132,710,cs),
(126,677,o),
(147,654,o),
(184,654,cs)
);
}
);
width = 236;
},
{
layerId = "67B2D992-FDF5-421B-B89F-40A62CC9CD8A";
shapes = (
{
closed = 1;
nodes = (
(35,0,l),
(55,0,l),
(151,540,l),
(131,540,l)
);
},
{
closed = 1;
nodes = (
(179,678,o),
(193,688,o),
(196,705,cs),
(199,722,o),
(189,732,o),
(175,732,c),
(161,732,o),
(147,722,o),
(144,705,cs),
(141,688,o),
(151,678,o),
(165,678,c)
);
}
);
width = 190;
}
);
unicode = 105;
},
{
glyphname = dotlessi;
layers = (
{
layerId = "8A84D32D-FB1E-4DD2-B3EC-97AE96C1F3F2";
shapes = (
{
closed = 1;
nodes = (
(-5,0,l),
(217,0,l),
(317,564,l),
(95,564,l)
);
}
);
width = 312;
},
{
layerId = "9E02F294-FA05-4D2D-A912-E8181F430C35";
shapes = (
{
closed = 1;
nodes = (
(22,0,l),
(114,0,l),
(211,549,l),
(120,549,l)
);
}
);
width = 233;
},
{
layerId = "67B2D992-FDF5-421B-B89F-40A62CC9CD8A";
shapes = (
{
closed = 1;
nodes = (
(37,0,l),
(57,0,l),
(153,540,l),
(133,540,l)
);
}
);
width = 190;
}
);
unicode = 305;
},
{
glyphname = j;
layers = (
{
layerId = "8A84D32D-FB1E-4DD2-B3EC-97AE96C1F3F2";
shapes = (
{
closed = 1;
nodes = (
(-53,-270,ls),
(79,-270,o),
(189,-214,o),
(219,-39,cs),
(326,564,l),
(104,564,l),
(-3,-43,ls),
(-8,-69,o),
(-22,-81,o),
(-51,-81,cs),
(-94,-81,l),
(-127,-270,l)
);
},
{
closed = 1;
nodes = (
(303,609,o),
(361,657,o),
(371,718,cs),
(382,780,o),
(342,829,o),
(264,829,cs),
(185,829,o),
(127,780,o),
(116,718,cs),
(106,657,o),
(146,609,o),
(225,609,cs)
);
}
);
width = 320;
},
{
layerId = "9E02F294-FA05-4D2D-A912-E8181F430C35";
shapes = (
{
closed = 1;
nodes = (
(-74,-260,ls),
(23,-260,o),
(83,-213,o),
(101,-112,cs),
(218,549,l),
(126,549,l),
(10,-109,ls),
(0,-163,o),
(-25,-180,o),
(-71,-180,cs),
(-109,-180,l),
(-124,-260,l)
);
},
{
closed = 1;
nodes = (
(228,654,o),
(257,677,o),
(263,710,cs),
(268,743,o),
(248,766,o),
(211,766,cs),
(174,766,o),
(144,743,o),
(139,710,cs),
(133,677,o),
(154,654,o),
(191,654,cs)
);
}
);
width = 243;
},
{
layerId = "67B2D992-FDF5-421B-B89F-40A62CC9CD8A";
shapes = (
{
closed = 1;
nodes = (
(-86,-254,ls),
(-8,-254,o),
(25,-213,o),
(36,-152,cs),
(158,540,l),
(138,540,l),
(17,-146,ls),
(5,-214,o),
(-26,-234,o),
(-82,-234,cs),
(-118,-234,l),
(-122,-254,l)
);
},
{
closed = 1;
nodes = (
(186,678,o),
(200,688,o),
(203,705,cs),
(206,722,o),
(196,732,o),
(182,732,c),
(168,732,o),
(154,722,o),
(151,705,cs),
(148,688,o),
(158,678,o),
(172,678,c)
);
}
);
width = 200;
}
);
unicode = 106;
},
{
glyphname = k;
layers = (
{
layerId = "8A84D32D-FB1E-4DD2-B3EC-97AE96C1F3F2";
shapes = (
{
closed = 1;
nodes = (
(0,0,l),
(222,0,l),
(352,740,l),
(130,740,l)
);
},
{
closed = 1;
nodes = (
(361,0,l),
(615,0,l),
(448,307,l),
(451,280,l),
(570,355,o),
(660,460,o),
(720,564,c),
(462,564,l),
(417,466,o),
(340,369,o),
(234,301,c)
);
}
);
width = 676;
},
{
layerId = "9E02F294-FA05-4D2D-A912-E8181F430C35";
shapes = (
{
closed = 1;
nodes = (
(13,0,l),
(105,0,l),
(235,740,l),
(143,740,l)
);
},
{
closed = 1;
nodes = (
(315,0,l),
(425,0,l),
(211,299,l),
(209,265,l),
(342,340,o),
(456,454,o),
(519,549,c),
(408,549,l),
(354,461,o),
(250,352,o),
(127,283,c)
);
}
);
width = 495;
},
{
layerId = "67B2D992-FDF5-421B-B89F-40A62CC9CD8A";
shapes = (
{
closed = 1;
nodes = (
(20,0,l),
(40,0,l),
(170,740,l),
(150,740,l)
);
},
{
closed = 1;
nodes = (
(289,0,l),
(320,0,l),
(80,295,l),
(76,256,l),
(186,311,o),
(337,446,o),
(408,540,c),
(378,540,l),
(314,451,o),
(171,323,o),
(68,273,c)
);
}
);
width = 395;
}
);
unicode = 107;
},
{
glyphname = kcommaaccent;
layers = (
{
layerId = "8A84D32D-FB1E-4DD2-B3EC-97AE96C1F3F2";
shapes = (
{
closed = 1;
nodes = (
(201,-35,l),
(175,-182,l),
(247,-182,l),
(245,-193,ls),
(236,-245,o),
(211,-268,o),
(177,-268,c),
(163,-346,l),
(276,-346,o),
(341,-266,o),
(358,-170,cs),
(365,-128,o),
(367,-82,o),
(357,-35,c)
);
},
{
alignment = -1;
pos = (-5,0);
ref = k;
}
);
width = 676;
},
{
layerId = "9E02F294-FA05-4D2D-A912-E8181F430C35";
shapes = (
{
closed = 1;
nodes = (
(147,-50,l),
(133,-127,l),
(179,-127,l),
(177,-136,l),
(170,-175,o),
(152,-197,o),
(119,-197,c),
(112,-236,l),
(175,-236,o),
(219,-198,o),
(233,-118,cs),
(237,-98,o),
(238,-73,o),
(235,-50,c)
);
},
{
alignment = -1;
pos = (7,0);
ref = k;
}
);
width = 495;
},
{
layerId = "67B2D992-FDF5-421B-B89F-40A62CC9CD8A";
shapes = (
{
closed = 1;
nodes = (
(117,-59,l),
(110,-97,l),
(141,-97,l),
(140,-104,l),
(134,-137,o),
(119,-158,o),
(87,-158,c),
(84,-176,l),
(120,-176,o),
(152,-161,o),
(164,-90,cs),
(166,-81,o),
(167,-68,o),
(168,-59,c)
);
},
{
alignment = -1;
pos = (14,0);
ref = k;
}
);
width = 395;
}
);
unicode = 311;
},
{
glyphname = l;
layers = (
{
layerId = "8A84D32D-FB1E-4DD2-B3EC-97AE96C1F3F2";
shapes = (
{
closed = 1;
nodes = (
(0,0,l),
(222,0,l),
(352,740,l),
(130,740,l)
);
}
);
width = 317;
},
{
layerId = "9E02F294-FA05-4D2D-A912-E8181F430C35";
shapes = (
{
closed = 1;
nodes = (
(26,0,l),
(118,0,l),
(248,740,l),
(156,740,l)
);
}
);
width = 235;
},
{
layerId = "67B2D992-FDF5-421B-B89F-40A62CC9CD8A";
shapes = (
{
closed = 1;
nodes = (
(40,0,l),
(60,0,l),
(190,740,l),
(170,740,l)
);
}
);
width = 190;
}
);
unicode = 108;
},
{
glyphname = lcaron;
layers = (
{
layerId = "8A84D32D-FB1E-4DD2-B3EC-97AE96C1F3F2";
shapes = (
{
closed = 1;
nodes = (
(390,740,l),
(364,594,l),
(436,594,l),
(434,582,ls),
(425,531,o),
(400,508,o),
(366,508,c),
(352,429,l),
(465,429,o),
(530,509,o),
(547,606,cs),
(555,648,o),
(556,694,o),
(546,740,c)
);
},
{
alignment = -1;
pos = (-5,0);
ref = l;
}
);
width = 496;
},
{
layerId = "9E02F294-FA05-4D2D-A912-E8181F430C35";
shapes = (
{
closed = 1;
nodes = (
(298,740,l),
(283,654,l),
(333,654,l),
(329,631,ls),
(322,594,o),
(305,576,o),
(271,576,c),
(263,535,l),
(329,535,o),
(371,573,o),
(384,648,cs),
(389,674,o),
(392,705,o),
(389,740,c)
);
},
{
alignment = -1;
pos = (-2,0);
ref = l;
}
);
width = 299;
},
{
layerId = "67B2D992-FDF5-421B-B89F-40A62CC9CD8A";
shapes = (
{
closed = 1;
nodes = (
(247,740,l),
(238,687,l),
(276,687,l),
(271,658,ls),
(266,629,o),
(253,613,o),
(218,613,c),
(214,593,l),
(254,593,o),
(284,608,o),
(295,671,cs),
(298,689,o),
(301,711,o),
(303,740,c)
);
},
{
alignment = -1;
pos = (-1,0);
ref = l;
}
);
width = 190;
}
);
unicode = 318;
},
{
glyphname = lcommaaccent;
layers = (
{
layerId = "8A84D32D-FB1E-4DD2-B3EC-97AE96C1F3F2";
shapes = (
{
closed = 1;
nodes = (
(46,-35,l),
(20,-182,l),
(92,-182,l),
(90,-193,ls),
(81,-245,o),
(56,-268,o),
(22,-268,c),
(8,-346,l),
(121,-346,o),
(186,-266,o),
(203,-170,cs),
(210,-128,o),
(212,-82,o),
(202,-35,c)
);
},
{
alignment = -1;
pos = (5,0);
ref = l;
}
);
width = 321;
},
{
layerId = "9E02F294-FA05-4D2D-A912-E8181F430C35";
shapes = (
{
closed = 1;
nodes = (
(21,-50,l),
(7,-127,l),
(53,-127,l),
(51,-136,l),
(44,-175,o),
(26,-197,o),
(-7,-197,c),
(-14,-236,l),
(49,-236,o),
(93,-198,o),
(107,-118,cs),
(111,-98,o),
(112,-73,o),
(109,-50,c)
);
},
{
alignment = -1;
pos = (-2,0);
ref = l;
}
);
width = 237;
},
{
layerId = "67B2D992-FDF5-421B-B89F-40A62CC9CD8A";
shapes = (
{
closed = 1;
nodes = (
(7,-59,l),
(0,-97,l),
(31,-97,l),
(30,-104,l),
(24,-137,o),
(9,-158,o),
(-23,-158,c),
(-26,-176,l),
(10,-176,o),
(42,-161,o),
(54,-90,cs),
(56,-81,o),
(57,-68,o),
(58,-59,c)
);
},
{
alignment = -1;
pos = (-6,0);
ref = l;
}
);
width = 190;
}
);
unicode = 316;
},
{
glyphname = lslash;
layers = (
{
layerId = "8A84D32D-FB1E-4DD2-B3EC-97AE96C1F3F2";
shapes = (
{
closed = 1;
nodes = (
(-26,221,l),
(343,318,l),
(381,534,l),
(12,437,l)
);
},
{
closed = 1;
nodes = (
(0,0,l),
(222,0,l),
(352,740,l),
(130,740,l)
);
}
);
width = 322;
},
{
layerId = "9E02F294-FA05-4D2D-A912-E8181F430C35";
shapes = (
{
closed = 1;
nodes = (
(3,351,l),
(269,455,l),
(285,544,l),
(19,440,l)
);
},
{
closed = 1;
nodes = (
(19,0,l),
(111,0,l),
(241,740,l),
(149,740,l)
);
}
);
width = 250;
},
{
layerId = "67B2D992-FDF5-421B-B89F-40A62CC9CD8A";
shapes = (
{
closed = 1;
nodes = (
(19,422,l),
(228,531,l),
(232,550,l),
(23,441,l)
);
},
{
closed = 1;
nodes = (
(30,0,l),
(50,0,l),
(180,740,l),
(160,740,l)
);
}
);
width = 210;
}
);
unicode = 322;
},
{
glyphname = m;
layers = (
{
layerId = "8A84D32D-FB1E-4DD2-B3EC-97AE96C1F3F2";
shapes = (
{
closed = 1;
nodes = (
(0,0,l),
(222,0,l),
(321,564,l),
(99,564,l)
);
},
{
closed = 1;
nodes = (
(380,0,l),
(601,0,l),
(659,327,ls),
(684,473,o),
(616,568,o),
(485,568,cs),
(390,568,o),
(323,516,o),
(288,461,c),
(275,299,l),
(283,347,o),
(318,376,o),
(367,376,cs),
(415,376,o),
(441,347,o),
(433,299,cs)
);
},
{
closed = 1;
nodes = (
(759,0,l),
(980,0,l),
(1038,327,ls),
(1063,473,o),
(999,568,o),
(853,568,cs),
(751,568,o),
(665,497,o),
(620,427,c),
(654,299,l),
(662,347,o),
(697,376,o),
(746,376,cs),
(794,376,o),
(820,347,o),
(812,299,cs)
);
}
);
width = 1076;
},
{
layerId = "9E02F294-FA05-4D2D-A912-E8181F430C35";
shapes = (
{
closed = 1;
nodes = (
(26,0,l),
(117,0,l),
(214,548,l),
(123,548,l)
);
},
{
closed = 1;
nodes = (
(422,0,l),
(512,0,l),
(570,323,ls),
(597,480,o),
(514,558,o),
(389,558,cs),
(294,558,o),
(201,504,o),
(165,406,c),
(171,302,l),
(191,420,o),
(265,479,o),
(357,479,cs),
(448,479,o),
(497,422,o),
(477,310,cs)
);
},
{
closed = 1;
nodes = (
(817,0,l),
(907,0,l),
(964,323,ls),
(992,480,o),
(908,558,o),
(784,558,cs),
(690,558,o),
(593,504,o),
(554,406,c),
(566,302,l),
(586,420,o),
(660,479,o),
(752,479,cs),
(842,479,o),
(891,422,o),
(872,310,cs)
);
}
);
width = 1030;
},
{
layerId = "67B2D992-FDF5-421B-B89F-40A62CC9CD8A";
shapes = (
{
closed = 1;
nodes = (
(36,0,l),
(56,0,l),
(152,540,l),
(132,540,l)
);
},
{
closed = 1;
nodes = (
(446,0,l),
(465,0,l),
(521,315,ls),
(550,482,o),
(469,552,o),
(358,552,c),
(252,552,o),
(139,485,o),
(106,325,c),
(107,287,l),
(137,456,o),
(236,534,o),
(354,534,c),
(466,534,o),
(528,461,o),
(502,317,cs)
);
},
{
closed = 1;
nodes = (
(855,0,l),
(874,0,l),
(930,315,ls),
(959,482,o),
(878,552,o),
(767,552,c),
(660,552,o),
(546,485,o),
(513,325,c),
(516,287,l),
(546,456,o),
(645,534,o),
(763,534,c),
(875,534,o),
(937,461,o),
(911,317,cs)
);
}
);
width = 1003;
}
);
unicode = 109;
},
{
glyphname = n;
layers = (
{
layerId = "8A84D32D-FB1E-4DD2-B3EC-97AE96C1F3F2";
shapes = (
{
closed = 1;
nodes = (
(0,0,l),
(222,0,l),
(321,564,l),
(99,564,l)
);
},
{
closed = 1;
nodes = (
(380,0,l),
(601,0,l),
(659,327,ls),
(684,473,o),
(625,568,o),
(495,568,cs),
(395,568,o),
(324,511,o),
(286,451,c),
(275,299,l),
(284,353,o),
(320,386,o),
(369,386,cs),
(417,386,o),
(442,353,o),
(433,299,cs)
);
}
);
width = 697;
},
{
anchors = (
{
name = bottom;
position = "{266, 0}";
},
{
name = top;
position = "{368, 548}";
}
);
layerId = "9E02F294-FA05-4D2D-A912-E8181F430C35";
shapes = (
{
closed = 1;
nodes = (
(26,0,l),
(117,0,l),
(214,548,l),
(123,548,l)
);
},
{
closed = 1;
nodes = (
(427,0,l),
(517,0,l),
(574,323,ls),
(602,480,o),
(518,558,o),
(392,558,cs),
(295,558,o),
(201,504,o),
(166,409,c),
(171,303,l),
(192,421,o),
(266,479,o),
(359,479,cs),
(451,479,o),
(501,422,o),
(482,310,cs)
);
}
);
width = 640;
},
{
layerId = "67B2D992-FDF5-421B-B89F-40A62CC9CD8A";
shapes = (
{
closed = 1;
nodes = (
(36,0,l),
(56,0,l),
(152,540,l),
(132,540,l)
);
},
{
closed = 1;
nodes = (
(466,0,l),
(485,0,l),
(541,315,ls),
(570,482,o),
(484,552,o),
(366,552,c),
(256,552,o),
(139,485,o),
(106,325,c),
(107,287,l),
(137,456,o),
(239,534,o),
(362,534,c),
(481,534,o),
(548,461,o),
(522,317,cs)
);
}
);
width = 614;
}
);
unicode = 110;
},
{
glyphname = ncommaaccent;
layers = (
{
layerId = "8A84D32D-FB1E-4DD2-B3EC-97AE96C1F3F2";
shapes = (
{
closed = 1;
nodes = (
(257,-35,l),
(231,-182,l),
(303,-182,l),
(301,-193,ls),
(292,-245,o),
(267,-268,o),
(233,-268,c),
(219,-346,l),
(332,-346,o),
(397,-266,o),
(414,-170,cs),
(422,-128,o),
(423,-82,o),
(413,-35,c)
);
},
{
alignment = -1;
ref = n;
}
);
width = 697;
},
{
layerId = "9E02F294-FA05-4D2D-A912-E8181F430C35";
shapes = (
{
closed = 1;
nodes = (
(248,-50,l),
(235,-127,l),
(280,-127,l),
(279,-136,l),
(272,-175,o),
(253,-197,o),
(221,-197,c),
(214,-236,l),
(277,-236,o),
(320,-198,o),
(335,-118,cs),
(339,-98,o),
(340,-73,o),
(336,-50,c)
);
},
{
alignment = -1;
pos = (-2,0);
ref = n;
}
);
width = 643;
},
{
layerId = "67B2D992-FDF5-421B-B89F-40A62CC9CD8A";
shapes = (
{
closed = 1;
nodes = (
(243,-59,l),
(237,-97,l),
(268,-97,l),
(267,-104,l),
(261,-137,o),
(246,-158,o),
(214,-158,c),
(211,-176,l),
(247,-176,o),
(278,-161,o),
(291,-90,cs),
(293,-81,o),
(294,-68,o),
(294,-59,c)
);
},
{
alignment = -1;
pos = (-3,0);
ref = n;
}
);
width = 614;
}
);
unicode = 326;
},
{
glyphname = o;
layers = (
{
layerId = "8A84D32D-FB1E-4DD2-B3EC-97AE96C1F3F2";
shapes = (
{
closed = 1;
nodes = (
(-13,110,o),
(101,-7,o),
(278,-7,c),
(443,-7,o),
(587,94,o),
(617,262,c),
(651,454,o),
(538,571,o),
(364,571,c),
(197,571,o),
(51,470,o),
(21,302,c)
);
},
{
closed = 1;
nodes = (
(380,215,o),
(341,185,o),
(302,185,c),
(262,185,o),
(234,215,o),
(246,282,c),
(258,349,o),
(297,379,o),
(336,379,c),
(375,379,o),
(404,349,o),
(392,282,c)
);
}
);
width = 638;
},
{
layerId = "9E02F294-FA05-4D2D-A912-E8181F430C35";
shapes = (
{
closed = 1;
nodes = (
(14,101,o),
(116,-7,o),
(276,-7,cs),
(431,-7,o),
(567,95,o),
(598,267,cs),
(630,448,o),
(528,556,o),
(370,556,cs),
(214,556,o),
(77,453,o),
(46,281,cs)
);
},
{
closed = 1;
nodes = (
(480,135,o),
(380,73,o),
(287,73,cs),
(192,73,o),
(114,135,o),
(139,274,cs),
(164,414,o),
(264,476,o),
(358,476,cs),
(452,476,o),
(530,414,o),
(505,274,cs)
);
}
);
width = 644;
},
{
layerId = "67B2D992-FDF5-421B-B89F-40A62CC9CD8A";
shapes = (
{
closed = 1;
nodes = (
(29,96,o),
(125,-7,o),
(275,-7,c),
(425,-7,o),
(556,96,o),
(587,270,c),
(618,444,o),
(523,547,o),
(373,547,c),
(223,547,o),
(91,444,o),
(60,270,c)
);
},
{
closed = 1;
nodes = (
(535,91,o),
(402,11,o),
(278,11,c),
(154,11,o),
(48,91,o),
(80,270,c),
(112,449,o),
(246,529,o),
(370,529,c),
(494,529,o),
(599,449,o),
(567,270,c)
);
}
);
width = 647;
}
);
unicode = 111;
},
{
glyphname = oslash;
layers = (
{
layerId = "8A84D32D-FB1E-4DD2-B3EC-97AE96C1F3F2";
shapes = (
{
closed = 1;
nodes = (
(-48,0,l),
(55,0,l),
(673,564,l),
(570,564,l)
);
},
{
alignment = -1;
pos = (-6,0);
ref = o;
}
);
width = 621;
},
{
layerId = "9E02F294-FA05-4D2D-A912-E8181F430C35";
shapes = (
{
closed = 1;
nodes = (
(-8,0,l),
(43,0,l),
(640,549,l),
(589,549,l)
);
},
{
alignment = -1;
pos = (-6,0);
ref = o;
}
);
width = 638;
},
{
layerId = "67B2D992-FDF5-421B-B89F-40A62CC9CD8A";
shapes = (
{
closed = 1;
nodes = (
(14,0,l),
(36,0,l),
(622,540,l),
(600,540,l)
);
},
{
alignment = -1;
pos = (-6,0);
ref = o;
}
);
width = 647;
}
);
unicode = 248;
},
{
glyphname = oe;
layers = (
{
layerId = "8A84D32D-FB1E-4DD2-B3EC-97AE96C1F3F2";
shapes = (
{
closed = 1;
nodes = (
(369,215,o),
(330,185,o),
(291,185,c),
(251,185,o),
(223,215,o),
(235,282,c),
(247,349,o),
(286,379,o),
(325,379,c),
(364,379,o),
(393,349,o),
(381,282,c)
);
},
{
closed = 1;
nodes = (
(524,240,l),
(576,228,o),
(628,220,o),
(680,220,cs),
(829,220,o),
(968,288,o),
(968,397,cs),
(968,534,o),
(867,571,o),
(750,571,cs),
(670,571,o),
(604,560,o),
(536,515,c),
(492,551,o),
(431,571,o),
(359,571,c),
(189,571,o),
(42,462,o),
(10,282,cs),
(-22,102,o),
(87,-7,o),
(257,-7,c),
(329,-7,o),
(398,13,o),
(454,49,c),
(497,13,o),
(555,-7,o),
(627,-7,cs),
(769,-7,o),
(895,83,o),
(940,203,c),
(705,203,l),
(694,186,o),
(676,170,o),
(647,170,cs),
(614,170,o),
(589,185,o),
(602,258,cs),
(611,311,ls),
(621,366,o),
(649,397,o),
(689,397,cs),
(711,397,o),
(738,390,o),
(738,367,cs),
(738,344,o),
(706,325,o),
(672,325,cs),
(629,325,o),
(586,333,o),
(543,345,c)
);
}
);
width = 988;
},
{
layerId = "9E02F294-FA05-4D2D-A912-E8181F430C35";
shapes = (
{
closed = 1;
nodes = (
(476,136,o),
(373,68,o),
(278,68,cs),
(183,68,o),
(109,136,o),
(134,275,cs),
(158,413,o),
(257,480,o),
(352,480,cs),
(447,480,o),
(525,413,o),
(501,275,cs)
);
},
{
closed = 1;
nodes = (
(557,243,l),
(613,230,o),
(723,219,o),
(779,219,cs),
(912,219,o),
(1029,296,o),
(1029,401,cs),
(1029,511,o),
(917,557,o),
(822,557,cs),
(720,557,o),
(629,508,o),
(572,424,c),
(543,508,o),
(467,557,o),
(368,557,cs),
(212,557,o),
(71,448,o),
(40,275,cs),
(9,101,o),
(108,-9,o),
(264,-9,cs),
(364,-9,o),
(459,40,o),
(519,126,c),
(546,40,o),
(619,-9,o),
(718,-9,cs),
(855,-9,o),
(956,69,o),
(1002,169,c),
(904,169,l),
(874,110,o),
(815,68,o),
(732,68,cs),
(635,68,o),
(570,135,o),
(591,255,cs),
(597,290,ls),
(619,412,o),
(709,480,o),
(804,480,cs),
(861,480,o),
(935,457,o),
(935,386,cs),
(935,335,o),
(875,284,o),
(791,284,cs),
(735,284,o),
(624,292,o),
(569,309,c)
);
}
);
width = 1080;
},
{
layerId = "67B2D992-FDF5-421B-B89F-40A62CC9CD8A";
shapes = (
{
closed = 1;
nodes = (
(535,91,o),
(402,11,o),
(278,11,c),
(154,11,o),
(48,91,o),
(80,270,c),
(112,449,o),
(246,529,o),
(370,529,c),
(494,529,o),
(599,449,o),
(567,270,c)
);
},
{
closed = 1;
nodes = (
(575,261,l),
(677,231,o),
(744,224,o),
(847,224,cs),
(973,224,o),
(1077,298,o),
(1077,401,cs),
(1077,508,o),
(967,547,o),
(876,547,cs),
(752,547,o),
(644,477,o),
(592,355,c),
(583,477,o),
(497,547,o),
(373,547,cs),
(223,547,o),
(91,444,o),
(60,270,cs),
(29,96,o),
(125,-7,o),
(275,-7,cs),
(399,-7,o),
(510,63,o),
(562,185,c),
(571,63,o),
(654,-7,o),
(778,-7,cs),
(918,-7,o),
(1022,72,o),
(1060,183,c),
(1040,183,l),
(1004,76,o),
(901,11,o),
(781,11,cs),
(658,11,o),
(555,90,o),
(586,267,c),
(588,275,l),
(619,451,o),
(750,529,o),
(873,529,cs),
(957,529,o),
(1059,496,o),
(1059,396,cs),
(1059,308,o),
(971,242,o),
(850,242,cs),
(780,242,o),
(699,249,o),
(579,279,c)
);
}
);
width = 1135;
}
);
unicode = 339;
},
{
glyphname = p;
layers = (
{
layerId = "8A84D32D-FB1E-4DD2-B3EC-97AE96C1F3F2";
shapes = (
{
closed = 1;
nodes = (
(321,564,l),
(99,564,l),
(-48,-270,l),
(174,-270,l),
(235,77,l),
(253,26,o),
(300,-7,o),
(375,-7,c),
(505,-7,o),
(627,100,o),
(659,282,c),
(691,464,o),
(607,571,o),
(477,571,c),
(402,571,o),
(343,538,o),
(307,487,c)
);
},
{
closed = 1;
nodes = (
(281,344,o),
(323,377,o),
(369,377,c),
(415,377,o),
(445,344,o),
(434,282,c),
(423,220,o),
(381,187,o),
(335,187,c),
(289,187,o),
(259,220,o),
(270,282,c)
);
}
);
width = 681;
},
{
layerId = "9E02F294-FA05-4D2D-A912-E8181F430C35";
shapes = (
{
closed = 1;
nodes = (
(214,548,l),
(123,548,l),
(-19,-260,l),
(72,-260,l),
(135,101,l),
(160,45,o),
(221,-9,o),
(321,-9,cs),
(468,-9,o),
(601,106,o),
(631,276,cs),
(661,447,o),
(568,557,o),
(420,557,cs),
(321,557,o),
(240,505,o),
(196,447,c)
);
},
{
closed = 1;
nodes = (
(189,402,o),
(289,478,o),
(388,478,cs),
(489,478,o),
(561,405,o),
(538,276,cs),
(515,147,o),
(417,71,o),
(316,71,cs),
(217,71,o),
(143,146,o),
(166,275,cs)
);
}
);
width = 676;
},
{
layerId = "67B2D992-FDF5-421B-B89F-40A62CC9CD8A";
shapes = (
{
closed = 1;
nodes = (
(153,540,l),
(134,540,l),
(-6,-254,l),
(13,-254,l),
(89,174,l),
(98,69,o),
(173,-7,o),
(301,-7,c),
(456,-7,o),
(582,98,o),
(613,270,c),
(643,442,o),
(554,547,o),
(399,547,c),
(271,547,o),
(169,471,o),
(123,366,c)
);
},
{
closed = 1;
nodes = (
(133,426,o),
(254,529,o),
(395,529,c),
(543,529,o),
(621,431,o),
(593,270,c),
(564,109,o),
(452,11,o),
(304,11,c),
(163,11,o),
(78,114,o),
(106,270,c)
);
}
);
width = 671;
}
);
unicode = 112;
},
{
glyphname = thorn;
layers = (
{
layerId = "8A84D32D-FB1E-4DD2-B3EC-97AE96C1F3F2";
shapes = (
{
closed = 1;
nodes = (
(351,740,l),
(129,740,l),
(-49,-270,l),
(173,-270,l),
(231,62,l),
(262,14,o),
(310,-6,o),
(378,-6,cs),
(504,-6,o),
(628,88,o),
(658,278,cs),
(685,448,o),
(604,568,o),
(460,568,cs),
(401,568,o),
(355,554,o),
(311,514,c)
);
},
{
closed = 1;
nodes = (
(283,354,o),
(335,376,o),
(369,376,cs),
(402,376,o),
(445,350,o),
(433,278,cs),
(420,206,o),
(369,187,o),
(336,187,cs),
(302,187,o),
(258,210,o),
(270,282,cs)
);
}
);
width = 679;
},
{
layerId = "9E02F294-FA05-4D2D-A912-E8181F430C35";
shapes = (
{
closed = 1;
nodes = (
(248,740,l),
(157,740,l),
(-19,-260,l),
(72,-260,l),
(141,134,l),
(158,49,o),
(224,-7,o),
(330,-7,cs),
(475,-7,o),
(600,94,o),
(631,273,cs),
(660,444,o),
(574,554,o),
(423,554,cs),
(319,554,o),
(237,500,o),
(192,419,c)
);
},
{
closed = 1;
nodes = (
(188,400,o),
(285,475,o),
(388,475,cs),
(495,475,o),
(560,402,o),
(538,273,cs),
(515,143,o),
(424,73,o),
(317,73,cs),
(214,73,o),
(144,148,o),
(166,274,cs)
);
}
);
width = 674;
},
{
layerId = "67B2D992-FDF5-421B-B89F-40A62CC9CD8A";
shapes = (
{
closed = 1;
nodes = (
(192,740,l),
(173,740,l),
(-3,-254,l),
(16,-254,l),
(92,174,l),
(101,69,o),
(176,-7,o),
(304,-7,c),
(459,-7,o),
(585,98,o),
(616,270,c),
(646,442,o),
(557,547,o),
(402,547,c),
(274,547,o),
(172,471,o),
(126,366,c)
);
},
{
closed = 1;
nodes = (
(136,426,o),
(257,529,o),
(398,529,c),
(546,529,o),
(624,431,o),
(596,270,c),
(567,109,o),
(455,11,o),
(307,11,c),
(166,11,o),
(81,114,o),
(109,270,c)
);
}
);
width = 671;
}
);
unicode = 254;
},
{
glyphname = q;
layers = (
{
layerId = "8A84D32D-FB1E-4DD2-B3EC-97AE96C1F3F2";
shapes = (
{
closed = 1;
nodes = (
(452,514,l),
(421,555,o),
(374,568,o),
(312,568,cs),
(183,568,o),
(52,476,o),
(22,298,cs),
(-9,116,o),
(68,-6,o),
(221,-6,cs),
(279,-6,o),
(325,16,o),
(373,62,c),
(314,-270,l),
(535,-270,l),
(682,564,l),
(461,564,l)
);
},
{
closed = 1;
nodes = (
(399,210,o),
(346,187,o),
(313,187,cs),
(280,187,o),
(234,206,o),
(247,278,cs),
(259,350,o),
(313,376,o),
(346,376,cs),
(379,376,o),
(424,354,o),
(411,282,cs)
);
}
);
width = 675;
},
{
layerId = "9E02F294-FA05-4D2D-A912-E8181F430C35";
shapes = (
{
closed = 1;
nodes = (
(10,106,o),
(104,-9,o),
(249,-9,cs),
(351,-9,o),
(434,45,o),
(474,101,c),
(411,-260,l),
(502,-260,l),
(645,548,l),
(553,548,l),
(535,448,l),
(514,505,o),
(452,557,o),
(352,557,cs),
(203,557,o),
(70,447,o),
(40,276,cs)
);
},
{
closed = 1;
nodes = (
(482,146,o),
(383,71,o),
(283,71,cs),
(183,71,o),
(111,147,o),
(134,276,cs),
(156,405,o),
(255,478,o),
(355,478,cs),
(455,478,o),
(528,402,o),
(505,275,cs)
);
}
);
width = 676;
},
{
layerId = "67B2D992-FDF5-421B-B89F-40A62CC9CD8A";
shapes = (
{
closed = 1;
nodes = (
(576,366,l),
(566,471,o),
(492,547,o),
(364,547,c),
(209,547,o),
(82,442,o),
(52,270,c),
(21,98,o),
(111,-7,o),
(266,-7,c),
(394,-7,o),
(495,69,o),
(542,174,c),
(466,-254,l),
(485,-254,l),
(625,540,l),
(606,540,l)
);
},
{
closed = 1;
nodes = (
(531,114,o),
(410,11,o),
(269,11,c),
(121,11,o),
(43,109,o),
(72,270,c),
(100,431,o),
(212,529,o),
(360,529,c),
(501,529,o),
(586,426,o),
(559,270,c)
);
}
);
width = 671;
}
);
unicode = 113;
},
{
glyphname = r;
layers = (
{
layerId = "8A84D32D-FB1E-4DD2-B3EC-97AE96C1F3F2";
shapes = (
{
closed = 1;
nodes = (
(263,231,l),
(276,308,o),
(322,331,o),
(402,331,cs),
(465,331,l),
(507,568,l),
(377,568,o),
(242,428,o),
(218,291,c)
);
},
{
closed = 1;
nodes = (
(0,0,l),
(222,0,l),
(321,564,l),
(99,564,l)
);
}
);
width = 467;
},
{
anchors = (
{
name = bottom;
position = "{73, 0}";
},
{
name = top;
position = "{277, 548}";
}
);
layerId = "9E02F294-FA05-4D2D-A912-E8181F430C35";
shapes = (
{
closed = 1;
nodes = (
(170,298,l),
(193,425,o),
(265,464,o),
(352,464,cs),
(376,464,l),
(393,558,l),
(256,558,o),
(170,449,o),
(143,302,c)
);
},
{
closed = 1;
nodes = (
(26,0,l),
(117,0,l),
(214,548,l),
(123,548,l)
);
}
);
width = 373;
},
{
layerId = "67B2D992-FDF5-421B-B89F-40A62CC9CD8A";
shapes = (
{
closed = 1;
nodes = (
(113,321,l),
(141,481,o),
(257,530,o),
(354,530,cs),
(363,530,l),
(367,552,l),
(220,552,o),
(134,479,o),
(109,341,c)
);
},
{
closed = 1;
nodes = (
(36,0,l),
(56,0,l),
(152,540,l),
(132,540,l)
);
}
);
width = 338;
}
);
unicode = 114;
},
{
glyphname = rcommaaccent;
layers = (
{
layerId = "8A84D32D-FB1E-4DD2-B3EC-97AE96C1F3F2";
shapes = (
{
closed = 1;
nodes = (
(54,-35,l),
(28,-182,l),
(100,-182,l),
(98,-193,ls),
(89,-245,o),
(64,-268,o),
(30,-268,c),
(16,-346,l),
(129,-346,o),
(194,-266,o),
(211,-170,cs),
(219,-128,o),
(220,-82,o),
(210,-35,c)
);
},
{
alignment = -1;
pos = (-10,0);
ref = r;
}
);
width = 466;
},
{
layerId = "9E02F294-FA05-4D2D-A912-E8181F430C35";
shapes = (
{
closed = 1;
nodes = (
(34,-50,l),
(21,-127,l),
(66,-127,l),
(65,-136,l),
(58,-175,o),
(39,-197,o),
(7,-197,c),
(0,-236,l),
(63,-236,o),
(106,-198,o),
(121,-118,cs),
(125,-98,o),
(126,-73,o),
(122,-50,c)
);
},
{
alignment = -1;
pos = (4,0);
ref = r;
}
);
width = 383;
},
{
layerId = "67B2D992-FDF5-421B-B89F-40A62CC9CD8A";
shapes = (
{
closed = 1;
nodes = (
(23,-59,l),
(17,-97,l),
(48,-97,l),
(47,-104,l),
(41,-137,o),
(26,-158,o),
(-6,-158,c),
(-9,-176,l),
(27,-176,o),
(58,-161,o),
(71,-90,cs),
(73,-81,o),
(74,-68,o),
(74,-59,c)
);
},
{
alignment = -1;
pos = (11,0);
ref = r;
}
);
width = 338;
}
);
unicode = 343;
},
{
glyphname = s;
layers = (
{
layerId = "8A84D32D-FB1E-4DD2-B3EC-97AE96C1F3F2";
shapes = (
{
closed = 1;
nodes = (
(436,-7,o),
(521,59,o),
(537,143,cs),
(581,374,o),
(225,332,o),
(236,397,cs),
(239,413,o),
(256,417,o),
(279,417,cs),
(314,417,o),
(346,406,o),
(350,369,c),
(567,369,l),
(554,483,o),
(474,571,o),
(298,571,cs),
(139,571,o),
(56,501,o),
(42,419,cs),
(-1,185,o),
(352,236,o),
(338,168,c),
(335,155,o),
(325,146,o),
(295,146,cs),
(258,146,o),
(219,156,o),
(222,195,c),
(5,195,l),
(14,64,o),
(122,-7,o),
(277,-7,c)
);
}
);
width = 579;
},
{
anchors = (
{
name = bottom;
position = "{210, 0}";
},
{
name = top;
position = "{307, 548}";
}
);
layerId = "9E02F294-FA05-4D2D-A912-E8181F430C35";
shapes = (
{
closed = 1;
nodes = (
(345,-9,o),
(439,51,o),
(439,149,cs),
(439,321,o),
(163,285,o),
(163,403,cs),
(163,453,o),
(210,484,o),
(275,484,cs),
(346,484,o),
(392,445,o),
(385,385,c),
(472,385,l),
(485,488,o),
(400,557,o),
(281,557,cs),
(159,557,o),
(72,494,o),
(72,400,cs),
(72,221,o),
(349,258,o),
(349,146,cs),
(349,93,o),
(296,64,o),
(224,64,cs),
(148,64,o),
(108,105,o),
(113,161,c),
(24,161,l),
(12,57,o),
(100,-9,o),
(219,-9,cs)
);
}
);
width = 522;
},
{
layerId = "67B2D992-FDF5-421B-B89F-40A62CC9CD8A";
shapes = (
{
closed = 1;
nodes = (
(317,-7,o),
(377,41,o),
(389,109,cs),
(433,350,o),
(63,224,o),
(100,427,cs),
(111,487,o),
(166,529,o),
(246,529,cs),
(369,529,o),
(414,458,o),
(409,382,c),
(429,382,l),
(435,483,o),
(371,547,o),
(249,547,cs),
(157,547,o),
(93,501,o),
(80,427,cs),
(40,202,o),
(406,333,o),
(369,109,cs),
(359,53,o),
(308,11,o),
(231,11,cs),
(98,11,o),
(44,80,o),
(50,158,c),
(30,158,l),
(24,57,o),
(100,-7,o),
(227,-7,cs)
);
}
);
width = 463;
}
);
unicode = 115;
},
{
glyphname = scommaaccent;
layers = (
{
layerId = "8A84D32D-FB1E-4DD2-B3EC-97AE96C1F3F2";
shapes = (
{
closed = 1;
nodes = (
(182,-35,l),
(156,-182,l),
(228,-182,l),
(226,-193,ls),
(217,-245,o),
(192,-268,o),
(158,-268,c),
(144,-346,l),
(257,-346,o),
(322,-266,o),
(339,-170,cs),
(346,-128,o),
(347,-82,o),
(338,-35,c)
);
},
{
alignment = -1;
pos = (10,0);
ref = s;
}
);
width = 588;
},
{
layerId = "9E02F294-FA05-4D2D-A912-E8181F430C35";
shapes = (
{
closed = 1;
nodes = (
(178,-50,l),
(164,-127,l),
(210,-127,l),
(209,-136,l),
(202,-175,o),
(183,-197,o),
(150,-197,c),
(143,-236,l),
(207,-236,o),
(250,-198,o),
(264,-118,cs),
(268,-98,o),
(269,-73,o),
(266,-50,c)
);
},
{
alignment = -1;
pos = (3,0);
ref = s;
}
);
width = 520;
},
{
layerId = "67B2D992-FDF5-421B-B89F-40A62CC9CD8A";
shapes = (
{
closed = 1;
nodes = (
(176,-59,l),
(169,-97,l),
(200,-97,l),
(199,-104,l),
(193,-137,o),
(178,-158,o),
(146,-158,c),
(143,-176,l),
(179,-176,o),
(211,-161,o),
(223,-90,cs),
(225,-81,o),
(226,-68,o),
(227,-59,c)
);
},
{
alignment = -1;
pos = (-1,0);
ref = s;
}
);
width = 483;
}
);
unicode = 537;
},
{
glyphname = germandbls;
layers = (
{
layerId = "8A84D32D-FB1E-4DD2-B3EC-97AE96C1F3F2";
shapes = (
{
closed = 1;
nodes = (
(-16,0,l),
(206,0,l),
(288,476,ls),
(296,522,o),
(325,544,o),
(364,544,c),
(400,544,o),
(414,521,o),
(410,491,cs),
(407,471,o),
(395,452,o),
(372,438,cs),
(359,430,l),
(344,358,l),
(475,269,ls),
(511,245,o),
(524,236,o),
(520,211,cs),
(517,197,o),
(508,186,o),
(490,186,c),
(476,186,o),
(460,193,o),
(460,219,c),
(280,219,l),
(268,82,o),
(352,-6,o),
(502,-6,cs),
(636,-6,o),
(716,70,o),
(733,164,cs),
(755,283,o),
(711,361,o),
(608,420,cs),
(510,476,l),
(424,401,l),
(502,428,ls),
(586,457,o),
(642,505,o),
(651,563,c),
(668,656,o),
(599,750,o),
(418,750,cs),
(220,750,o),
(100,652,o),
(70,484,cs)
);
}
);
width = 763;
},
{
layerId = "9E02F294-FA05-4D2D-A912-E8181F430C35";
shapes = (
{
closed = 1;
nodes = (
(7,0,l),
(99,0,l),
(195,548,ls),
(208,621,o),
(257,665,o),
(327,665,cs),
(394,665,o),
(428,621,o),
(417,558,cs),
(409,513,o),
(384,482,o),
(337,460,cs),
(300,443,l),
(293,406,l),
(433,303,ls),
(495,257,o),
(509,219,o),
(500,168,cs),
(491,121,o),
(450,70,o),
(375,70,cs),
(301,70,o),
(273,117,o),
(283,182,c),
(206,182,l),
(189,61,o),
(258,-10,o),
(378,-10,cs),
(493,-10,o),
(572,60,o),
(589,152,cs),
(605,246,o),
(574,311,o),
(485,370,c),
(366,455,l),
(332,425,l),
(386,446,ls),
(460,476,o),
(505,524,o),
(516,584,cs),
(533,681,o),
(467,750,o),
(348,750,cs),
(214,750,o),
(127,677,o),
(105,551,cs)
);
}
);
width = 650;
},
{
layerId = "67B2D992-FDF5-421B-B89F-40A62CC9CD8A";
shapes = (
{
closed = 1;
nodes = (
(20,0,l),
(40,0,l),
(144,588,ls),
(159,676,o),
(219,732,o),
(307,732,c),
(390,732,o),
(435,676,o),
(421,595,c),
(410,536,o),
(378,499,o),
(317,472,cs),
(268,450,l),
(265,433,l),
(410,322,ls),
(486,263,o),
(500,210,o),
(489,145,cs),
(477,79,o),
(418,6,o),
(312,6,cs),
(204,6,o),
(170,75,o),
(185,161,c),
(165,161,l),
(146,50,o),
(206,-12,o),
(309,-12,cs),
(414,-12,o),
(492,54,o),
(509,145,cs),
(523,225,o),
(498,283,o),
(418,343,cs),
(286,443,l),
(282,438,l),
(322,456,ls),
(391,487,o),
(430,534,o),
(441,595,c),
(459,695,o),
(395,750,o),
(310,750,c),
(210,750,o),
(142,690,o),
(124,588,cs)
);
}
);
width = 588;
}
);
unicode = 223;
},
{
glyphname = t;
layers = (
{
layerId = "8A84D32D-FB1E-4DD2-B3EC-97AE96C1F3F2";
shapes = (
{
closed = 1;
nodes = (
(64,231,ls),
(33,56,o),
(123,0,o),
(255,0,cs),
(339,0,l),
(373,189,l),
(320,189,ls),
(291,189,o),
(281,201,o),
(285,227,cs),
(369,700,l),
(147,700,l)
);
},
{
closed = 1;
nodes = (
(404,379,l),
(437,564,l),
(53,564,l),
(20,379,l)
);
}
);
width = 436;
},
{
layerId = "9E02F294-FA05-4D2D-A912-E8181F430C35";
shapes = (
{
closed = 1;
nodes = (
(70,174,ls),
(47,44,o),
(100,0,o),
(206,0,cs),
(274,0,l),
(289,80,l),
(233,80,ls),
(170,80,o),
(149,100,o),
(161,172,cs),
(252,686,l),
(161,686,l)
);
},
{
closed = 1;
nodes = (
(356,470,l),
(370,549,l),
(54,549,l),
(41,470,l)
);
}
);
width = 373;
},
{
layerId = "67B2D992-FDF5-421B-B89F-40A62CC9CD8A";
shapes = (
{
closed = 1;
nodes = (
(73,142,ls),
(55,37,o),
(87,0,o),
(179,0,cs),
(238,0,l),
(242,20,l),
(185,20,ls),
(103,20,o),
(76,45,o),
(93,142,cs),
(188,678,l),
(168,678,l)
);
},
{
closed = 1;
nodes = (
(330,520,l),
(333,540,l),
(55,540,l),
(52,520,l)
);
}
);
width = 338;
}
);
unicode = 116;
},
{
glyphname = tcaron;
layers = (
{
layerId = "8A84D32D-FB1E-4DD2-B3EC-97AE96C1F3F2";
shapes = (
{
closed = 1;
nodes = (
(407,890,l),
(381,744,l),
(453,744,l),
(450,727,ls),
(445,701,o),
(423,688,o),
(388,688,c),
(374,609,l),
(488,609,o),
(551,678,o),
(567,766,cs),
(574,808,o),
(572,844,o),
(563,890,c)
);
},
{
alignment = -1;
pos = (-8,0);
ref = t;
}
);
width = 426;
},
{
layerId = "9E02F294-FA05-4D2D-A912-E8181F430C35";
shapes = (
{
closed = 1;
nodes = (
(323,793,l),
(308,707,l),
(358,707,l),
(354,682,ls),
(349,655,o),
(333,640,o),
(298,640,c),
(290,599,l),
(356,599,o),
(398,633,o),
(411,705,cs),
(415,731,o),
(417,758,o),
(415,793,c)
);
},
{
alignment = -1;
pos = (-3,0);
ref = t;
}
);
width = 369;
},
{
layerId = "67B2D992-FDF5-421B-B89F-40A62CC9CD8A";
shapes = (
{
closed = 1;
nodes = (
(277,740,l),
(268,687,l),
(306,687,l),
(301,658,ls),
(296,629,o),
(283,613,o),
(248,613,c),
(244,593,l),
(284,593,o),
(314,608,o),
(325,671,cs),
(328,689,o),
(331,711,o),
(333,740,c)
);
},
{
alignment = -1;
pos = (-1,0);
ref = t;
}
);
width = 338;
}
);
unicode = 357;
},
{
glyphname = tcommaaccent;
layers = (
{
layerId = "8A84D32D-FB1E-4DD2-B3EC-97AE96C1F3F2";
shapes = (
{
closed = 1;
nodes = (
(150,-35,l),
(124,-182,l),
(196,-182,l),
(194,-193,ls),
(185,-245,o),
(161,-268,o),
(126,-268,c),
(112,-346,l),
(226,-346,o),
(291,-266,o),
(308,-170,cs),
(315,-128,o),
(315,-82,o),
(306,-35,c)
);
},
{
alignment = -1;
pos = (9,0);
ref = t;
}
);
width = 436;
},
{
layerId = "9E02F294-FA05-4D2D-A912-E8181F430C35";
shapes = (
{
closed = 1;
nodes = (
(132,-50,l),
(119,-127,l),
(164,-127,l),
(162,-136,l),
(156,-175,o),
(138,-197,o),
(105,-197,c),
(98,-236,l),
(162,-236,o),
(205,-198,o),
(219,-118,cs),
(222,-98,o),
(223,-73,o),
(220,-50,c)
);
},
{
alignment = -1;
pos = (10,0);
ref = t;
}
);
width = 373;
},
{
layerId = "67B2D992-FDF5-421B-B89F-40A62CC9CD8A";
shapes = (
{
closed = 1;
nodes = (
(122,-59,l),
(116,-97,l),
(147,-97,l),
(145,-104,l),
(140,-137,o),
(125,-158,o),
(93,-158,c),
(90,-176,l),
(126,-176,o),
(157,-161,o),
(170,-90,c),
(171,-81,o),
(173,-68,o),
(173,-59,c)
);
},
{
alignment = -1;
pos = (10,0);
ref = t;
}
);
width = 338;
}
);
unicode = 539;
},
{
glyphname = u;
layers = (
{
layerId = "8A84D32D-FB1E-4DD2-B3EC-97AE96C1F3F2";
shapes = (
{
closed = 1;
nodes = (
(687,564,l),
(465,564,l),
(366,0,l),
(588,0,l)
);
},
{
closed = 1;
nodes = (
(307,564,l),
(86,564,l),
(28,237,ls),
(3,91,o),
(62,-4,o),
(192,-4,cs),
(292,-4,o),
(363,53,o),
(401,113,c),
(412,265,l),
(403,211,o),
(367,178,o),
(318,178,cs),
(270,178,o),
(245,211,o),
(254,265,cs)
);
}
);
width = 687;
},
{
anchors = (
{
name = ogonek;
position = "{512, -1}";
},
{
name = top;
position = "{367, 548}";
}
);
layerId = "9E02F294-FA05-4D2D-A912-E8181F430C35";
shapes = (
{
closed = 1;
nodes = (
(609,548,l),
(518,548,l),
(421,0,l),
(512,0,l)
);
},
{
closed = 1;
nodes = (
(208,548,l),
(118,548,l),
(61,227,ls),
(34,70,o),
(119,-8,o),
(245,-8,cs),
(340,-8,o),
(435,46,o),
(469,140,c),
(464,247,l),
(445,129,o),
(370,71,o),
(277,71,cs),
(185,71,o),
(135,128,o),
(154,239,cs)
);
}
);
width = 640;
},
{
layerId = "67B2D992-FDF5-421B-B89F-40A62CC9CD8A";
shapes = (
{
closed = 1;
nodes = (
(563,540,l),
(543,540,l),
(447,0,l),
(467,0,l)
);
},
{
closed = 1;
nodes = (
(133,540,l),
(114,540,l),
(58,225,ls),
(29,58,o),
(115,-12,o),
(233,-12,c),
(343,-12,o),
(460,55,o),
(493,215,c),
(492,253,l),
(462,84,o),
(360,6,o),
(237,6,c),
(118,6,o),
(51,79,o),
(77,223,cs)
);
}
);
width = 599;
}
);
unicode = 117;
},
{
glyphname = v;
layers = (
{
layerId = "8A84D32D-FB1E-4DD2-B3EC-97AE96C1F3F2";
shapes = (
{
closed = 1;
nodes = (
(29,564,l),
(117,0,l),
(394,0,l),
(519,129,o),
(650,391,o),
(682,564,c),
(446,564,l),
(426,430,o),
(377,309,o),
(293,211,c),
(265,564,l)
);
}
);
width = 641;
},
{
layerId = "9E02F294-FA05-4D2D-A912-E8181F430C35";
shapes = (
{
closed = 1;
nodes = (
(54,549,l),
(172,0,l),
(280,0,l),
(433,173,o),
(537,367,o),
(592,549,c),
(494,549,l),
(461,398,o),
(378,237,o),
(244,97,c),
(152,549,l)
);
}
);
width = 560;
},
{
layerId = "67B2D992-FDF5-421B-B89F-40A62CC9CD8A";
shapes = (
{
closed = 1;
nodes = (
(68,540,l),
(202,0,l),
(217,0,l),
(375,180,o),
(495,360,o),
(543,540,c),
(521,540,l),
(480,371,o),
(368,203,o),
(217,35,c),
(90,540,l)
);
}
);
width = 515;
}
);
unicode = 118;
},
{
glyphname = w;
layers = (
{
layerId = "8A84D32D-FB1E-4DD2-B3EC-97AE96C1F3F2";
shapes = (
{
closed = 1;
nodes = (
(62,0,l),
(312,0,l),
(374,80,o),
(462,324,o),
(476,449,c),
(436,449,l),
(452,0,l),
(702,0,l),
(819,188,o),
(888,376,o),
(936,564,c),
(731,564,l),
(710,400,o),
(668,236,o),
(576,72,c),
(628,72,l),
(606,564,l),
(369,564,l),
(355,401,o),
(291,236,o),
(178,72,c),
(230,72,l),
(249,564,l),
(29,564,l)
);
}
);
width = 883;
},
{
layerId = "9E02F294-FA05-4D2D-A912-E8181F430C35";
shapes = (
{
closed = 1;
nodes = (
(114,0,l),
(212,0,l),
(337,162,o),
(420,324,o),
(463,486,c),
(437,487,l),
(515,0,l),
(614,0,l),
(738,183,o),
(823,366,o),
(868,549,c),
(781,549,l),
(748,377,o),
(673,206,o),
(559,34,c),
(591,34,l),
(511,549,l),
(415,549,l),
(368,377,o),
(282,206,o),
(155,34,c),
(187,34,l),
(146,549,l),
(54,549,l)
);
}
);
width = 831;
},
{
layerId = "67B2D992-FDF5-421B-B89F-40A62CC9CD8A";
shapes = (
{
closed = 1;
nodes = (
(142,0,l),
(157,0,l),
(287,176,o),
(386,352,o),
(456,528,c),
(437,530,l),
(550,0,l),
(565,0,l),
(685,179,o),
(773,360,o),
(831,540,c),
(809,540,l),
(753,364,o),
(666,189,o),
(550,13,c),
(570,13,l),
(458,540,l),
(441,540,l),
(371,365,o),
(273,188,o),
(143,13,c),
(163,13,l),
(90,540,l),
(68,540,l)
);
}
);
width = 803;
}
);
unicode = 119;
},
{
glyphname = x;
layers = (
{
layerId = "8A84D32D-FB1E-4DD2-B3EC-97AE96C1F3F2";
shapes = (
{
closed = 1;
nodes = (
(350,0,l),
(598,0,l),
(278,564,l),
(30,564,l)
);
},
{
closed = 1;
nodes = (
(245,375,l),
(92,251,o),
(-8,125,o),
(-60,0,c),
(184,0,l),
(186,71,o),
(238,142,o),
(341,213,c)
);
},
{
closed = 1;
nodes = (
(387,209,l),
(537,328,o),
(629,445,o),
(689,564,c),
(445,564,l),
(437,500,o),
(399,435,o),
(302,371,c)
);
}
);
width = 648;
},
{
layerId = "9E02F294-FA05-4D2D-A912-E8181F430C35";
shapes = (
{
closed = 1;
nodes = (
(333,0,l),
(437,0,l),
(161,549,l),
(57,549,l)
);
},
{
closed = 1;
nodes = (
(217,316,l),
(91,211,o),
(7,105,o),
(-39,0,c),
(61,0,l),
(86,82,o),
(152,163,o),
(256,245,c)
);
},
{
closed = 1;
nodes = (
(272,240,l),
(398,342,o),
(483,446,o),
(528,549,c),
(427,549,l),
(404,470,o),
(342,391,o),
(238,312,c)
);
}
);
width = 498;
},
{
layerId = "67B2D992-FDF5-421B-B89F-40A62CC9CD8A";
shapes = (
{
closed = 1;
nodes = (
(324,0,l),
(348,0,l),
(96,540,l),
(72,540,l)
);
},
{
closed = 1;
nodes = (
(202,284,l),
(95,190,o),
(18,95,o),
(-28,0,c),
(-6,0,l),
(35,88,o),
(107,175,o),
(209,262,c)
);
},
{
closed = 1;
nodes = (
(209,257,l),
(315,352,o),
(392,446,o),
(439,540,c),
(417,540,l),
(375,453,o),
(303,367,o),
(202,279,c)
);
}
);
width = 416;
}
);
unicode = 120;
},
{
glyphname = y;
layers = (
{
layerId = "8A84D32D-FB1E-4DD2-B3EC-97AE96C1F3F2";
shapes = (
{
closed = 1;
nodes = (
(164,28,l),
(55,-85,o),
(-9,-182,o),
(-31,-270,c),
(212,-270,l),
(236,-180,o),
(307,-80,o),
(376,-1,cs),
(541,187,o),
(646,376,o),
(721,564,c),
(476,564,l),
(454,469,o),
(412,365,o),
(332,250,c),
(271,564,l),
(24,564,l)
);
}
);
width = 667;
},
{
layerId = "9E02F294-FA05-4D2D-A912-E8181F430C35";
shapes = (
{
closed = 1;
nodes = (
(183,9,l),
(69,-81,o),
(-15,-170,o),
(-69,-260,c),
(34,-260,l),
(85,-173,o),
(175,-97,o),
(275,1,cs),
(452,174,o),
(547,367,o),
(593,549,c),
(492,549,l),
(472,405,o),
(397,241,o),
(256,97,c),
(149,549,l),
(47,549,l)
);
}
);
width = 561;
},
{
layerId = "67B2D992-FDF5-421B-B89F-40A62CC9CD8A";
shapes = (
{
closed = 1;
nodes = (
(195,2,l),
(116,-82,o),
(28,-170,o),
(-20,-254,c),
(5,-254,l),
(53,-170,o),
(158,-72,o),
(220,2,cs),
(370,180,o),
(473,362,o),
(523,540,c),
(501,540,l),
(453,370,o),
(358,204,o),
(212,21,c),
(82,540,l),
(60,540,l)
);
}
);
width = 503;
}
);
unicode = 121;
},
{
glyphname = z;
layers = (
{
layerId = "8A84D32D-FB1E-4DD2-B3EC-97AE96C1F3F2";
shapes = (
{
closed = 1;
nodes = (
(538,564,l),
(73,564,l),
(40,380,l),
(252,380,l),
(1,174,l),
(-30,0,l),
(448,0,l),
(481,184,l),
(246,184,l),
(507,390,l)
);
}
);
width = 518;
},
{
layerId = "9E02F294-FA05-4D2D-A912-E8181F430C35";
shapes = (
{
closed = 1;
nodes = (
(459,549,l),
(83,549,l),
(68,472,l),
(340,472,l),
(-9,73,l),
(-22,0,l),
(371,0,l),
(386,77,l),
(92,77,l),
(445,475,l)
);
}
);
width = 446;
},
{
layerId = "67B2D992-FDF5-421B-B89F-40A62CC9CD8A";
shapes = (
{
closed = 1;
nodes = (
(415,540,l),
(88,540,l),
(84,522,l),
(389,522,l),
(-14,18,l),
(-18,0,l),
(329,0,l),
(333,18,l),
(7,18,l),
(411,522,l)
);
}
);
width = 407;
}
);
unicode = 122;
},
{
glyphname = fi;
layers = (
{
layerId = "8A84D32D-FB1E-4DD2-B3EC-97AE96C1F3F2";
shapes = (
{
closed = 1;
nodes = (
(-98,-254,l),
(92,-271,o),
(216,-183,o),
(249,-20,c),
(347,539,ls),
(356,595,o),
(377,610,o),
(427,604,c),
(460,793,l),
(279,809,o),
(157,722,o),
(128,559,cs),
(30,0,ls),
(20,-56,o),
(-5,-72,o),
(-64,-65,c)
);
},
{
closed = 1;
nodes = (
(668,589,o),
(725,632,o),
(736,694,cs),
(747,755,o),
(705,799,o),
(627,799,cs),
(548,799,o),
(492,755,o),
(481,694,cs),
(470,632,o),
(511,589,o),
(590,589,cs)
);
},
{
closed = 1;
nodes = (
(69,564,l),
(36,379,l),
(441,379,l),
(375,0,l),
(597,0,l),
(696,564,l)
);
}
);
width = 712;
},
{
layerId = "9E02F294-FA05-4D2D-A912-E8181F430C35";
shapes = (
{
closed = 1;
nodes = (
(-135,-254,l),
(17,-260,o),
(98,-192,o),
(119,-66,cs),
(230,564,ls),
(244,647,o),
(280,681,o),
(374,679,c),
(388,759,l),
(239,764,o),
(161,697,o),
(139,571,cs),
(28,-59,ls),
(14,-142,o),
(-24,-176,o),
(-121,-174,c)
);
},
{
closed = 1;
nodes = (
(545,646,o),
(575,668,o),
(581,701,cs),
(586,734,o),
(565,756,o),
(528,756,cs),
(491,756,o),
(462,734,o),
(456,701,cs),
(451,668,o),
(472,646,o),
(509,646,cs)
);
},
{
closed = 1;
nodes = (
(58,549,l),
(44,469,l),
(431,469,l),
(349,0,l),
(440,0,l),
(537,549,l)
);
}
);
width = 571;
},
{
layerId = "67B2D992-FDF5-421B-B89F-40A62CC9CD8A";
shapes = (
{
closed = 1;
nodes = (
(-155,-254,l),
(-24,-254,o),
(31,-197,o),
(48,-92,cs),
(165,578,ls),
(182,675,o),
(226,720,o),
(345,720,c),
(348,740,l),
(217,740,o),
(163,683,o),
(145,578,cs),
(28,-92,ls),
(12,-189,o),
(-33,-234,o),
(-152,-234,c)
);
},
{
closed = 1;
nodes = (
(478,678,o),
(492,688,o),
(495,705,cs),
(498,722,o),
(488,732,o),
(474,732,c),
(460,732,o),
(446,722,o),
(443,705,cs),
(440,688,o),
(450,678,o),
(464,678,c)
);
},
{
closed = 1;
nodes = (
(52,540,l),
(48,519,l),
(425,519,l),
(334,0,l),
(354,0,l),
(449,540,l)
);
}
);
width = 494;
}
);
unicode = 64257;
},
{
glyphname = fl;
layers = (
{
layerId = "8A84D32D-FB1E-4DD2-B3EC-97AE96C1F3F2";
shapes = (
{
closed = 1;
nodes = (
(-108,-254,l),
(82,-271,o),
(210,-183,o),
(239,-20,cs),
(337,539,ls),
(346,587,o),
(365,606,o),
(406,606,cs),
(498,606,o),
(698,551,o),
(699,551,c),
(732,740,l),
(641,776,o),
(525,795,o),
(420,795,cs),
(255,795,o),
(145,709,o),
(118,559,cs),
(20,0,ls),
(10,-56,o),
(-15,-72,o),
(-74,-65,c)
);
},
{
closed = 1;
nodes = (
(27,379,l),
(392,379,l),
(424,564,l),
(59,564,l)
);
},
{
closed = 1;
nodes = (
(380,0,l),
(602,0,l),
(732,740,l),
(510,740,l)
);
}
);
width = 712;
},
{
layerId = "9E02F294-FA05-4D2D-A912-E8181F430C35";
shapes = (
{
closed = 1;
nodes = (
(-139,-254,l),
(13,-260,o),
(92,-192,o),
(115,-66,cs),
(225,564,ls),
(239,647,o),
(277,679,o),
(374,679,cs),
(434,679,o),
(497,669,o),
(556,657,c),
(571,740,l),
(510,752,o),
(449,759,o),
(388,759,cs),
(236,759,o),
(156,697,o),
(134,571,cs),
(24,-59,ls),
(10,-142,o),
(-28,-176,o),
(-125,-174,c)
);
},
{
closed = 1;
nodes = (
(38,469,l),
(337,469,l),
(351,549,l),
(52,549,l)
);
},
{
closed = 1;
nodes = (
(349,0,l),
(441,0,l),
(571,740,l),
(479,740,l)
);
}
);
width = 571;
},
{
layerId = "67B2D992-FDF5-421B-B89F-40A62CC9CD8A";
shapes = (
{
closed = 1;
nodes = (
(-156,-254,l),
(-25,-254,o),
(30,-197,o),
(47,-92,cs),
(164,578,ls),
(181,675,o),
(225,720,o),
(344,720,cs),
(350,720,o),
(355,720,o),
(477,720,c),
(481,740,l),
(441,740,o),
(400,740,o),
(347,740,cs),
(216,740,o),
(162,683,o),
(144,578,cs),
(27,-92,ls),
(10,-189,o),
(-34,-234,o),
(-153,-234,c)
);
},
{
closed = 1;
nodes = (
(45,519,l),
(308,519,l),
(312,540,l),
(49,540,l)
);
},
{
closed = 1;
nodes = (
(331,0,l),
(351,0,l),
(481,740,l),
(461,740,l)
);
}
);
width = 494;
}
);
unicode = 64258;
},
{
glyphname = ordfeminine;
layers = (
{
layerId = "67B2D992-FDF5-421B-B89F-40A62CC9CD8A";
shapes = (
{
closed = 1;
nodes = (
(45,456,o),
(96,395,o),
(185,395,cs),
(255,395,o),
(311,436,o),
(337,491,c),
(320,399,l),
(340,399,l),
(396,711,l),
(376,711,l),
(360,620,l),
(353,674,o),
(312,715,o),
(241,715,cs),
(153,715,o),
(79,654,o),
(62,555,cs)
);
},
{
closed = 1;
nodes = (
(333,469,o),
(266,413,o),
(190,413,cs),
(111,413,o),
(67,467,o),
(83,555,cs),
(98,644,o),
(161,697,o),
(240,697,cs),
(316,697,o),
(364,641,o),
(348,555,cs)
);
}
);
width = 386;
},
{
layerId = "9E02F294-FA05-4D2D-A912-E8181F430C35";
shapes = (
{
closed = 1;
nodes = (
(34,455,o),
(86,389,o),
(170,389,cs),
(225,389,o),
(270,417,o),
(294,451,c),
(283,394,l),
(347,394,l),
(404,710,l),
(340,710,l),
(330,655,l),
(317,687,o),
(283,715,o),
(227,715,cs),
(144,715,o),
(68,653,o),
(51,555,cs)
);
},
{
closed = 1;
nodes = (
(299,484,o),
(247,445,o),
(195,445,cs),
(142,445,o),
(104,485,o),
(116,553,cs),
(128,622,o),
(180,660,o),
(233,660,cs),
(286,660,o),
(324,620,o),
(312,553,cs)
);
}
);
width = 390;
},
{
layerId = "8A84D32D-FB1E-4DD2-B3EC-97AE96C1F3F2";
shapes = (
{
closed = 1;
nodes = (
(20,449,o),
(63,383,o),
(144,383,c),
(187,383,o),
(221,402,o),
(242,431,c),
(234,387,l),
(361,387,l),
(419,711,l),
(292,711,l),
(284,667,l),
(273,696,o),
(243,715,o),
(197,715,c),
(125,715,o),
(56,658,o),
(39,561,cs)
);
},
{
closed = 1;
nodes = (
(257,514,o),
(232,495,o),
(206,495,c),
(180,495,o),
(162,514,o),
(169,549,c),
(175,585,o),
(199,604,o),
(226,604,c),
(252,604,o),
(269,585,o),
(263,549,c)
);
}
);
width = 393;
}
);
unicode = 170;
},
{
glyphname = ordmasculine;
layers = (
{
layerId = "67B2D992-FDF5-421B-B89F-40A62CC9CD8A";
shapes = (
{
closed = 1;
nodes = (
(15,455,o),
(71,395,o),
(158,395,cs),
(245,395,o),
(321,454,o),
(339,554,cs),
(356,655,o),
(302,715,o),
(214,715,cs),
(127,715,o),
(50,655,o),
(33,556,cs)
);
},
{
closed = 1;
nodes = (
(301,457,o),
(228,413,o),
(161,413,cs),
(93,413,o),
(36,457,o),
(53,555,cs),
(70,653,o),
(143,697,o),
(212,697,cs),
(279,697,o),
(336,653,o),
(318,555,cs)
);
}
);
width = 372;
},
{
layerId = "9E02F294-FA05-4D2D-A912-E8181F430C35";
shapes = (
{
closed = 1;
nodes = (
(40,453,o),
(101,390,o),
(194,390,cs),
(284,390,o),
(364,449,o),
(381,548,cs),
(400,653,o),
(340,715,o),
(247,715,cs),
(157,715,o),
(76,656,o),
(59,558,cs)
);
},
{
closed = 1;
nodes = (
(302,479,o),
(250,446,o),
(201,446,cs),
(151,446,o),
(111,479,o),
(124,553,cs),
(137,627,o),
(190,660,o),
(239,660,cs),
(289,660,o),
(329,627,o),
(315,553,cs)
);
}
);
width = 370;
},
{
layerId = "8A84D32D-FB1E-4DD2-B3EC-97AE96C1F3F2";
shapes = (
{
closed = 1;
nodes = (
(26,450,o),
(91,383,o),
(193,383,c),
(288,383,o),
(371,441,o),
(388,538,c),
(407,648,o),
(342,715,o),
(242,715,c),
(146,715,o),
(62,657,o),
(45,561,c)
);
},
{
closed = 1;
nodes = (
(251,511,o),
(229,493,o),
(207,493,c),
(184,493,o),
(168,511,o),
(174,549,c),
(181,588,o),
(204,605,o),
(226,605,c),
(249,605,o),
(265,588,o),
(258,549,c)
);
}
);
width = 367;
}
);
unicode = 186;
},
{
glyphname = pi;
layers = (
{
layerId = "8A84D32D-FB1E-4DD2-B3EC-97AE96C1F3F2";
shapes = (
{
closed = 1;
nodes = (
(30,398,l),
(95,398,l),
(25,0,l),
(247,0,l),
(317,398,l),
(436,398,l),
(366,0,l),
(588,0,l),
(658,398,l),
(723,398,l),
(753,564,l),
(60,564,l)
);
}
);
width = 708;
},
{
layerId = "9E02F294-FA05-4D2D-A912-E8181F430C35";
shapes = (
{
closed = 1;
nodes = (
(81,478,l),
(160,478,l),
(76,0,l),
(168,0,l),
(252,478,l),
(537,478,l),
(453,0,l),
(545,0,l),
(629,478,l),
(708,478,l),
(721,549,l),
(94,549,l)
);
}
);
width = 716;
},
{
layerId = "67B2D992-FDF5-421B-B89F-40A62CC9CD8A";
shapes = (
{
closed = 1;
nodes = (
(109,522,l),
(196,522,l),
(104,0,l),
(124,0,l),
(216,522,l),
(593,522,l),
(501,0,l),
(521,0,l),
(613,522,l),
(700,522,l),
(704,540,l),
(113,540,l)
);
}
);
width = 721;
}
);
unicode = 960;
},
{
glyphname = zero;
layers = (
{
layerId = "8A84D32D-FB1E-4DD2-B3EC-97AE96C1F3F2";
shapes = (
{
closed = 1;
nodes = (
(181,720,o),
(64,566,o),
(28,357,c),
(-9,147,o),
(53,-7,o),
(268,-7,cs),
(482,-7,o),
(600,147,o),
(636,357,c),
(673,566,o),
(610,720,o),
(396,720,cs)
);
},
{
closed = 1;
nodes = (
(431,507,o),
(428,436,o),
(414,357,c),
(400,277,o),
(379,206,o),
(306,206,cs),
(232,206,o),
(235,277,o),
(249,357,cs),
(263,436,o),
(284,507,o),
(358,507,c)
);
}
);
width = 662;
},
{
layerId = "9E02F294-FA05-4D2D-A912-E8181F430C35";
shapes = (
{
closed = 1;
nodes = (
(174,717,o),
(91,562,o),
(55,355,cs),
(19,149,o),
(47,-7,o),
(245,-7,cs),
(443,-7,o),
(526,149,o),
(562,355,cs),
(598,562,o),
(569,717,o),
(372,717,cs)
);
},
{
closed = 1;
nodes = (
(495,628,o),
(497,509,o),
(470,355,cs),
(443,202,o),
(398,80,o),
(261,80,cs),
(122,80,o),
(120,202,o),
(147,355,cs),
(174,509,o),
(219,628,o),
(356,628,cs)
);
}
);
width = 597;
},
{
layerId = "67B2D992-FDF5-421B-B89F-40A62CC9CD8A";
shapes = (
{
closed = 1;
nodes = (
(170,714,o),
(107,559,o),
(70,355,c),
(34,150,o),
(43,-7,o),
(232,-7,cs),
(420,-7,o),
(485,150,o),
(521,355,c),
(557,559,o),
(547,714,o),
(359,714,cs)
);
},
{
closed = 1;
nodes = (
(530,696,o),
(535,549,o),
(501,355,c),
(467,160,o),
(409,11,o),
(235,11,cs),
(61,11,o),
(56,160,o),
(91,355,c),
(125,549,o),
(182,696,o),
(356,696,cs)
);
}
);
width = 561;
}
);
unicode = 48;
},
{
glyphname = one;
layers = (
{
layerId = "8A84D32D-FB1E-4DD2-B3EC-97AE96C1F3F2";
shapes = (
{
closed = 1;
nodes = (
(54,0,l),
(287,0,l),
(411,708,l),
(72,708,l),
(36,500,l),
(142,500,l)
);
}
);
width = 399;
},
{
layerId = "9E02F294-FA05-4D2D-A912-E8181F430C35";
shapes = (
{
closed = 1;
nodes = (
(57,0,l),
(153,0,l),
(277,708,l),
(75,708,l),
(61,623,l),
(167,623,l)
);
}
);
width = 288;
},
{
layerId = "67B2D992-FDF5-421B-B89F-40A62CC9CD8A";
shapes = (
{
closed = 1;
nodes = (
(59,0,l),
(79,0,l),
(204,708,l),
(77,708,l),
(74,690,l),
(181,690,l)
);
}
);
width = 227;
}
);
unicode = 49;
},
{
glyphname = two;
layers = (
{
layerId = "8A84D32D-FB1E-4DD2-B3EC-97AE96C1F3F2";
shapes = (
{
closed = 1;
nodes = (
(-26,0,l),
(493,0,l),
(524,180,l),
(294,180,l),
(423,252,o),
(551,364,o),
(574,495,cs),
(594,607,o),
(550,720,o),
(358,720,cs),
(225,720,o),
(81,645,o),
(50,450,c),
(266,450,l),
(277,516,o),
(292,533,o),
(317,533,cs),
(336,533,o),
(351,522,o),
(344,483,cs),
(329,393,o),
(163,274,o),
(3,168,c)
);
}
);
width = 566;
},
{
layerId = "9E02F294-FA05-4D2D-A912-E8181F430C35";
shapes = (
{
closed = 1;
nodes = (
(2,0,l),
(482,0,l),
(495,76,l),
(153,76,l),
(300,180,o),
(520,333,o),
(551,507,cs),
(574,637,o),
(500,717,o),
(365,717,cs),
(235,717,o),
(124,637,o),
(91,484,c),
(178,484,l),
(199,575,o),
(258,639,o),
(351,639,cs),
(449,639,o),
(473,579,o),
(460,503,cs),
(435,360,o),
(230,217,o),
(14,65,c)
);
}
);
width = 575;
},
{
layerId = "67B2D992-FDF5-421B-B89F-40A62CC9CD8A";
shapes = (
{
closed = 1;
nodes = (
(-13,0,l),
(457,0,l),
(460,18,l),
(28,18,l),
(212,117,o),
(492,314,o),
(524,497,cs),
(553,659,o),
(455,714,o),
(348,714,cs),
(218,714,o),
(118,636,o),
(88,482,c),
(109,482,l),
(132,611,o),
(214,696,o),
(345,696,cs),
(494,696,o),
(523,598,o),
(504,497,cs),
(476,344,o),
(262,169,o),
(-11,11,c)
);
}
);
width = 560;
}
);
unicode = 50;
},
{
glyphname = three;
layers = (
{
layerId = "8A84D32D-FB1E-4DD2-B3EC-97AE96C1F3F2";
shapes = (
{
closed = 1;
nodes = (
(282,484,l),
(286,512,o),
(297,544,o),
(328,544,c),
(346,544,o),
(362,531,o),
(356,496,cs),
(346,442,o),
(298,443,o),
(281,444,c),
(246,444,l),
(215,272,l),
(251,272,ls),
(310,272,o),
(326,248,o),
(318,208,c),
(314,184,o),
(293,169,o),
(271,169,cs),
(230,169,o),
(220,195,o),
(231,240,c),
(23,240,l),
(4,72,o),
(94,-7,o),
(259,-7,cs),
(411,-7,o),
(505,66,o),
(524,174,cs),
(543,277,o),
(499,337,o),
(437,362,c),
(438,366,l),
(481,380,o),
(552,419,o),
(569,514,cs),
(589,628,o),
(520,720,o),
(364,720,cs),
(206,720,o),
(104,637,o),
(73,484,c)
);
}
);
width = 583;
},
{
layerId = "9E02F294-FA05-4D2D-A912-E8181F430C35";
shapes = (
{
closed = 1;
nodes = (
(196,526,l),
(217,594,o),
(276,641,o),
(359,641,cs),
(443,641,o),
(480,594,o),
(468,527,cs),
(453,445,o),
(384,409,o),
(266,408,c),
(241,408,l),
(228,334,l),
(251,334,ls),
(378,334,o),
(441,295,o),
(424,196,cs),
(411,124,o),
(355,68,o),
(261,68,cs),
(167,68,o),
(122,126,o),
(127,201,c),
(41,201,l),
(28,64,o),
(116,-7,o),
(249,-7,cs),
(397,-7,o),
(488,79,o),
(507,188,cs),
(525,290,o),
(480,350,o),
(401,370,c),
(401,375,l),
(480,391,o),
(541,455,o),
(555,536,cs),
(573,637,o),
(513,717,o),
(375,717,cs),
(244,717,o),
(139,647,o),
(109,526,c)
);
}
);
width = 589;
},
{
layerId = "67B2D992-FDF5-421B-B89F-40A62CC9CD8A";
shapes = (
{
closed = 1;
nodes = (
(116,518,l),
(145,648,o),
(257,696,o),
(355,696,cs),
(474,696,o),
(528,626,o),
(511,529,cs),
(494,435,o),
(409,377,o),
(232,377,cs),
(214,377,l),
(211,358,l),
(228,358,ls),
(391,358,o),
(483,291,o),
(460,160,cs),
(445,78,o),
(377,13,o),
(257,13,cs),
(108,13,o),
(47,93,o),
(46,198,c),
(26,198,l),
(25,68,o),
(110,-7,o),
(254,-7,cs),
(392,-7,o),
(464,68,o),
(480,160,cs),
(501,285,o),
(426,342,o),
(324,365,c),
(325,371,l),
(463,382,o),
(519,459,o),
(531,529,cs),
(549,633,o),
(491,714,o),
(358,714,cs),
(223,714,o),
(120,638,o),
(96,518,c)
);
}
);
width = 548;
}
);
unicode = 51;
},
{
glyphname = four;
layers = (
{
layerId = "8A84D32D-FB1E-4DD2-B3EC-97AE96C1F3F2";
shapes = (
{
closed = 1;
nodes = (
(302,0,l),
(523,0,l),
(541,108,l),
(612,108,l),
(646,297,l),
(575,297,l),
(647,708,l),
(412,708,l),
(46,290,l),
(13,108,l),
(321,108,l)
);
},
{
closed = 1;
nodes = (
(266,297,l),
(401,459,l),
(372,297,l)
);
}
);
width = 674;
},
{
layerId = "9E02F294-FA05-4D2D-A912-E8181F430C35";
shapes = (
{
closed = 1;
nodes = (
(337,0,l),
(430,0,l),
(457,162,l),
(561,162,l),
(576,241,l),
(472,241,l),
(554,708,l),
(457,708,l),
(12,237,l),
(-1,162,l),
(365,162,l)
);
},
{
closed = 1;
nodes = (
(107,241,l),
(449,598,l),
(386,241,l)
);
}
);
width = 599;
},
{
layerId = "67B2D992-FDF5-421B-B89F-40A62CC9CD8A";
shapes = (
{
closed = 1;
nodes = (
(357,0,l),
(377,0,l),
(410,191,l),
(533,191,l),
(537,209,l),
(414,209,l),
(502,708,l),
(482,708,l),
(-6,207,l),
(-9,191,l),
(390,191,l)
);
},
{
closed = 1;
nodes = (
(20,209,l),
(476,676,l),
(394,209,l)
);
}
);
width = 557;
}
);
unicode = 52;
},
{
glyphname = five;
layers = (
{
layerId = "8A84D32D-FB1E-4DD2-B3EC-97AE96C1F3F2";
shapes = (
{
closed = 1;
nodes = (
(133,706,l),
(56,269,l),
(267,269,l),
(270,285,o),
(285,301,o),
(314,301,c),
(346,301,o),
(362,283,o),
(355,244,cs),
(349,206,o),
(330,178,o),
(296,178,cs),
(259,178,o),
(255,206,o),
(258,221,c),
(47,221,l),
(21,89,o),
(102,-7,o),
(274,-7,cs),
(427,-7,o),
(536,83,o),
(564,240,cs),
(585,362,o),
(541,470,o),
(402,470,cs),
(352,470,o),
(309,456,o),
(280,434,c),
(295,516,l),
(578,516,l),
(611,706,l)
);
}
);
width = 600;
},
{
layerId = "9E02F294-FA05-4D2D-A912-E8181F430C35";
shapes = (
{
closed = 1;
nodes = (
(167,708,l),
(97,306,l),
(181,306,l),
(215,362,o),
(273,400,o),
(346,400,cs),
(449,400,o),
(492,341,o),
(474,239,cs),
(457,142,o),
(394,69,o),
(286,69,cs),
(203,69,o),
(152,113,o),
(148,188,c),
(61,188,l),
(58,73,o),
(130,-7,o),
(272,-7,cs),
(438,-7,o),
(535,103,o),
(559,241,cs),
(579,351,o),
(545,477,o),
(371,477,cs),
(301,477,o),
(233,445,o),
(197,405,c),
(236,629,l),
(583,629,l),
(596,708,l)
);
}
);
width = 628;
},
{
layerId = "67B2D992-FDF5-421B-B89F-40A62CC9CD8A";
shapes = (
{
closed = 1;
nodes = (
(145,708,l),
(78,335,l),
(97,335,l),
(149,403,o),
(243,445,o),
(327,445,cs),
(464,445,o),
(524,356,o),
(500,217,cs),
(480,101,o),
(400,13,o),
(261,13,cs),
(145,13,o),
(64,73,o),
(62,193,c),
(42,193,l),
(40,68,o),
(123,-7,o),
(258,-7,cs),
(418,-7,o),
(500,103,o),
(520,217,cs),
(543,344,o),
(497,464,o),
(330,464,cs),
(240,464,o),
(153,424,o),
(105,368,c),
(162,690,l),
(566,690,l),
(569,708,l)
);
}
);
width = 595;
}
);
unicode = 53;
},
{
glyphname = six;
layers = (
{
layerId = "8A84D32D-FB1E-4DD2-B3EC-97AE96C1F3F2";
shapes = (
{
closed = 1;
nodes = (
(586,493,l),
(599,607,o),
(552,720,o),
(378,720,c),
(196,720,o),
(101,614,o),
(57,368,c),
(20,157,o),
(63,-7,o),
(284,-7,cs),
(428,-7,o),
(531,81,o),
(556,221,cs),
(583,375,o),
(511,454,o),
(391,454,cs),
(335,454,o),
(286,431,o),
(257,396,c),
(273,490,o),
(292,549,o),
(344,549,cs),
(376,549,o),
(385,529,o),
(385,493,c)
);
},
{
closed = 1;
nodes = (
(343,289,o),
(363,266,o),
(356,224,c),
(351,191,o),
(325,177,o),
(290,177,c),
(255,177,o),
(234,195,o),
(242,237,c),
(248,272,o),
(275,289,o),
(309,289,c)
);
}
);
width = 611;
},
{
layerId = "9E02F294-FA05-4D2D-A912-E8181F430C35";
shapes = (
{
closed = 1;
nodes = (
(588,534,l),
(594,633,o),
(540,717,o),
(406,717,cs),
(227,717,o),
(131,580,o),
(92,358,cs),
(54,144,o),
(77,-7,o),
(286,-7,cs),
(441,-7,o),
(536,99,o),
(559,228,cs),
(585,377,o),
(512,464,o),
(380,464,cs),
(296,464,o),
(211,424,o),
(168,355,c),
(205,565,o),
(279,643,o),
(392,643,cs),
(472,643,o),
(504,603,o),
(506,534,c)
);
},
{
closed = 1;
nodes = (
(450,388,o),
(490,325,o),
(473,225,cs),
(456,129,o),
(387,67,o),
(295,67,cs),
(183,67,o),
(142,141,o),
(159,235,cs),
(177,340,o),
(267,388,o),
(347,388,cs)
);
}
);
width = 635;
},
{
layerId = "67B2D992-FDF5-421B-B89F-40A62CC9CD8A";
shapes = (
{
closed = 1;
nodes = (
(557,524,l),
(553,631,o),
(506,714,o),
(375,714,cs),
(192,714,o),
(110,565,o),
(69,340,cs),
(38,162,o),
(47,-7,o),
(265,-7,cs),
(433,-7,o),
(513,110,o),
(533,224,cs),
(560,375,o),
(493,470,o),
(344,470,cs),
(226,470,o),
(118,404,o),
(81,298,c),
(120,589,o),
(224,696,o),
(372,696,cs),
(489,696,o),
(532,623,o),
(537,524,c)
);
},
{
closed = 1;
nodes = (
(471,452,o),
(539,374,o),
(513,224,cs),
(489,91,o),
(392,11,o),
(268,11,cs),
(102,11,o),
(58,133,o),
(78,245,cs),
(104,387,o),
(235,452,o),
(341,452,cs)
);
}
);
width = 597;
}
);
unicode = 54;
},
{
glyphname = seven;
layers = (
{
layerId = "8A84D32D-FB1E-4DD2-B3EC-97AE96C1F3F2";
shapes = (
{
closed = 1;
nodes = (
(85,708,l),
(53,520,l),
(305,520,l),
(-29,0,l),
(196,0,l),
(533,547,l),
(561,708,l)
);
}
);
width = 502;
},
{
layerId = "9E02F294-FA05-4D2D-A912-E8181F430C35";
shapes = (
{
closed = 1;
nodes = (
(64,708,l),
(50,629,l),
(421,629,l),
(39,0,l),
(134,0,l),
(514,639,l),
(526,708,l)
);
}
);
width = 478;
},
{
layerId = "67B2D992-FDF5-421B-B89F-40A62CC9CD8A";
shapes = (
{
closed = 1;
nodes = (
(52,708,l),
(49,690,l),
(485,690,l),
(77,0,l),
(101,0,l),
(504,690,l),
(507,708,l)
);
}
);
width = 465;
}
);
unicode = 55;
},
{
glyphname = eight;
layers = (
{
layerId = "8A84D32D-FB1E-4DD2-B3EC-97AE96C1F3F2";
shapes = (
{
closed = 1;
nodes = (
(93,348,o),
(51,298,o),
(38,226,cs),
(10,72,o),
(123,-7,o),
(261,-7,c),
(425,-7,o),
(551,59,o),
(575,193,cs),
(591,280,o),
(566,343,o),
(501,384,c),
(553,412,o),
(595,454,o),
(606,518,c),
(623,613,o),
(563,720,o),
(390,720,c),
(218,720,o),
(122,622,o),
(106,537,c),
(94,463,o),
(117,413,o),
(162,384,c)
);
},
{
closed = 1;
nodes = (
(385,549,o),
(400,528,o),
(394,492,c),
(386,453,o),
(364,436,o),
(340,436,c),
(316,436,o),
(299,453,o),
(307,492,c),
(313,528,o),
(335,549,o),
(360,549,c)
);
},
{
closed = 1;
nodes = (
(353,294,o),
(372,267,o),
(366,229,c),
(359,193,o),
(332,165,o),
(293,165,c),
(253,165,o),
(236,193,o),
(242,229,c),
(249,267,o),
(277,294,o),
(315,294,c)
);
}
);
width = 626;
},
{
layerId = "9E02F294-FA05-4D2D-A912-E8181F430C35";
shapes = (
{
closed = 1;
nodes = (
(139,353,o),
(77,291,o),
(61,201,cs),
(38,73,o),
(123,-7,o),
(267,-7,cs),
(412,-7,o),
(525,73,o),
(548,201,cs),
(564,290,o),
(524,352,o),
(449,377,c),
(523,403,o),
(575,460,o),
(588,534,cs),
(606,634,o),
(544,717,o),
(395,717,cs),
(246,717,o),
(155,635,o),
(137,534,cs),
(124,458,o),
(155,404,o),
(220,377,c)
);
},
{
closed = 1;
nodes = (
(468,645,o),
(518,602,o),
(504,524,cs),
(491,453,o),
(425,404,o),
(340,404,cs),
(256,404,o),
(206,452,o),
(219,523,cs),
(233,603,o),
(297,645,o),
(382,645,cs)
);
},
{
closed = 1;
nodes = (
(418,339,o),
(479,296,o),
(463,204,cs),
(448,120,o),
(378,65,o),
(280,65,cs),
(182,65,o),
(129,119,o),
(144,204,cs),
(161,298,o),
(239,339,o),
(328,339,cs)
);
}
);
width = 631;
},
{
layerId = "67B2D992-FDF5-421B-B89F-40A62CC9CD8A";
shapes = (
{
closed = 1;
nodes = (
(127,354,o),
(49,294,o),
(33,201,cs),
(11,73,o),
(87,-7,o),
(241,-7,c),
(396,-7,o),
(501,65,o),
(521,181,cs),
(539,284,o),
(485,354,o),
(383,372,c),
(495,394,o),
(549,457,o),
(562,529,cs),
(582,640,o),
(510,714,o),
(369,714,c),
(228,714,o),
(132,648,o),
(114,548,cs),
(100,467,o),
(130,394,o),
(234,372,c)
);
},
{
closed = 1;
nodes = (
(488,696,o),
(562,639,o),
(543,529,cs),
(526,433,o),
(435,381,o),
(311,381,c),
(185,381,o),
(114,441,o),
(133,548,cs),
(150,647,o),
(244,696,o),
(366,696,c)
);
},
{
closed = 1;
nodes = (
(427,363,o),
(525,314,o),
(502,181,cs),
(483,69,o),
(379,11,o),
(244,11,c),
(111,11,o),
(30,77,o),
(52,201,cs),
(72,319,o),
(188,363,o),
(308,363,c)
);
}
);
width = 611;
}
);
unicode = 56;
},
{
glyphname = nine;
layers = (
{
layerId = "8A84D32D-FB1E-4DD2-B3EC-97AE96C1F3F2";
shapes = (
{
closed = 1;
nodes = (
(30,220,l),
(25,116,o),
(81,-7,o),
(253,-7,c),
(454,-7,o),
(521,123,o),
(559,345,c),
(598,561,o),
(570,720,o),
(341,720,cs),
(192,720,o),
(83,632,o),
(59,492,cs),
(32,338,o),
(104,259,o),
(224,259,cs),
(280,259,o),
(330,282,o),
(359,317,c),
(342,223,o),
(326,164,o),
(274,164,cs),
(242,164,o),
(230,184,o),
(230,220,c)
);
},
{
closed = 1;
nodes = (
(273,424,o),
(252,443,o),
(259,479,c),
(266,519,o),
(291,536,o),
(326,536,c),
(361,536,o),
(380,519,o),
(373,479,c),
(367,443,o),
(340,424,o),
(307,424,c)
);
}
);
width = 567;
},
{
layerId = "9E02F294-FA05-4D2D-A912-E8181F430C35";
shapes = (
{
closed = 1;
nodes = (
(83,184,l),
(70,82,o),
(124,-7,o),
(269,-7,cs),
(456,-7,o),
(533,125,o),
(574,362,cs),
(613,582,o),
(581,717,o),
(390,717,cs),
(236,717,o),
(138,619,o),
(114,484,cs),
(88,333,o),
(170,252,o),
(301,252,cs),
(378,252,o),
(455,286,o),
(494,346,c),
(461,153,o),
(399,68,o),
(288,68,cs),
(204,68,o),
(166,111,o),
(165,184,c)
);
},
{
closed = 1;
nodes = (
(223,328,o),
(184,394,o),
(200,485,cs),
(216,580,o),
(286,642,o),
(378,642,cs),
(480,642,o),
(522,575,o),
(506,479,cs),
(489,383,o),
(414,328,o),
(329,328,cs)
);
}
);
width = 630;
},
{
layerId = "67B2D992-FDF5-421B-B89F-40A62CC9CD8A";
shapes = (
{
closed = 1;
nodes = (
(60,183,l),
(54,70,o),
(109,-7,o),
(232,-7,cs),
(419,-7,o),
(508,142,o),
(548,367,cs),
(579,545,o),
(570,714,o),
(352,714,cs),
(184,714,o),
(105,597,o),
(84,483,cs),
(57,332,o),
(125,237,o),
(274,237,cs),
(391,237,o),
(500,303,o),
(536,409,c),
(498,118,o),
(388,11,o),
(235,11,cs),
(126,11,o),
(75,77,o),
(80,183,c)
);
},
{
closed = 1;
nodes = (
(147,255,o),
(78,333,o),
(105,483,cs),
(129,616,o),
(225,696,o),
(349,696,cs),
(516,696,o),
(559,574,o),
(539,462,cs),
(514,320,o),
(382,255,o),
(277,255,cs)
);
}
);
width = 617;
}
);
unicode = 57;
},
{
glyphname = fraction;
layers = (
{
layerId = "8A84D32D-FB1E-4DD2-B3EC-97AE96C1F3F2";
shapes = (
{
closed = 1;
nodes = (
(-203,0,l),
(-51,0,l),
(448,711,l),
(296,711,l)
);
}
);
width = 249;
},
{
layerId = "9E02F294-FA05-4D2D-A912-E8181F430C35";
shapes = (
{
closed = 1;
nodes = (
(-228,0,l),
(-158,0,l),
(374,709,l),
(303,709,l)
);
}
);
width = 147;
},
{
layerId = "67B2D992-FDF5-421B-B89F-40A62CC9CD8A";
shapes = (
{
closed = 1;
nodes = (
(-241,0,l),
(-217,0,l),
(333,708,l),
(309,708,l)
);
}
);
width = 92;
}
);
unicode = 8260;
},
{
glyphname = asterisk;
layers = (
{
layerId = "8A84D32D-FB1E-4DD2-B3EC-97AE96C1F3F2";
shapes = (
{
closed = 1;
nodes = (
(390,744,l),
(248,744,l),
(258,625,l),
(181,708,l),
(92,587,l),
(196,555,l),
(78,519,l),
(130,390,l),
(231,477,l),
(182,360,l),
(321,360,l),
(314,477,l),
(386,391,l),
(481,518,l),
(376,552,l),
(493,588,l),
(448,709,l),
(340,625,l)
);
}
);
width = 561;
},
{
layerId = "9E02F294-FA05-4D2D-A912-E8181F430C35";
shapes = (
{
closed = 1;
nodes = (
(316,734,l),
(234,734,l),
(226,582,l),
(120,674,l),
(66,601,l),
(198,547,l),
(46,493,l),
(76,418,l),
(214,512,l),
(169,360,l),
(251,360,l),
(258,512,l),
(361,421,l),
(415,493,l),
(281,547,l),
(433,601,l),
(406,673,l),
(270,582,l)
);
}
);
width = 476;
},
{
layerId = "67B2D992-FDF5-421B-B89F-40A62CC9CD8A";
shapes = (
{
closed = 1;
nodes = (
(276,728,l),
(226,728,l),
(208,559,l),
(87,656,l),
(51,609,l),
(199,543,l),
(29,479,l),
(46,434,l),
(204,531,l),
(162,360,l),
(213,360,l),
(227,531,l),
(347,437,l),
(378,480,l),
(228,544,l),
(400,608,l),
(383,653,l),
(232,559,l)
);
}
);
width = 429;
}
);
unicode = 42;
},
{
glyphname = backslash;
layers = (
{
layerId = "8A84D32D-FB1E-4DD2-B3EC-97AE96C1F3F2";
shapes = (
{
closed = 1;
nodes = (
(514,955,l),
(302,955,l),
(338,-198,l),
(550,-198,l)
);
}
);
width = 878;
},
{
layerId = "9E02F294-FA05-4D2D-A912-E8181F430C35";
shapes = (
{
closed = 1;
nodes = (
(279,942,l),
(188,942,l),
(306,-171,l),
(395,-171,l)
);
}
);
width = 617;
},
{
layerId = "67B2D992-FDF5-421B-B89F-40A62CC9CD8A";
shapes = (
{
closed = 1;
nodes = (
(149,935,l),
(126,935,l),
(288,-156,l),
(309,-156,l)
);
}
);
width = 474;
}
);
unicode = 92;
},
{
glyphname = bullet;
layers = (
{
layerId = "8A84D32D-FB1E-4DD2-B3EC-97AE96C1F3F2";
shapes = (
{
closed = 1;
nodes = (
(333,166,o),
(419,239,o),
(436,333,cs),
(453,428,o),
(393,502,o),
(298,502,cs),
(204,502,o),
(117,428,o),
(100,333,cs),
(83,239,o),
(144,166,o),
(238,166,cs)
);
}
);
width = 536;
},
{
layerId = "9E02F294-FA05-4D2D-A912-E8181F430C35";
shapes = (
{
closed = 1;
nodes = (
(225,211,o),
(288,265,o),
(301,333,cs),
(313,402,o),
(269,457,o),
(199,457,cs),
(131,457,o),
(67,402,o),
(55,333,cs),
(42,265,o),
(88,211,o),
(156,211,cs)
);
}
);
width = 355;
},
{
layerId = "67B2D992-FDF5-421B-B89F-40A62CC9CD8A";
shapes = (
{
closed = 1;
nodes = (
(166,236,o),
(216,279,o),
(226,333,cs),
(236,388,o),
(200,432,o),
(145,432,cs),
(91,432,o),
(40,388,o),
(30,333,cs),
(20,279,o),
(57,236,o),
(111,236,cs)
);
}
);
width = 256;
}
);
unicode = 8226;
},
{
glyphname = colon;
layers = (
{
layerId = "8A84D32D-FB1E-4DD2-B3EC-97AE96C1F3F2";
shapes = (
{
closed = 1;
nodes = (
(9,0,l),
(229,0,l),
(266,212,l),
(46,212,l)
);
},
{
closed = 1;
nodes = (
(78,391,l),
(298,391,l),
(335,603,l),
(115,603,l)
);
}
);
width = 332;
},
{
layerId = "9E02F294-FA05-4D2D-A912-E8181F430C35";
shapes = (
{
closed = 1;
nodes = (
(-5,0,l),
(105,0,l),
(123,107,l),
(13,107,l)
);
},
{
closed = 1;
nodes = (
(71,432,l),
(181,432,l),
(200,539,l),
(89,539,l)
);
}
);
width = 191;
},
{
layerId = "67B2D992-FDF5-421B-B89F-40A62CC9CD8A";
shapes = (
{
closed = 1;
nodes = (
(-13,0,l),
(37,0,l),
(45,49,l),
(-5,49,l)
);
},
{
closed = 1;
nodes = (
(67,454,l),
(117,454,l),
(125,503,l),
(75,503,l)
);
}
);
width = 113;
}
);
unicode = 58;
},
{
glyphname = comma;
layers = (
{
layerId = "8A84D32D-FB1E-4DD2-B3EC-97AE96C1F3F2";
shapes = (
{
closed = 1;
nodes = (
(55,131,l),
(21,-61,l),
(108,-61,l),
(106,-72,ls),
(97,-124,o),
(75,-132,o),
(41,-132,c),
(27,-210,l),
(236,-210,o),
(275,18,o),
(226,131,c)
);
}
);
width = 276;
},
{
layerId = "9E02F294-FA05-4D2D-A912-E8181F430C35";
shapes = (
{
closed = 1;
nodes = (
(30,67,l),
(15,-26,l),
(65,-26,l),
(63,-35,l),
(57,-74,o),
(40,-91,o),
(7,-91,c),
(0,-130,l),
(101,-130,o),
(138,-32,o),
(124,67,c)
);
}
);
width = 175;
},
{
layerId = "67B2D992-FDF5-421B-B89F-40A62CC9CD8A";
shapes = (
{
closed = 1;
nodes = (
(17,31,l),
(11,-7,l),
(42,-7,l),
(40,-14,l),
(35,-47,o),
(20,-68,o),
(-12,-68,c),
(-15,-86,l),
(27,-86,o),
(63,-59,o),
(68,31,c)
);
}
);
width = 120;
}
);
unicode = 44;
},
{
glyphname = ellipsis;
layers = (
{
layerId = "8A84D32D-FB1E-4DD2-B3EC-97AE96C1F3F2";
shapes = (
{
alignment = -1;
pos = (244,0);
ref = period;
},
{
alignment = -1;
pos = (509,0);
ref = period;
},
{
alignment = -1;
pos = (-21,0);
ref = period;
}
);
width = 806;
},
{
layerId = "9E02F294-FA05-4D2D-A912-E8181F430C35";
shapes = (
{
closed = 1;
nodes = (
(198,0,l),
(308,0,l),
(327,107,l),
(216,107,l)
);
},
{
closed = 1;
nodes = (
(386,0,l),
(496,0,l),
(515,107,l),
(404,107,l)
);
},
{
closed = 1;
nodes = (
(10,0,l),
(120,0,l),
(139,107,l),
(28,107,l)
);
}
);
width = 546;
},
{
layerId = "67B2D992-FDF5-421B-B89F-40A62CC9CD8A";
shapes = (
{
alignment = -1;
pos = (140,0);
ref = period;
},
{
alignment = -1;
pos = (285,0);
ref = period;
},
{
alignment = -1;
pos = (-5,0);
ref = period;
}
);
width = 403;
}
);
unicode = 8230;
},
{
glyphname = exclam;
layers = (
{
layerId = "8A84D32D-FB1E-4DD2-B3EC-97AE96C1F3F2";
shapes = (
{
closed = 1;
nodes = (
(117,281,l),
(307,281,l),
(417,755,l),
(175,755,l)
);
},
{
closed = 1;
nodes = (
(52,0,l),
(272,0,l),
(310,212,l),
(90,212,l)
);
}
);
width = 435;
},
{
layerId = "9E02F294-FA05-4D2D-A912-E8181F430C35";
shapes = (
{
closed = 1;
nodes = (
(87,208,l),
(164,208,l),
(268,725,l),
(166,725,l)
);
},
{
closed = 1;
nodes = (
(35,0,l),
(146,0,l),
(165,107,l),
(54,107,l)
);
}
);
width = 300;
},
{
layerId = "67B2D992-FDF5-421B-B89F-40A62CC9CD8A";
shapes = (
{
closed = 1;
nodes = (
(71,168,l),
(83,168,l),
(185,708,l),
(161,708,l)
);
},
{
closed = 1;
nodes = (
(25,0,l),
(75,0,l),
(84,49,l),
(34,49,l)
);
}
);
width = 225;
}
);
unicode = 33;
},
{
glyphname = numbersign;
layers = (
{
layerId = "8A84D32D-FB1E-4DD2-B3EC-97AE96C1F3F2";
shapes = (
{
closed = 1;
nodes = (
(60,0,l),
(265,0,l),
(553,740,l),
(348,740,l)
);
},
{
closed = 1;
nodes = (
(404,0,l),
(610,0,l),
(898,740,l),
(692,740,l)
);
},
{
closed = 1;
nodes = (
(-33,124,l),
(812,124,l),
(847,326,l),
(2,326,l)
);
},
{
closed = 1;
nodes = (
(87,421,l),
(932,421,l),
(968,623,l),
(123,623,l)
);
}
);
width = 933;
},
{
layerId = "9E02F294-FA05-4D2D-A912-E8181F430C35";
shapes = (
{
closed = 1;
nodes = (
(76,0,l),
(162,0,l),
(450,740,l),
(364,740,l)
);
},
{
closed = 1;
nodes = (
(373,0,l),
(459,0,l),
(747,740,l),
(661,740,l)
);
},
{
closed = 1;
nodes = (
(0,204,l),
(695,204,l),
(710,287,l),
(15,287,l)
);
},
{
closed = 1;
nodes = (
(100,449,l),
(795,449,l),
(810,533,l),
(115,533,l)
);
}
);
width = 810;
},
{
layerId = "67B2D992-FDF5-421B-B89F-40A62CC9CD8A";
shapes = (
{
closed = 1;
nodes = (
(85,0,l),
(105,0,l),
(393,740,l),
(373,740,l)
);
},
{
closed = 1;
nodes = (
(356,0,l),
(376,0,l),
(664,740,l),
(644,740,l)
);
},
{
closed = 1;
nodes = (
(18,248,l),
(631,248,l),
(635,266,l),
(22,266,l)
);
},
{
closed = 1;
nodes = (
(107,465,l),
(720,465,l),
(723,483,l),
(110,483,l)
);
}
);
width = 743;
}
);
unicode = 35;
},
{
glyphname = period;
layers = (
{
layerId = "8A84D32D-FB1E-4DD2-B3EC-97AE96C1F3F2";
shapes = (
{
closed = 1;
nodes = (
(9,0,l),
(229,0,l),
(267,212,l),
(47,212,l)
);
}
);
width = 277;
},
{
layerId = "9E02F294-FA05-4D2D-A912-E8181F430C35";
shapes = (
{
closed = 1;
nodes = (
(21,0,l),
(131,0,l),
(150,107,l),
(39,107,l)
);
}
);
width = 171;
},
{
layerId = "67B2D992-FDF5-421B-B89F-40A62CC9CD8A";
shapes = (
{
closed = 1;
nodes = (
(27,0,l),
(77,0,l),
(85,49,l),
(35,49,l)
);
}
);
width = 113;
}
);
unicode = 46;
},
{
glyphname = question;
layers = (
{
layerId = "8A84D32D-FB1E-4DD2-B3EC-97AE96C1F3F2";
shapes = (
{
closed = 1;
nodes = (
(257,548,l),
(262,572,o),
(276,593,o),
(303,593,cs),
(322,593,o),
(335,580,o),
(331,556,cs),
(323,513,o),
(276,498,o),
(199,498,cs),
(115,498,l),
(77,286,l),
(285,286,l),
(298,357,l),
(425,360,o),
(527,438,o),
(548,557,cs),
(574,704,o),
(485,773,o),
(343,773,cs),
(164,773,o),
(64,667,o),
(48,548,c)
);
},
{
closed = 1;
nodes = (
(22,0,l),
(242,0,l),
(279,212,l),
(59,212,l)
);
}
);
width = 538;
},
{
layerId = "9E02F294-FA05-4D2D-A912-E8181F430C35";
shapes = (
{
closed = 1;
nodes = (
(143,533,l),
(163,608,o),
(211,660,o),
(298,660,cs),
(380,660,o),
(425,608,o),
(409,521,cs),
(389,402,o),
(278,381,o),
(181,381,cs),
(141,381,l),
(108,201,l),
(196,201,l),
(217,319,l),
(356,321,o),
(475,377,o),
(500,522,cs),
(522,656,o),
(448,736,o),
(314,736,cs),
(171,736,o),
(81,654,o),
(55,533,c)
);
},
{
closed = 1;
nodes = (
(62,0,l),
(173,0,l),
(192,107,l),
(81,107,l)
);
}
);
width = 504;
},
{
layerId = "67B2D992-FDF5-421B-B89F-40A62CC9CD8A";
shapes = (
{
closed = 1;
nodes = (
(79,525,l),
(108,628,o),
(175,697,o),
(296,697,cs),
(412,697,o),
(475,623,o),
(453,502,cs),
(425,342,o),
(280,317,o),
(171,317,cs),
(155,317,l),
(126,153,l),
(146,153,l),
(172,299,l),
(318,300,o),
(446,344,o),
(473,502,cs),
(494,631,o),
(426,715,o),
(299,715,cs),
(175,715,o),
(91,647,o),
(59,525,c)
);
},
{
closed = 1;
nodes = (
(84,0,l),
(135,0,l),
(144,49,l),
(94,49,l)
);
}
);
width = 485;
}
);
unicode = 63;
},
{
glyphname = quotedbl;
layers = (
{
layerId = "8A84D32D-FB1E-4DD2-B3EC-97AE96C1F3F2";
shapes = (
{
closed = 1;
nodes = (
(38,568,l),
(186,568,l),
(241,803,l),
(66,803,l)
);
},
{
closed = 1;
nodes = (
(263,568,l),
(411,568,l),
(466,803,l),
(291,803,l)
);
}
);
width = 490;
},
{
layerId = "9E02F294-FA05-4D2D-A912-E8181F430C35";
shapes = (
{
closed = 1;
nodes = (
(34,598,l),
(97,598,l),
(142,797,l),
(60,797,l)
);
},
{
closed = 1;
nodes = (
(169,598,l),
(232,598,l),
(276,797,l),
(194,797,l)
);
}
);
width = 300;
},
{
layerId = "67B2D992-FDF5-421B-B89F-40A62CC9CD8A";
shapes = (
{
closed = 1;
nodes = (
(32,614,l),
(48,614,l),
(87,793,l),
(56,793,l)
);
},
{
closed = 1;
nodes = (
(117,614,l),
(133,614,l),
(172,793,l),
(141,793,l)
);
}
);
width = 196;
}
);
unicode = 34;
},
{
glyphname = quotesingle;
layers = (
{
layerId = "8A84D32D-FB1E-4DD2-B3EC-97AE96C1F3F2";
shapes = (
{
closed = 1;
nodes = (
(38,568,l),
(186,568,l),
(241,803,l),
(66,803,l)
);
}
);
width = 265;
},
{
layerId = "9E02F294-FA05-4D2D-A912-E8181F430C35";
shapes = (
{
closed = 1;
nodes = (
(37,598,l),
(100,598,l),
(147,797,l),
(60,797,l)
);
}
);
width = 171;
},
{
layerId = "67B2D992-FDF5-421B-B89F-40A62CC9CD8A";
shapes = (
{
closed = 1;
nodes = (
(36,614,l),
(52,614,l),
(95,793,l),
(56,793,l)
);
}
);
width = 119;
}
);
unicode = 39;
},
{
glyphname = slash;
layers = (
{
layerId = "8A84D32D-FB1E-4DD2-B3EC-97AE96C1F3F2";
shapes = (
{
closed = 1;
nodes = (
(-138,-198,l),
(75,-198,l),
(544,955,l),
(332,955,l)
);
}
);
width = 399;
},
{
layerId = "9E02F294-FA05-4D2D-A912-E8181F430C35";
shapes = (
{
closed = 1;
nodes = (
(-92,-171,l),
(-3,-171,l),
(467,942,l),
(378,942,l)
);
}
);
width = 373;
},
{
layerId = "67B2D992-FDF5-421B-B89F-40A62CC9CD8A";
shapes = (
{
closed = 1;
nodes = (
(-66,-156,l),
(-46,-156,l),
(425,935,l),
(403,935,l)
);
}
);
width = 359;
}
);
unicode = 47;
},
{
glyphname = underscore;
layers = (
{
layerId = "8A84D32D-FB1E-4DD2-B3EC-97AE96C1F3F2";
shapes = (
{
closed = 1;
nodes = (
(-30,-258,l),
(645,-258,l),
(683,-42,l),
(8,-42,l)
);
}
);
width = 734;
},
{
layerId = "9E02F294-FA05-4D2D-A912-E8181F430C35";
shapes = (
{
closed = 1;
nodes = (
(14,-123,l),
(546,-123,l),
(562,-34,l),
(30,-34,l)
);
}
);
width = 604;
},
{
layerId = "67B2D992-FDF5-421B-B89F-40A62CC9CD8A";
shapes = (
{
closed = 1;
nodes = (
(38,-48,l),
(491,-48,l),
(495,-30,l),
(42,-30,l)
);
}
);
width = 533;
}
);
unicode = 95;
},
{
glyphname = braceleft;
layers = (
{
layerId = "8A84D32D-FB1E-4DD2-B3EC-97AE96C1F3F2";
shapes = (
{
closed = 1;
nodes = (
(247,373,l),
(323,387,o),
(363,424,o),
(377,502,c),
(388,567,o),
(383,625,o),
(394,692,cs),
(420,838,o),
(498,916,o),
(580,945,c),
(583,961,l),
(356,961,l),
(315,944,o),
(204,874,o),
(171,689,cs),
(158,617,o),
(166,565,o),
(154,496,cs),
(146,451,o),
(116,408,o),
(43,408,c),
(31,336,l),
(100,336,o),
(118,293,o),
(110,248,cs),
(98,179,o),
(72,127,o),
(59,55,cs),
(26,-130,o),
(113,-200,o),
(148,-217,c),
(375,-217,l),
(378,-201,l),
(306,-172,o),
(256,-94,o),
(282,52,cs),
(294,120,o),
(320,177,o),
(331,242,cs),
(345,320,o),
(316,358,o),
(247,371,c)
);
}
);
width = 513;
},
{
layerId = "9E02F294-FA05-4D2D-A912-E8181F430C35";
shapes = (
{
closed = 1;
nodes = (
(121,373,l),
(206,390,o),
(251,450,o),
(264,524,cs),
(276,592,o),
(261,637,o),
(276,725,cs),
(297,846,o),
(379,922,o),
(442,953,c),
(444,961,l),
(350,961,l),
(314,943,o),
(210,871,o),
(183,720,cs),
(170,641,o),
(183,585,o),
(172,522,cs),
(164,477,o),
(142,414,o),
(42,393,c),
(36,351,l),
(126,330,o),
(127,267,o),
(119,222,cs),
(108,159,o),
(75,103,o),
(61,24,cs),
(34,-127,o),
(112,-199,o),
(142,-217,c),
(236,-217,l),
(237,-209,l),
(185,-178,o),
(131,-102,o),
(152,19,cs),
(168,107,o),
(199,152,o),
(210,220,c),
(224,294,o),
(199,354,o),
(121,371,c)
);
}
);
width = 371;
},
{
layerId = "67B2D992-FDF5-421B-B89F-40A62CC9CD8A";
shapes = (
{
closed = 1;
nodes = (
(52,373,l),
(142,392,o),
(189,464,o),
(202,536,cs),
(214,605,o),
(194,644,o),
(211,743,cs),
(230,851,o),
(314,926,o),
(366,957,c),
(367,961,l),
(347,961,l),
(313,942,o),
(214,869,o),
(190,737,cs),
(176,654,o),
(192,596,o),
(182,536,cs),
(174,491,o),
(156,418,o),
(42,384,c),
(38,360,l),
(140,326,o),
(132,253,o),
(124,208,cs),
(114,148,o),
(76,90,o),
(62,7,cs),
(38,-125,o),
(111,-198,o),
(139,-217,c),
(159,-217,l),
(160,-213,l),
(118,-182,o),
(62,-107,o),
(81,1,cs),
(98,100,o),
(132,139,o),
(144,208,cs),
(157,280,o),
(134,352,o),
(52,371,c)
);
}
);
width = 293;
}
);
unicode = 123;
},
{
glyphname = braceright;
layers = (
{
layerId = "8A84D32D-FB1E-4DD2-B3EC-97AE96C1F3F2";
shapes = (
{
closed = 1;
nodes = (
(268,371,l),
(195,358,o),
(153,328,o),
(142,262,cs),
(130,197,o),
(136,140,o),
(124,72,cs),
(100,-64,o),
(18,-172,o),
(-65,-201,c),
(-68,-217,l),
(158,-217,l),
(199,-200,o),
(310,-130,o),
(343,55,cs),
(356,127,o),
(348,179,o),
(360,248,cs),
(368,293,o),
(404,345,o),
(471,336,c),
(483,408,l),
(414,401,o),
(396,451,o),
(404,496,cs),
(416,565,o),
(442,617,o),
(455,689,cs),
(488,874,o),
(401,944,o),
(366,961,c),
(140,961,l),
(137,945,l),
(210,916,o),
(254,808,o),
(230,672,cs),
(218,605,o),
(192,547,o),
(180,482,cs),
(169,416,o),
(198,387,o),
(268,373,c)
);
}
);
width = 489;
},
{
layerId = "9E02F294-FA05-4D2D-A912-E8181F430C35";
shapes = (
{
closed = 1;
nodes = (
(257,371,l),
(173,354,o),
(128,297,o),
(116,227,cs),
(104,160,o),
(119,114,o),
(103,26,cs),
(83,-92,o),
(-1,-178,o),
(-64,-209,c),
(-65,-217,l),
(28,-217,l),
(64,-199,o),
(167,-127,o),
(195,24,cs),
(208,103,o),
(195,159,o),
(206,222,cs),
(214,267,o),
(238,333,o),
(336,351,c),
(342,393,l),
(252,412,o),
(251,477,o),
(259,522,cs),
(270,585,o),
(303,641,o),
(317,720,cs),
(344,871,o),
(266,943,o),
(236,961,c),
(143,961,l),
(141,953,l),
(194,922,o),
(246,836,o),
(225,718,cs),
(210,630,o),
(178,584,o),
(166,517,cs),
(154,447,o),
(179,390,o),
(257,373,c)
);
}
);
width = 369;
},
{
layerId = "67B2D992-FDF5-421B-B89F-40A62CC9CD8A";
shapes = (
{
closed = 1;
nodes = (
(251,371,l),
(161,352,o),
(114,280,o),
(101,208,cs),
(89,139,o),
(109,100,o),
(92,1,cs),
(73,-107,o),
(-11,-182,o),
(-63,-213,c),
(-64,-217,l),
(-44,-217,l),
(-10,-198,o),
(89,-125,o),
(113,7,cs),
(127,90,o),
(111,148,o),
(121,208,cs),
(129,253,o),
(147,326,o),
(261,360,c),
(265,384,l),
(163,418,o),
(171,491,o),
(179,536,cs),
(189,596,o),
(227,654,o),
(241,737,cs),
(265,869,o),
(192,942,o),
(164,961,c),
(144,961,l),
(143,957,l),
(185,926,o),
(241,851,o),
(222,743,cs),
(205,644,o),
(171,605,o),
(159,536,cs),
(146,464,o),
(169,392,o),
(251,373,c)
);
}
);
width = 303;
}
);
unicode = 125;
},
{
glyphname = bracketleft;
layers = (
{
layerId = "8A84D32D-FB1E-4DD2-B3EC-97AE96C1F3F2";
shapes = (
{
closed = 1;
nodes = (
(-7,-199,l),
(375,-199,l),
(407,-21,l),
(233,-21,l),
(373,777,l),
(547,777,l),
(579,955,l),
(197,955,l)
);
}
);
width = 533;
},
{
layerId = "9E02F294-FA05-4D2D-A912-E8181F430C35";
shapes = (
{
closed = 1;
nodes = (
(-10,-171,l),
(187,-171,l),
(200,-96,l),
(90,-96,l),
(260,867,l),
(370,867,l),
(383,942,l),
(187,942,l)
);
}
);
width = 330;
},
{
layerId = "67B2D992-FDF5-421B-B89F-40A62CC9CD8A";
shapes = (
{
closed = 1;
nodes = (
(-11,-155,l),
(83,-155,l),
(86,-137,l),
(12,-137,l),
(198,917,l),
(272,917,l),
(275,935,l),
(181,935,l)
);
}
);
width = 219;
}
);
unicode = 91;
},
{
glyphname = bracketright;
layers = (
{
layerId = "8A84D32D-FB1E-4DD2-B3EC-97AE96C1F3F2";
shapes = (
{
closed = 1;
nodes = (
(538,955,l),
(156,955,l),
(124,777,l),
(299,777,l),
(159,-21,l),
(-16,-21,l),
(-48,-199,l),
(334,-199,l)
);
}
);
width = 530;
},
{
layerId = "9E02F294-FA05-4D2D-A912-E8181F430C35";
shapes = (
{
closed = 1;
nodes = (
(339,942,l),
(143,942,l),
(130,867,l),
(240,867,l),
(70,-96,l),
(-40,-96,l),
(-53,-171,l),
(143,-171,l)
);
}
);
width = 329;
},
{
layerId = "67B2D992-FDF5-421B-B89F-40A62CC9CD8A";
shapes = (
{
closed = 1;
nodes = (
(230,935,l),
(136,935,l),
(133,917,l),
(207,917,l),
(21,-137,l),
(-53,-137,l),
(-56,-155,l),
(38,-155,l)
);
}
);
width = 219;
}
);
unicode = 93;
},
{
glyphname = parenleft;
layers = (
{
layerId = "8A84D32D-FB1E-4DD2-B3EC-97AE96C1F3F2";
shapes = (
{
closed = 1;
nodes = (
(401,-189,l),
(404,-169,l),
(246,-12,o),
(187,173,o),
(227,402,c),
(267,631,o),
(392,815,o),
(606,972,c),
(609,993,l),
(395,993,l),
(218,873,o),
(60,665,o),
(14,402,c),
(-33,137,o),
(52,-69,o),
(187,-189,c)
);
}
);
width = 429;
},
{
layerId = "9E02F294-FA05-4D2D-A912-E8181F430C35";
shapes = (
{
closed = 1;
nodes = (
(293,-184,l),
(295,-175,l),
(140,-28,o),
(91,169,o),
(132,403,cs),
(173,636,o),
(293,833,o),
(498,980,c),
(500,989,l),
(411,989,l),
(242,874,o),
(91,672,o),
(44,403,cs),
(-4,132,o),
(76,-68,o),
(204,-184,c)
);
}
);
width = 383;
},
{
layerId = "67B2D992-FDF5-421B-B89F-40A62CC9CD8A";
shapes = (
{
closed = 1;
nodes = (
(234,-181,l),
(235,-178,l),
(82,-37,o),
(38,167,o),
(80,403,c),
(122,639,o),
(238,843,o),
(439,984,c),
(440,987,l),
(420,987,l),
(255,874,o),
(108,676,o),
(60,403,c),
(12,130,o),
(89,-68,o),
(214,-181,c)
);
}
);
width = 357;
}
);
unicode = 40;
},
{
glyphname = parenright;
layers = (
{
layerId = "8A84D32D-FB1E-4DD2-B3EC-97AE96C1F3F2";
shapes = (
{
closed = 1;
nodes = (
(30,993,l),
(27,972,l),
(186,815,o),
(245,631,o),
(205,402,cs),
(165,173,o),
(40,-12,o),
(-175,-169,c),
(-178,-189,l),
(37,-189,l),
(214,-69,o),
(371,138,o),
(418,403,cs),
(465,666,o),
(380,873,o),
(245,993,c)
);
}
);
width = 432;
},
{
layerId = "9E02F294-FA05-4D2D-A912-E8181F430C35";
shapes = (
{
closed = 1;
nodes = (
(90,989,l),
(88,980,l),
(243,833,o),
(293,636,o),
(251,403,cs),
(210,169,o),
(91,-28,o),
(-115,-175,c),
(-117,-184,l),
(-28,-184,l),
(142,-68,o),
(292,133,o),
(340,403,cs),
(388,672,o),
(308,874,o),
(179,989,c)
);
}
);
width = 384;
},
{
layerId = "67B2D992-FDF5-421B-B89F-40A62CC9CD8A";
shapes = (
{
closed = 1;
nodes = (
(123,987,l),
(122,984,l),
(275,843,o),
(319,639,o),
(277,403,c),
(235,167,o),
(119,-37,o),
(-82,-178,c),
(-83,-181,l),
(-63,-181,l),
(102,-68,o),
(249,130,o),
(297,403,c),
(345,676,o),
(268,874,o),
(143,987,c)
);
}
);
width = 357;
}
);
unicode = 41;
},
{
glyphname = emdash;
layers = (
{
layerId = "8A84D32D-FB1E-4DD2-B3EC-97AE96C1F3F2";
shapes = (
{
closed = 1;
nodes = (
(39,250,l),
(865,250,l),
(897,433,l),
(71,433,l)
);
}
);
width = 936;
},
{
layerId = "9E02F294-FA05-4D2D-A912-E8181F430C35";
shapes = (
{
closed = 1;
nodes = (
(38,328,l),
(773,328,l),
(787,405,l),
(52,405,l)
);
}
);
width = 825;
},
{
layerId = "67B2D992-FDF5-421B-B89F-40A62CC9CD8A";
shapes = (
{
closed = 1;
nodes = (
(38,371,l),
(722,371,l),
(726,389,l),
(42,389,l)
);
}
);
width = 764;
}
);
unicode = 8212;
},
{
glyphname = endash;
layers = (
{
layerId = "8A84D32D-FB1E-4DD2-B3EC-97AE96C1F3F2";
shapes = (
{
closed = 1;
nodes = (
(39,250,l),
(612,250,l),
(644,433,l),
(71,433,l)
);
}
);
width = 683;
},
{
layerId = "9E02F294-FA05-4D2D-A912-E8181F430C35";
shapes = (
{
closed = 1;
nodes = (
(38,328,l),
(565,328,l),
(579,405,l),
(52,405,l)
);
}
);
width = 617;
},
{
layerId = "67B2D992-FDF5-421B-B89F-40A62CC9CD8A";
shapes = (
{
closed = 1;
nodes = (
(38,371,l),
(539,371,l),
(543,389,l),
(42,389,l)
);
}
);
width = 581;
}
);
unicode = 8211;
},
{
glyphname = guillemotleft;
layers = (
{
layerId = "8A84D32D-FB1E-4DD2-B3EC-97AE96C1F3F2";
shapes = (
{
closed = 1;
nodes = (
(244,295,l),
(354,470,l),
(153,470,l),
(45,295,l),
(91,120,l),
(292,120,l)
);
},
{
closed = 1;
nodes = (
(499,295,l),
(609,470,l),
(408,470,l),
(300,295,l),
(346,120,l),
(547,120,l)
);
}
);
width = 618;
},
{
layerId = "9E02F294-FA05-4D2D-A912-E8181F430C35";
shapes = (
{
closed = 1;
nodes = (
(132,295,l),
(261,470,l),
(172,470,l),
(45,295,l),
(110,120,l),
(199,120,l)
);
},
{
closed = 1;
nodes = (
(316,295,l),
(445,470,l),
(356,470,l),
(229,295,l),
(294,120,l),
(383,120,l)
);
}
);
width = 461;
},
{
layerId = "67B2D992-FDF5-421B-B89F-40A62CC9CD8A";
shapes = (
{
closed = 1;
nodes = (
(70,295,l),
(210,470,l),
(183,470,l),
(45,295,l),
(121,120,l),
(148,120,l)
);
},
{
closed = 1;
nodes = (
(215,295,l),
(355,470,l),
(328,470,l),
(190,295,l),
(266,120,l),
(293,120,l)
);
}
);
width = 374;
}
);
unicode = 171;
},
{
glyphname = guillemotright;
layers = (
{
layerId = "8A84D32D-FB1E-4DD2-B3EC-97AE96C1F3F2";
shapes = (
{
closed = 1;
nodes = (
(476,120,l),
(583,295,l),
(538,470,l),
(336,470,l),
(385,295,l),
(274,120,l)
);
},
{
closed = 1;
nodes = (
(221,120,l),
(328,295,l),
(283,470,l),
(81,470,l),
(130,295,l),
(19,120,l)
);
}
);
width = 618;
},
{
layerId = "9E02F294-FA05-4D2D-A912-E8181F430C35";
shapes = (
{
closed = 1;
nodes = (
(293,120,l),
(419,295,l),
(355,470,l),
(265,470,l),
(333,295,l),
(203,120,l)
);
},
{
closed = 1;
nodes = (
(109,120,l),
(235,295,l),
(171,470,l),
(81,470,l),
(149,295,l),
(19,120,l)
);
}
);
width = 461;
},
{
layerId = "67B2D992-FDF5-421B-B89F-40A62CC9CD8A";
shapes = (
{
closed = 1;
nodes = (
(192,120,l),
(329,295,l),
(254,470,l),
(226,470,l),
(305,295,l),
(164,120,l)
);
},
{
closed = 1;
nodes = (
(47,120,l),
(184,295,l),
(109,470,l),
(81,470,l),
(160,295,l),
(19,120,l)
);
}
);
width = 374;
}
);
unicode = 187;
},
{
glyphname = guilsinglleft;
layers = (
{
layerId = "8A84D32D-FB1E-4DD2-B3EC-97AE96C1F3F2";
shapes = (
{
closed = 1;
nodes = (
(244,295,l),
(354,470,l),
(153,470,l),
(45,295,l),
(91,120,l),
(292,120,l)
);
}
);
width = 373;
},
{
layerId = "9E02F294-FA05-4D2D-A912-E8181F430C35";
shapes = (
{
closed = 1;
nodes = (
(132,295,l),
(261,470,l),
(172,470,l),
(45,295,l),
(110,120,l),
(199,120,l)
);
}
);
width = 280;
},
{
layerId = "67B2D992-FDF5-421B-B89F-40A62CC9CD8A";
shapes = (
{
closed = 1;
nodes = (
(70,295,l),
(210,470,l),
(183,470,l),
(45,295,l),
(121,120,l),
(148,120,l)
);
}
);
width = 229;
}
);
unicode = 8249;
},
{
glyphname = guilsinglright;
layers = (
{
layerId = "8A84D32D-FB1E-4DD2-B3EC-97AE96C1F3F2";
shapes = (
{
closed = 1;
nodes = (
(221,120,l),
(328,295,l),
(283,470,l),
(81,470,l),
(130,295,l),
(19,120,l)
);
}
);
width = 373;
},
{
layerId = "9E02F294-FA05-4D2D-A912-E8181F430C35";
shapes = (
{
closed = 1;
nodes = (
(109,120,l),
(235,295,l),
(171,470,l),
(81,470,l),
(149,295,l),
(19,120,l)
);
}
);
width = 280;
},
{
layerId = "67B2D992-FDF5-421B-B89F-40A62CC9CD8A";
shapes = (
{
closed = 1;
nodes = (
(47,120,l),
(184,295,l),
(109,470,l),
(81,470,l),
(160,295,l),
(19,120,l)
);
}
);
width = 229;
}
);
unicode = 8250;
},
{
glyphname = quotedblleft;
layers = (
{
layerId = "8A84D32D-FB1E-4DD2-B3EC-97AE96C1F3F2";
shapes = (
{
closed = 1;
nodes = (
(205,565,l),
(231,712,l),
(159,712,l),
(160,723,l),
(170,775,o),
(194,798,o),
(229,798,c),
(242,876,l),
(128,876,o),
(63,796,o),
(46,700,cs),
(39,658,o),
(39,612,o),
(49,565,c)
);
},
{
closed = 1;
nodes = (
(429,565,l),
(455,712,l),
(383,712,l),
(384,723,l),
(394,775,o),
(419,798,o),
(453,798,c),
(466,876,l),
(353,876,o),
(288,796,o),
(271,700,cs),
(264,658,o),
(263,612,o),
(273,565,c)
);
}
);
width = 506;
},
{
layerId = "9E02F294-FA05-4D2D-A912-E8181F430C35";
shapes = (
{
closed = 1;
nodes = (
(122,583,l),
(137,669,l),
(87,669,l),
(91,692,ls),
(98,729,o),
(115,748,o),
(150,748,c),
(157,788,l),
(91,788,o),
(48,750,o),
(35,675,cs),
(31,649,o),
(29,618,o),
(31,583,c)
);
},
{
closed = 1;
nodes = (
(257,583,l),
(272,669,l),
(222,669,l),
(226,692,ls),
(233,729,o),
(250,748,o),
(285,748,c),
(292,788,l),
(226,788,o),
(184,750,o),
(170,675,c),
(166,649,o),
(164,618,o),
(166,583,c)
);
}
);
width = 314;
},
{
layerId = "67B2D992-FDF5-421B-B89F-40A62CC9CD8A";
shapes = (
{
closed = 1;
nodes = (
(77,593,l),
(86,646,l),
(48,646,l),
(53,675,l),
(59,704,o),
(71,720,o),
(106,720,c),
(110,740,l),
(70,740,o),
(40,725,o),
(29,662,cs),
(26,644,o),
(23,622,o),
(21,593,c)
);
},
{
closed = 1;
nodes = (
(163,593,l),
(172,646,l),
(134,646,l),
(139,675,l),
(145,704,o),
(157,720,o),
(192,720,c),
(196,740,l),
(156,740,o),
(126,725,o),
(115,662,cs),
(112,644,o),
(109,622,o),
(107,593,c)
);
}
);
width = 208;
}
);
unicode = 8220;
},
{
glyphname = quotedblright;
layers = (
{
layerId = "8A84D32D-FB1E-4DD2-B3EC-97AE96C1F3F2";
shapes = (
{
closed = 1;
nodes = (
(301,876,l),
(276,730,l),
(348,730,l),
(346,718,ls),
(337,667,o),
(313,644,o),
(278,644,c),
(264,565,l),
(378,565,o),
(443,645,o),
(460,742,cs),
(467,784,o),
(467,830,o),
(457,876,c)
);
},
{
closed = 1;
nodes = (
(77,876,l),
(52,730,l),
(124,730,l),
(122,718,ls),
(113,667,o),
(88,644,o),
(54,644,c),
(40,565,l),
(153,565,o),
(218,645,o),
(235,742,cs),
(242,784,o),
(243,830,o),
(233,876,c)
);
}
);
width = 506;
},
{
layerId = "9E02F294-FA05-4D2D-A912-E8181F430C35";
shapes = (
{
closed = 1;
nodes = (
(191,788,l),
(177,702,l),
(227,702,l),
(223,679,ls),
(216,642,o),
(199,624,o),
(164,624,c),
(157,583,l),
(223,583,o),
(266,621,o),
(279,696,cs),
(283,723,o),
(285,753,o),
(283,788,c)
);
},
{
closed = 1;
nodes = (
(56,788,l),
(42,702,l),
(92,702,l),
(88,679,ls),
(81,642,o),
(64,624,o),
(29,624,c),
(22,583,l),
(88,583,o),
(130,621,o),
(143,696,cs),
(148,723,o),
(150,753,o),
(148,788,c)
);
}
);
width = 314;
},
{
layerId = "67B2D992-FDF5-421B-B89F-40A62CC9CD8A";
shapes = (
{
closed = 1;
nodes = (
(131,740,l),
(122,687,l),
(160,687,l),
(155,658,l),
(149,629,o),
(137,613,o),
(102,613,c),
(98,593,l),
(138,593,o),
(168,608,o),
(179,671,cs),
(182,689,o),
(185,711,o),
(187,740,c)
);
},
{
closed = 1;
nodes = (
(45,740,l),
(36,687,l),
(74,687,l),
(69,658,l),
(63,629,o),
(51,613,o),
(16,613,c),
(12,593,l),
(52,593,o),
(82,608,o),
(93,671,cs),
(96,689,o),
(99,711,o),
(101,740,c)
);
}
);
width = 208;
}
);
unicode = 8221;
},
{
glyphname = quoteleft;
layers = (
{
layerId = "8A84D32D-FB1E-4DD2-B3EC-97AE96C1F3F2";
shapes = (
{
closed = 1;
nodes = (
(205,565,l),
(231,712,l),
(159,712,l),
(160,723,l),
(170,775,o),
(194,798,o),
(229,798,c),
(242,876,l),
(128,876,o),
(63,796,o),
(46,700,cs),
(39,658,o),
(39,612,o),
(49,565,c)
);
}
);
width = 281;
},
{
layerId = "9E02F294-FA05-4D2D-A912-E8181F430C35";
shapes = (
{
closed = 1;
nodes = (
(122,583,l),
(137,669,l),
(87,669,l),
(91,692,ls),
(98,729,o),
(115,748,o),
(150,748,c),
(157,788,l),
(91,788,o),
(48,750,o),
(35,675,cs),
(31,649,o),
(29,618,o),
(31,583,c)
);
}
);
width = 178;
},
{
layerId = "67B2D992-FDF5-421B-B89F-40A62CC9CD8A";
shapes = (
{
closed = 1;
nodes = (
(77,593,l),
(86,646,l),
(48,646,l),
(53,675,l),
(59,704,o),
(71,720,o),
(106,720,c),
(110,740,l),
(70,740,o),
(40,725,o),
(29,662,cs),
(26,644,o),
(23,622,o),
(21,593,c)
);
}
);
width = 122;
}
);
unicode = 8216;
},
{
glyphname = quoteright;
layers = (
{
layerId = "8A84D32D-FB1E-4DD2-B3EC-97AE96C1F3F2";
shapes = (
{
closed = 1;
nodes = (
(77,876,l),
(52,730,l),
(124,730,l),
(122,718,ls),
(113,667,o),
(88,644,o),
(54,644,c),
(40,565,l),
(153,565,o),
(218,645,o),
(235,742,cs),
(242,784,o),
(243,830,o),
(233,876,c)
);
}
);
width = 281;
},
{
layerId = "9E02F294-FA05-4D2D-A912-E8181F430C35";
shapes = (
{
closed = 1;
nodes = (
(56,788,l),
(42,702,l),
(92,702,l),
(88,679,ls),
(81,642,o),
(64,624,o),
(29,624,c),
(22,583,l),
(88,583,o),
(130,621,o),
(143,696,cs),
(148,723,o),
(150,753,o),
(148,788,c)
);
}
);
width = 178;
},
{
layerId = "67B2D992-FDF5-421B-B89F-40A62CC9CD8A";
shapes = (
{
closed = 1;
nodes = (
(45,740,l),
(36,687,l),
(74,687,l),
(69,658,l),
(63,629,o),
(51,613,o),
(16,613,c),
(12,593,l),
(52,593,o),
(82,608,o),
(93,671,cs),
(96,689,o),
(99,711,o),
(101,740,c)
);
}
);
width = 122;
}
);
unicode = 8217;
},
{
glyphname = Euro;
layers = (
{
layerId = "8A84D32D-FB1E-4DD2-B3EC-97AE96C1F3F2";
shapes = (
{
closed = 1;
nodes = (
(454,371,l),
(471,471,l),
(35,471,l),
(18,371,l)
);
},
{
closed = 1;
nodes = (
(431,244,l),
(449,343,l),
(13,343,l),
(-5,244,l)
);
},
{
closed = 1;
nodes = (
(30,144,o),
(137,-5,o),
(354,-5,c),
(541,-5,o),
(687,107,o),
(746,274,c),
(512,274,l),
(482,227,o),
(436,200,o),
(386,200,c),
(311,200,o),
(275,261,o),
(292,355,c),
(309,449,o),
(365,510,o),
(440,510,c),
(490,510,o),
(528,483,o),
(540,436,c),
(774,436,l),
(775,603,o),
(667,715,o),
(480,715,c),
(263,715,o),
(104,566,o),
(67,355,c)
);
}
);
width = 790;
},
{
layerId = "9E02F294-FA05-4D2D-A912-E8181F430C35";
shapes = (
{
closed = 1;
nodes = (
(466,399,l),
(474,446,l),
(34,446,l),
(26,399,l)
);
},
{
closed = 1;
nodes = (
(439,250,l),
(447,298,l),
(8,298,l),
(0,250,l)
);
},
{
closed = 1;
nodes = (
(70,143,o),
(180,-6,o),
(380,-6,cs),
(556,-6,o),
(686,88,o),
(752,231,c),
(656,231,l),
(606,143,o),
(515,78,o),
(394,78,cs),
(257,78,o),
(171,184,o),
(200,354,cs),
(230,525,o),
(354,631,o),
(491,631,cs),
(613,631,o),
(681,566,o),
(699,477,c),
(795,477,l),
(779,620,o),
(683,715,o),
(507,715,cs),
(306,715,o),
(144,566,o),
(107,354,cs)
);
}
);
width = 824;
},
{
layerId = "67B2D992-FDF5-421B-B89F-40A62CC9CD8A";
shapes = (
{
closed = 1;
nodes = (
(472,415,l),
(475,433,l),
(34,433,l),
(31,415,l)
);
},
{
closed = 1;
nodes = (
(443,254,l),
(446,273,l),
(6,273,l),
(3,254,l)
);
},
{
closed = 1;
nodes = (
(92,142,o),
(203,-7,o),
(395,-7,c),
(565,-7,o),
(685,78,o),
(755,208,c),
(735,208,l),
(675,96,o),
(559,11,o),
(398,11,c),
(227,11,o),
(113,141,o),
(150,353,c),
(187,567,o),
(348,697,o),
(519,697,c),
(680,697,o),
(765,612,o),
(786,499,c),
(806,499,l),
(781,630,o),
(692,715,o),
(522,715,c),
(330,715,o),
(166,566,o),
(129,353,c)
);
}
);
width = 842;
}
);
unicode = 8364;
},
{
glyphname = cent;
layers = (
{
layerId = "8A84D32D-FB1E-4DD2-B3EC-97AE96C1F3F2";
shapes = (
{
closed = 1;
nodes = (
(336,337,o),
(359,329,o),
(365,302,c),
(568,302,l),
(584,443,o),
(475,514,o),
(346,514,cs),
(177,514,o),
(50,423,o),
(20,254,c),
(-10,83,o),
(85,-8,o),
(254,-8,cs),
(383,-8,o),
(517,64,o),
(551,205,c),
(348,205,l),
(337,180,o),
(306,170,o),
(286,170,cs),
(240,170,o),
(223,201,o),
(232,253,c),
(241,305,o),
(270,337,o),
(316,337,cs)
);
},
{
closed = 1;
nodes = (
(273,364,l),
(364,364,l),
(403,589,l),
(312,589,l)
);
},
{
closed = 1;
nodes = (
(194,-83,l),
(285,-83,l),
(325,143,l),
(234,143,l)
);
}
);
width = 579;
},
{
layerId = "9E02F294-FA05-4D2D-A912-E8181F430C35";
shapes = (
{
closed = 1;
nodes = (
(410,441,o),
(463,397,o),
(464,318,c),
(549,318,l),
(556,440,o),
(474,516,o),
(345,516,cs),
(196,516,o),
(75,424,o),
(46,264,cs),
(18,104,o),
(107,12,o),
(256,12,cs),
(385,12,o),
(494,89,o),
(530,210,c),
(445,210,l),
(418,132,o),
(347,87,o),
(270,87,cs),
(180,87,o),
(113,144,o),
(135,264,cs),
(156,384,o),
(242,441,o),
(332,441,cs)
);
},
{
closed = 1;
nodes = (
(306,454,l),
(351,454,l),
(378,611,l),
(333,611,l)
);
},
{
closed = 1;
nodes = (
(210,-89,l),
(255,-89,l),
(283,68,l),
(238,68,l)
);
}
);
width = 585;
},
{
layerId = "67B2D992-FDF5-421B-B89F-40A62CC9CD8A";
shapes = (
{
closed = 1;
nodes = (
(450,499,o),
(521,434,o),
(519,327,c),
(539,327,l),
(541,438,o),
(473,517,o),
(344,517,cs),
(206,517,o),
(88,425,o),
(61,270,c),
(34,115,o),
(119,23,o),
(257,23,cs),
(386,23,o),
(481,102,o),
(519,213,c),
(499,213,l),
(463,106,o),
(370,41,o),
(261,41,cs),
(147,41,o),
(53,112,o),
(81,270,c),
(109,428,o),
(227,499,o),
(341,499,cs)
);
},
{
closed = 1;
nodes = (
(324,504,l),
(344,504,l),
(365,623,l),
(345,623,l)
);
},
{
closed = 1;
nodes = (
(219,-93,l),
(239,-93,l),
(260,26,l),
(240,26,l)
);
}
);
width = 588;
}
);
unicode = 162;
},
{
glyphname = currency;
layers = (
{
layerId = "8A84D32D-FB1E-4DD2-B3EC-97AE96C1F3F2";
shapes = (
{
closed = 1;
nodes = (
(406,193,o),
(512,265,o),
(532,379,cs),
(552,494,o),
(471,561,o),
(336,561,c),
(201,561,o),
(96,494,o),
(76,379,cs),
(56,265,o),
(136,193,o),
(271,193,c)
);
},
{
closed = 1;
nodes = (
(255,272,l),
(161,328,l),
(32,219,l),
(97,138,l)
);
},
{
closed = 1;
nodes = (
(515,219,l),
(430,322,l),
(330,248,l),
(420,138,l)
);
},
{
closed = 1;
nodes = (
(263,320,o),
(238,335,o),
(245,377,cs),
(253,421,o),
(284,436,o),
(314,436,c),
(344,436,o),
(369,421,o),
(361,377,cs),
(354,335,o),
(323,320,o),
(293,320,c)
);
},
{
closed = 1;
nodes = (
(282,502,l),
(183,622,l),
(88,541,l),
(173,438,l)
);
},
{
closed = 1;
nodes = (
(571,541,l),
(506,622,l),
(366,503,l),
(428,420,l)
);
}
);
width = 603;
},
{
layerId = "9E02F294-FA05-4D2D-A912-E8181F430C35";
shapes = (
{
closed = 1;
nodes = (
(338,201,o),
(428,270,o),
(448,378,cs),
(466,485,o),
(399,553,o),
(300,553,cs),
(198,553,o),
(110,485,o),
(91,378,cs),
(72,270,o),
(135,201,o),
(237,201,cs)
);
},
{
closed = 1;
nodes = (
(173,260,l),
(139,293,l),
(38,209,l),
(69,172,l)
);
},
{
closed = 1;
nodes = (
(438,209,l),
(369,291,l),
(328,252,l),
(394,172,l)
);
},
{
closed = 1;
nodes = (
(189,257,o),
(151,300,o),
(164,377,cs),
(178,454,o),
(232,497,o),
(290,497,cs),
(345,497,o),
(388,454,o),
(374,377,cs),
(360,300,o),
(302,257,o),
(248,257,cs)
);
},
{
closed = 1;
nodes = (
(211,502,l),
(142,586,l),
(98,549,l),
(167,466,l)
);
},
{
closed = 1;
nodes = (
(498,549,l),
(467,586,l),
(369,502,l),
(392,460,l)
);
}
);
width = 537;
},
{
layerId = "67B2D992-FDF5-421B-B89F-40A62CC9CD8A";
shapes = (
{
closed = 1;
nodes = (
(300,205,o),
(382,273,o),
(401,377,cs),
(419,480,o),
(360,549,o),
(280,549,cs),
(196,549,o),
(118,480,o),
(100,377,cs),
(81,273,o),
(134,205,o),
(219,205,cs)
);
},
{
closed = 1;
nodes = (
(128,254,l),
(127,274,l),
(41,203,l),
(53,190,l)
);
},
{
closed = 1;
nodes = (
(396,203,l),
(336,274,l),
(327,254,l),
(380,190,l)
);
},
{
closed = 1;
nodes = (
(149,223,o),
(103,280,o),
(120,377,cs),
(137,472,o),
(203,531,o),
(277,531,cs),
(346,531,o),
(398,472,o),
(381,377,cs),
(364,280,o),
(291,223,o),
(223,223,cs)
);
},
{
closed = 1;
nodes = (
(172,502,l),
(119,566,l),
(103,553,l),
(163,482,l)
);
},
{
closed = 1;
nodes = (
(458,553,l),
(446,566,l),
(371,502,l),
(372,482,l)
);
}
);
width = 501;
}
);
unicode = 164;
},
{
glyphname = dollar;
layers = (
{
layerId = "8A84D32D-FB1E-4DD2-B3EC-97AE96C1F3F2";
shapes = (
{
closed = 1;
nodes = (
(226,-87,l),
(277,-87,l),
(433,800,l),
(382,800,l)
);
},
{
closed = 1;
nodes = (
(300,540,o),
(320,552,o),
(354,552,cs),
(384,552,o),
(414,544,o),
(410,491,c),
(649,491,l),
(665,641,o),
(565,720,o),
(385,720,cs),
(230,720,o),
(81,646,o),
(56,504,c),
(10,243,o),
(390,302,o),
(373,204,c),
(368,175,o),
(342,161,o),
(311,161,c),
(271,161,o),
(240,175,o),
(245,227,c),
(9,227,l),
(-9,68,o),
(114,-7,o),
(287,-7,cs),
(471,-7,o),
(590,89,o),
(611,209,cs),
(655,459,o),
(277,409,o),
(296,514,c)
);
}
);
width = 665;
},
{
layerId = "9E02F294-FA05-4D2D-A912-E8181F430C35";
shapes = (
{
closed = 1;
nodes = (
(196,-87,l),
(227,-87,l),
(383,800,l),
(352,800,l)
);
},
{
closed = 1;
nodes = (
(190,605,o),
(248,643,o),
(325,643,cs),
(416,643,o),
(451,586,o),
(452,535,c),
(550,535,l),
(553,632,o),
(488,714,o),
(339,714,cs),
(202,714,o),
(99,639,o),
(80,529,cs),
(34,268,o),
(440,379,o),
(405,181,cs),
(394,116,o),
(341,64,o),
(255,64,cs),
(152,64,o),
(116,134,o),
(119,190,c),
(23,190,l),
(12,76,o),
(99,-7,o),
(244,-7,cs),
(400,-7,o),
(486,88,o),
(503,183,cs),
(549,447,o),
(143,339,o),
(178,533,cs)
);
}
);
width = 582;
},
{
layerId = "67B2D992-FDF5-421B-B89F-40A62CC9CD8A";
shapes = (
{
closed = 1;
nodes = (
(180,-87,l),
(200,-87,l),
(356,800,l),
(336,800,l)
);
},
{
closed = 1;
nodes = (
(130,640,o),
(208,693,o),
(309,693,c),
(434,693,o),
(472,609,o),
(475,559,c),
(495,559,l),
(492,627,o),
(445,711,o),
(313,711,c),
(186,711,o),
(109,635,o),
(93,543,cs),
(47,282,o),
(467,421,o),
(423,169,cs),
(408,84,o),
(340,11,o),
(224,11,cs),
(86,11,o),
(48,111,o),
(50,169,c),
(30,169,l),
(24,80,o),
(90,-7,o),
(221,-7,cs),
(361,-7,o),
(429,88,o),
(443,169,cs),
(491,441,o),
(70,300,o),
(113,543,cs)
);
}
);
width = 536;
}
);
unicode = 36;
},
{
glyphname = florin;
layers = (
{
layerId = "8A84D32D-FB1E-4DD2-B3EC-97AE96C1F3F2";
shapes = (
{
closed = 1;
nodes = (
(42,379,l),
(367,379,l),
(419,564,l),
(94,564,l)
);
},
{
closed = 1;
nodes = (
(-52,-98,l),
(-56,-110,o),
(-65,-120,o),
(-78,-120,cs),
(-116,-120,l),
(-167,-310,l),
(-134,-310,ls),
(-1,-310,o),
(122,-268,o),
(170,-98,cs),
(358,569,ls),
(366,597,o),
(388,604,o),
(423,604,c),
(475,793,l),
(289,793,o),
(181,725,o),
(137,569,cs)
);
}
);
width = 340;
},
{
layerId = "9E02F294-FA05-4D2D-A912-E8181F430C35";
shapes = (
{
closed = 1;
nodes = (
(81,471,l),
(365,471,l),
(386,549,l),
(101,549,l)
);
},
{
closed = 1;
nodes = (
(2,-57,l),
(-13,-106,o),
(-35,-119,o),
(-74,-119,cs),
(-105,-119,l),
(-126,-198,l),
(-95,-198,ls),
(4,-198,o),
(65,-157,o),
(93,-57,cs),
(277,595,ls),
(295,661,o),
(342,688,o),
(418,688,c),
(439,767,l),
(304,767,o),
(220,716,o),
(186,595,cs)
);
}
);
width = 334;
},
{
layerId = "67B2D992-FDF5-421B-B89F-40A62CC9CD8A";
shapes = (
{
closed = 1;
nodes = (
(102,522,l),
(364,522,l),
(368,540,l),
(105,540,l)
);
},
{
closed = 1;
nodes = (
(31,-34,ls),
(10,-104,o),
(-18,-118,o),
(-72,-118,cs),
(-99,-118,l),
(-103,-136,l),
(-73,-136,ls),
(6,-136,o),
(33,-96,o),
(51,-34,cs),
(232,609,ls),
(256,696,o),
(317,735,o),
(415,735,c),
(419,753,l),
(313,753,o),
(241,711,o),
(213,609,cs)
);
}
);
width = 331;
}
);
unicode = 402;
},
{
glyphname = indianrupee;
layers = (
{
layerId = "8A84D32D-FB1E-4DD2-B3EC-97AE96C1F3F2";
shapes = (
{
closed = 1;
nodes = (
(354,644,l),
(320,453,ls),
(306,371,o),
(284,365,o),
(53,365,c),
(31,242,ls),
(-1,62,o),
(81,-10,o),
(238,-10,cs),
(387,-10,o),
(474,82,o),
(505,211,c),
(300,211,l),
(293,171,o),
(283,155,o),
(257,155,c),
(230,155,o),
(226,175,o),
(231,204,c),
(235,223,l),
(414,223,o),
(508,341,o),
(529,461,cs),
(561,644,l)
);
},
{
closed = 1;
nodes = (
(88,563,l),
(605,563,l),
(630,708,l),
(113,708,l)
);
},
{
closed = 1;
nodes = (
(577,406,l),
(599,530,l),
(82,530,l),
(60,406,l)
);
}
);
width = 577;
},
{
layerId = "9E02F294-FA05-4D2D-A912-E8181F430C35";
shapes = (
{
closed = 1;
nodes = (
(440,681,l),
(411,518,ls),
(385,375,o),
(350,351,o),
(96,351,c),
(71,208,ls),
(45,67,o),
(104,-10,o),
(241,-10,cs),
(364,-10,o),
(447,65,o),
(473,194,c),
(386,194,l),
(371,107,o),
(326,60,o),
(249,60,cs),
(168,60,o),
(140,111,o),
(155,198,cs),
(171,289,l),
(392,289,o),
(467,354,o),
(497,519,cs),
(526,681,l)
);
},
{
closed = 1;
nodes = (
(113,645,l),
(649,645,l),
(660,708,l),
(123,708,l)
);
},
{
closed = 1;
nodes = (
(618,471,l),
(628,526,l),
(92,526,l),
(82,471,l)
);
}
);
width = 642;
},
{
layerId = "67B2D992-FDF5-421B-B89F-40A62CC9CD8A";
shapes = (
{
closed = 1;
nodes = (
(487,701,l),
(461,553,ls),
(429,377,o),
(386,343,o),
(120,343,c),
(93,189,ls),
(71,70,o),
(116,-10,o),
(242,-10,cs),
(352,-10,o),
(432,55,o),
(455,185,c),
(434,185,l),
(414,71,o),
(350,8,o),
(245,8,cs),
(134,8,o),
(92,76,o),
(113,195,cs),
(136,325,l),
(380,325,o),
(445,361,o),
(479,551,cs),
(506,701,l)
);
},
{
closed = 1;
nodes = (
(126,690,l),
(673,690,l),
(676,708,l),
(129,708,l)
);
},
{
closed = 1;
nodes = (
(641,506,l),
(644,524,l),
(97,524,l),
(94,506,l)
);
}
);
width = 678;
}
);
unicode = 8377;
},
{
glyphname = ruble;
layers = (
{
layerId = "8A84D32D-FB1E-4DD2-B3EC-97AE96C1F3F2";
shapes = (
{
closed = 1;
nodes = (
(-6,264,l),
(404,264,l),
(582,264,o),
(690,357,o),
(712,486,c),
(735,615,o),
(660,708,o),
(482,708,cs),
(172,708,l),
(48,0,l),
(270,0,l),
(365,542,l),
(439,542,ls),
(477,542,o),
(492,515,o),
(487,487,cs),
(482,454,o),
(458,432,o),
(420,432,cs),
(24,432,l)
);
},
{
closed = 1;
nodes = (
(-42,58,l),
(394,58,l),
(423,223,l),
(-13,223,l)
);
}
);
width = 709;
},
{
layerId = "9E02F294-FA05-4D2D-A912-E8181F430C35";
shapes = (
{
closed = 1;
nodes = (
(36,299,l),
(349,299,ls),
(507,299,o),
(604,373,o),
(626,503,cs),
(647,625,o),
(588,708,o),
(421,708,cs),
(195,708,l),
(71,0,l),
(163,0,l),
(275,636,l),
(404,636,ls),
(515,636,o),
(547,584,o),
(533,504,cs),
(520,424,o),
(469,373,o),
(357,373,cs),
(49,373,l)
);
},
{
closed = 1;
nodes = (
(5,125,l),
(402,125,l),
(415,195,l),
(17,195,l)
);
}
);
width = 633;
},
{
layerId = "67B2D992-FDF5-421B-B89F-40A62CC9CD8A";
shapes = (
{
closed = 1;
nodes = (
(59,319,l),
(319,319,ls),
(466,319,o),
(556,382,o),
(579,513,cs),
(599,631,o),
(548,708,o),
(387,708,cs),
(208,708,l),
(83,0,l),
(104,0,l),
(225,688,l),
(384,688,ls),
(536,688,o),
(578,622,o),
(559,513,cs),
(541,408,o),
(475,340,o),
(323,340,cs),
(63,340,l)
);
},
{
closed = 1;
nodes = (
(31,162,l),
(407,162,l),
(410,180,l),
(34,180,l)
);
}
);
width = 591;
}
);
unicode = 8381;
},
{
glyphname = rupee;
layers = (
{
layerId = "8A84D32D-FB1E-4DD2-B3EC-97AE96C1F3F2";
shapes = (
{
closed = 1;
nodes = (
(436,420,o),
(411,402,o),
(369,402,cs),
(281,402,l),
(302,522,l),
(390,522,ls),
(432,522,o),
(450,498,o),
(444,462,cs)
);
},
{
closed = 1;
nodes = (
(113,708,l),
(-12,0,l),
(210,0,l),
(255,254,l),
(363,254,l),
(541,254,o),
(649,352,o),
(671,476,c),
(694,606,o),
(621,708,o),
(443,708,cs)
);
},
{
closed = 1;
nodes = (
(237,305,l),
(344,0,l),
(588,0,l),
(468,305,l)
);
},
{
closed = 1;
nodes = (
(644,182,o),
(989,245,o),
(978,178,c),
(975,165,o),
(965,156,o),
(935,156,cs),
(902,156,o),
(868,164,o),
(870,195,c),
(653,195,l),
(651,64,o),
(744,-7,o),
(909,-7,c),
(1062,-7,o),
(1159,73,o),
(1177,173,c),
(1212,376,o),
(865,324,o),
(876,385,c),
(879,401,o),
(898,407,o),
(924,407,cs),
(956,407,o),
(985,398,o),
(988,369,c),
(1205,369,l),
(1202,483,o),
(1128,571,o),
(956,571,cs),
(796,571,o),
(698,489,o),
(681,393,c)
);
}
);
width = 1229;
},
{
layerId = "9E02F294-FA05-4D2D-A912-E8181F430C35";
shapes = (
{
closed = 1;
nodes = (
(464,409,o),
(412,356,o),
(299,356,cs),
(166,356,l),
(214,629,l),
(347,629,ls),
(460,629,o),
(494,575,o),
(479,492,cs)
);
},
{
closed = 1;
nodes = (
(136,708,l),
(11,0,l),
(103,0,l),
(154,289,l),
(295,289,ls),
(453,289,o),
(550,368,o),
(573,497,cs),
(594,618,o),
(536,708,o),
(369,708,cs)
);
},
{
closed = 1;
nodes = (
(242,313,l),
(387,0,l),
(490,0,l),
(339,313,l)
);
},
{
closed = 1;
nodes = (
(584,198,o),
(938,295,o),
(913,150,cs),
(904,100,o),
(862,62,o),
(795,62,cs),
(707,62,o),
(664,110,o),
(667,172,c),
(578,172,l),
(574,59,o),
(650,-7,o),
(783,-7,cs),
(899,-7,o),
(981,59,o),
(996,148,cs),
(1033,355,o),
(677,261,o),
(702,400,cs),
(711,453,o),
(759,488,o),
(827,488,cs),
(908,488,o),
(944,439,o),
(942,379,c),
(1032,379,l),
(1035,485,o),
(971,557,o),
(840,557,cs),
(720,557,o),
(635,494,o),
(620,403,cs)
);
}
);
width = 1079;
},
{
layerId = "67B2D992-FDF5-421B-B89F-40A62CC9CD8A";
shapes = (
{
closed = 1;
nodes = (
(480,403,o),
(412,330,o),
(260,330,cs),
(102,330,l),
(165,688,l),
(324,688,ls),
(476,688,o),
(518,617,o),
(499,508,cs)
);
},
{
closed = 1;
nodes = (
(149,708,l),
(24,0,l),
(44,0,l),
(99,309,l),
(257,309,ls),
(404,309,o),
(496,377,o),
(519,508,cs),
(539,625,o),
(489,708,o),
(328,708,cs)
);
},
{
closed = 1;
nodes = (
(244,317,l),
(411,0,l),
(436,0,l),
(268,317,l)
);
},
{
closed = 1;
nodes = (
(551,207,o),
(910,323,o),
(877,134,c),
(865,64,o),
(806,11,o),
(718,11,cs),
(599,11,o),
(551,80,o),
(556,159,c),
(536,159,l),
(531,57,o),
(599,-7,o),
(714,-7,cs),
(809,-7,o),
(883,51,o),
(897,134,c),
(934,344,o),
(574,227,o),
(606,409,c),
(619,482,o),
(682,532,o),
(773,532,cs),
(882,532,o),
(922,461,o),
(917,384,c),
(937,384,l),
(943,486,o),
(885,550,o),
(776,550,cs),
(678,550,o),
(601,496,o),
(586,409,c)
);
}
);
width = 996;
}
);
unicode = 8360;
},
{
glyphname = sterling;
layers = (
{
layerId = "8A84D32D-FB1E-4DD2-B3EC-97AE96C1F3F2";
shapes = (
{
closed = 1;
nodes = (
(121,440,o),
(148,344,o),
(142,308,cs),
(125,211,o),
(85,151,o),
(6,98,c),
(14,-6,l),
(566,-6,l),
(597,165,l),
(262,165,l),
(323,208,o),
(346,277,o),
(352,307,c),
(365,380,o),
(337,470,o),
(347,522,c),
(354,564,o),
(373,591,o),
(411,591,cs),
(447,591,o),
(457,566,o),
(455,531,c),
(659,531,l),
(675,669,o),
(606,771,o),
(435,771,cs),
(286,771,o),
(165,690,o),
(140,548,c)
);
},
{
closed = 1;
nodes = (
(58,421,l),
(32,274,l),
(493,274,l),
(519,421,l)
);
}
);
width = 659;
},
{
layerId = "9E02F294-FA05-4D2D-A912-E8181F430C35";
shapes = (
{
closed = 1;
nodes = (
(123,413,o),
(174,327,o),
(159,240,cs),
(144,155,o),
(98,103,o),
(33,47,c),
(36,-2,l),
(487,-2,l),
(500,71,l),
(138,71,l),
(202,125,o),
(235,184,o),
(246,243,cs),
(262,341,o),
(214,429,o),
(231,525,cs),
(247,617,o),
(314,659,o),
(382,659,cs),
(462,659,o),
(503,602,o),
(498,526,c),
(584,526,l),
(593,643,o),
(532,735,o),
(392,735,cs),
(260,735,o),
(165,654,o),
(145,534,cs)
);
},
{
closed = 1;
nodes = (
(52,373,l),
(40,310,l),
(414,310,l),
(425,373,l)
);
}
);
width = 584;
},
{
layerId = "67B2D992-FDF5-421B-B89F-40A62CC9CD8A";
shapes = (
{
closed = 1;
nodes = (
(124,398,o),
(188,317,o),
(168,203,cs),
(154,124,o),
(105,76,o),
(48,19,c),
(48,0,l),
(443,0,l),
(447,20,l),
(69,20,l),
(135,80,o),
(174,133,o),
(187,208,c),
(206,320,o),
(146,406,o),
(167,527,cs),
(188,646,o),
(281,697,o),
(366,697,cs),
(471,697,o),
(529,622,o),
(522,524,c),
(542,524,l),
(548,629,o),
(492,715,o),
(369,715,cs),
(245,715,o),
(165,634,o),
(147,527,cs)
);
},
{
closed = 1;
nodes = (
(48,347,l),
(45,330,l),
(370,330,l),
(373,347,l)
);
}
);
width = 543;
}
);
unicode = 163;
},
{
glyphname = yen;
layers = (
{
layerId = "8A84D32D-FB1E-4DD2-B3EC-97AE96C1F3F2";
shapes = (
{
closed = 1;
nodes = (
(483,308,l),
(667,308,l),
(692,452,l),
(495,452,l)
);
},
{
closed = 1;
nodes = (
(13,128,l),
(635,128,l),
(661,272,l),
(39,272,l)
);
},
{
closed = 1;
nodes = (
(229,215,l),
(192,0,l),
(414,0,l),
(451,215,l),
(792,708,l),
(542,708,l),
(336,348,l),
(396,348,l),
(316,708,l),
(62,708,l)
);
},
{
closed = 1;
nodes = (
(45,308,l),
(291,308,l),
(328,452,l),
(70,452,l)
);
}
);
width = 730;
},
{
layerId = "9E02F294-FA05-4D2D-A912-E8181F430C35";
shapes = (
{
closed = 1;
nodes = (
(364,322,l),
(555,322,l),
(566,385,l),
(375,385,l)
);
},
{
closed = 1;
nodes = (
(37,181,l),
(531,181,l),
(542,245,l),
(48,245,l)
);
},
{
closed = 1;
nodes = (
(253,268,l),
(206,0,l),
(298,0,l),
(345,268,l),
(654,708,l),
(550,708,l),
(296,324,l),
(323,324,l),
(204,708,l),
(98,708,l)
);
},
{
closed = 1;
nodes = (
(62,322,l),
(275,322,l),
(285,385,l),
(73,385,l)
);
}
);
width = 624;
},
{
layerId = "67B2D992-FDF5-421B-B89F-40A62CC9CD8A";
shapes = (
{
closed = 1;
nodes = (
(298,330,l),
(494,330,l),
(497,348,l),
(309,348,l)
);
},
{
closed = 1;
nodes = (
(50,210,l),
(473,210,l),
(476,230,l),
(53,230,l)
);
},
{
closed = 1;
nodes = (
(266,297,l),
(214,0,l),
(234,0,l),
(287,297,l),
(578,708,l),
(554,708,l),
(274,311,l),
(283,311,l),
(142,708,l),
(118,708,l)
);
},
{
closed = 1;
nodes = (
(71,330,l),
(266,330,l),
(261,348,l),
(74,348,l)
);
}
);
width = 566;
}
);
unicode = 165;
},
{
glyphname = plus;
layers = (
{
layerId = "8A84D32D-FB1E-4DD2-B3EC-97AE96C1F3F2";
shapes = (
{
closed = 1;
nodes = (
(214,595,l),
(124,85,l),
(337,85,l),
(427,595,l)
);
},
{
closed = 1;
nodes = (
(2,238,l),
(513,238,l),
(549,441,l),
(38,441,l)
);
}
);
width = 551;
},
{
layerId = "9E02F294-FA05-4D2D-A912-E8181F430C35";
shapes = (
{
closed = 1;
nodes = (
(288,621,l),
(198,111,l),
(287,111,l),
(377,621,l)
);
},
{
closed = 1;
nodes = (
(25,324,l),
(535,324,l),
(550,407,l),
(41,407,l)
);
}
);
width = 576;
},
{
layerId = "67B2D992-FDF5-421B-B89F-40A62CC9CD8A";
shapes = (
{
closed = 1;
nodes = (
(329,635,l),
(239,125,l),
(259,125,l),
(349,635,l)
);
},
{
closed = 1;
nodes = (
(38,371,l),
(547,371,l),
(551,389,l),
(42,389,l)
);
}
);
width = 589;
}
);
unicode = 43;
},
{
glyphname = minus;
layers = (
{
layerId = "8A84D32D-FB1E-4DD2-B3EC-97AE96C1F3F2";
shapes = (
{
closed = 1;
nodes = (
(14,250,l),
(480,250,l),
(512,433,l),
(46,433,l)
);
}
);
width = 506;
},
{
layerId = "9E02F294-FA05-4D2D-A912-E8181F430C35";
shapes = (
{
closed = 1;
nodes = (
(29,328,l),
(430,328,l),
(444,405,l),
(43,405,l)
);
}
);
width = 466;
},
{
layerId = "67B2D992-FDF5-421B-B89F-40A62CC9CD8A";
shapes = (
{
closed = 1;
nodes = (
(38,371,l),
(402,371,l),
(406,389,l),
(42,389,l)
);
}
);
width = 444;
}
);
unicode = 8722;
},
{
glyphname = multiply;
layers = (
{
layerId = "8A84D32D-FB1E-4DD2-B3EC-97AE96C1F3F2";
shapes = (
{
closed = 1;
nodes = (
(56,467,l),
(377,78,l),
(549,223,l),
(228,612,l)
);
},
{
closed = 1;
nodes = (
(126,79,l),
(582,470,l),
(463,612,l),
(8,221,l)
);
}
);
width = 581;
},
{
layerId = "9E02F294-FA05-4D2D-A912-E8181F430C35";
shapes = (
{
closed = 1;
nodes = (
(66,527,l),
(380,147,l),
(451,208,l),
(138,587,l)
);
},
{
closed = 1;
nodes = (
(58,148,l),
(503,528,l),
(454,587,l),
(9,207,l)
);
}
);
width = 509;
},
{
layerId = "67B2D992-FDF5-421B-B89F-40A62CC9CD8A";
shapes = (
{
closed = 1;
nodes = (
(72,560,l),
(381,185,l),
(397,199,l),
(88,574,l)
);
},
{
closed = 1;
nodes = (
(20,186,l),
(460,560,l),
(449,573,l),
(9,199,l)
);
}
);
width = 469;
}
);
unicode = 215;
},
{
glyphname = divide;
layers = (
{
layerId = "8A84D32D-FB1E-4DD2-B3EC-97AE96C1F3F2";
shapes = (
{
closed = 1;
nodes = (
(2,240,l),
(513,240,l),
(549,441,l),
(38,441,l)
);
},
{
closed = 1;
nodes = (
(104,0,l),
(324,0,l),
(361,212,l),
(141,212,l)
);
},
{
closed = 1;
nodes = (
(187,469,l),
(407,469,l),
(444,681,l),
(224,681,l)
);
}
);
width = 551;
},
{
layerId = "9E02F294-FA05-4D2D-A912-E8181F430C35";
shapes = (
{
closed = 1;
nodes = (
(25,324,l),
(535,324,l),
(550,407,l),
(40,407,l)
);
},
{
closed = 1;
nodes = (
(184,94,l),
(294,94,l),
(313,200,l),
(203,200,l)
);
},
{
closed = 1;
nodes = (
(262,534,l),
(372,534,l),
(391,640,l),
(281,640,l)
);
}
);
width = 576;
},
{
layerId = "67B2D992-FDF5-421B-B89F-40A62CC9CD8A";
shapes = (
{
closed = 1;
nodes = (
(38,371,l),
(547,371,l),
(550,389,l),
(41,389,l)
);
},
{
closed = 1;
nodes = (
(228,145,l),
(278,145,l),
(287,194,l),
(237,194,l)
);
},
{
closed = 1;
nodes = (
(303,569,l),
(353,569,l),
(362,618,l),
(312,618,l)
);
}
);
width = 589;
}
);
unicode = 247;
},
{
glyphname = equal;
layers = (
{
layerId = "8A84D32D-FB1E-4DD2-B3EC-97AE96C1F3F2";
shapes = (
{
closed = 1;
nodes = (
(-22,99,l),
(564,99,l),
(599,300,l),
(13,300,l)
);
},
{
closed = 1;
nodes = (
(27,379,l),
(613,379,l),
(648,580,l),
(62,580,l)
);
}
);
width = 626;
},
{
layerId = "9E02F294-FA05-4D2D-A912-E8181F430C35";
shapes = (
{
closed = 1;
nodes = (
(7,218,l),
(527,218,l),
(542,301,l),
(21,301,l)
);
},
{
closed = 1;
nodes = (
(44,431,l),
(565,431,l),
(579,514,l),
(59,514,l)
);
}
);
width = 586;
},
{
layerId = "67B2D992-FDF5-421B-B89F-40A62CC9CD8A";
shapes = (
{
closed = 1;
nodes = (
(23,283,l),
(507,283,l),
(510,301,l),
(26,301,l)
);
},
{
closed = 1;
nodes = (
(54,460,l),
(538,460,l),
(541,478,l),
(57,478,l)
);
}
);
width = 564;
}
);
unicode = 61;
},
{
glyphname = notequal;
layers = (
{
layerId = "8A84D32D-FB1E-4DD2-B3EC-97AE96C1F3F2";
shapes = (
{
closed = 1;
nodes = (
(-39,-1,l),
(68,-1,l),
(666,680,l),
(560,680,l)
);
},
{
alignment = -1;
ref = equal;
}
);
width = 626;
},
{
layerId = "9E02F294-FA05-4D2D-A912-E8181F430C35";
shapes = (
{
closed = 1;
nodes = (
(33,111,l),
(86,111,l),
(554,621,l),
(501,621,l)
);
},
{
alignment = -1;
pos = (2,0);
ref = equal;
}
);
width = 586;
},
{
layerId = "67B2D992-FDF5-421B-B89F-40A62CC9CD8A";
shapes = (
{
closed = 1;
nodes = (
(73,173,l),
(96,173,l),
(492,588,l),
(468,588,l)
);
},
{
alignment = -1;
pos = (3,0);
ref = equal;
}
);
width = 564;
}
);
unicode = 8800;
},
{
glyphname = greater;
layers = (
{
layerId = "8A84D32D-FB1E-4DD2-B3EC-97AE96C1F3F2";
shapes = (
{
closed = 1;
nodes = (
(-18,125,l),
(259,125,l),
(477,340,l),
(335,556,l),
(58,556,l),
(200,340,l)
);
}
);
width = 497;
},
{
layerId = "9E02F294-FA05-4D2D-A912-E8181F430C35";
shapes = (
{
closed = 1;
nodes = (
(-8,137,l),
(107,137,l),
(389,366,l),
(188,596,l),
(73,596,l),
(275,366,l)
);
}
);
width = 422;
},
{
layerId = "67B2D992-FDF5-421B-B89F-40A62CC9CD8A";
shapes = (
{
closed = 1;
nodes = (
(-2,143,l),
(23,143,l),
(341,380,l),
(107,618,l),
(82,618,l),
(316,380,l)
);
}
);
width = 381;
}
);
unicode = 62;
},
{
glyphname = less;
layers = (
{
layerId = "8A84D32D-FB1E-4DD2-B3EC-97AE96C1F3F2";
shapes = (
{
closed = 1;
nodes = (
(297,340,l),
(515,556,l),
(238,556,l),
(20,340,l),
(162,125,l),
(439,125,l)
);
}
);
width = 497;
},
{
layerId = "9E02F294-FA05-4D2D-A912-E8181F430C35";
shapes = (
{
closed = 1;
nodes = (
(147,366,l),
(430,596,l),
(315,596,l),
(33,366,l),
(234,137,l),
(349,137,l)
);
}
);
width = 422;
},
{
layerId = "67B2D992-FDF5-421B-B89F-40A62CC9CD8A";
shapes = (
{
closed = 1;
nodes = (
(65,380,l),
(383,618,l),
(358,618,l),
(40,380,l),
(274,143,l),
(299,143,l)
);
}
);
width = 381;
}
);
unicode = 60;
},
{
glyphname = greaterequal;
layers = (
{
layerId = "8A84D32D-FB1E-4DD2-B3EC-97AE96C1F3F2";
shapes = (
{
closed = 1;
nodes = (
(283,195,l),
(494,375,l),
(346,556,l),
(74,556,l),
(227,368,l),
(230,382,l),
(11,195,l)
);
},
{
closed = 1;
nodes = (
(-4,111,l),
(-34,-60,l),
(390,-60,l),
(420,111,l)
);
}
);
width = 492;
},
{
layerId = "9E02F294-FA05-4D2D-A912-E8181F430C35";
shapes = (
{
closed = 1;
nodes = (
(129,213,l),
(405,404,l),
(196,596,l),
(81,596,l),
(293,398,l),
(296,409,l),
(14,213,l)
);
},
{
closed = 1;
nodes = (
(1,163,l),
(-11,90,l),
(339,90,l),
(352,163,l)
);
}
);
width = 428;
},
{
layerId = "67B2D992-FDF5-421B-B89F-40A62CC9CD8A";
shapes = (
{
closed = 1;
nodes = (
(44,223,l),
(356,420,l),
(113,618,l),
(85,618,l),
(330,415,l),
(332,424,l),
(16,223,l)
);
},
{
closed = 1;
nodes = (
(4,191,l),
(1,173,l),
(311,173,l),
(314,191,l)
);
}
);
width = 392;
}
);
unicode = 8805;
},
{
glyphname = lessequal;
layers = (
{
layerId = "8A84D32D-FB1E-4DD2-B3EC-97AE96C1F3F2";
shapes = (
{
closed = 1;
nodes = (
(310,382,l),
(307,368,l),
(526,556,l),
(254,556,l),
(42,375,l),
(191,195,l),
(463,195,l)
);
},
{
closed = 1;
nodes = (
(-6,-60,l),
(418,-60,l),
(448,111,l),
(24,111,l)
);
}
);
width = 492;
},
{
layerId = "9E02F294-FA05-4D2D-A912-E8181F430C35";
shapes = (
{
closed = 1;
nodes = (
(155,410,l),
(152,398,l),
(435,596,l),
(320,596,l),
(43,404,l),
(254,213,l),
(368,213,l)
);
},
{
closed = 1;
nodes = (
(0,90,l),
(350,90,l),
(363,163,l),
(12,163,l)
);
}
);
width = 428;
},
{
layerId = "67B2D992-FDF5-421B-B89F-40A62CC9CD8A";
shapes = (
{
closed = 1;
nodes = (
(69,425,l),
(67,414,l),
(385,618,l),
(357,618,l),
(44,420,l),
(288,223,l),
(316,223,l)
);
},
{
closed = 1;
nodes = (
(3,173,l),
(313,173,l),
(316,191,l),
(6,191,l)
);
}
);
width = 392;
}
);
unicode = 8804;
},
{
glyphname = plusminus;
layers = (
{
layerId = "8A84D32D-FB1E-4DD2-B3EC-97AE96C1F3F2";
shapes = (
{
closed = 1;
nodes = (
(226,630,l),
(141,146,l),
(354,146,l),
(439,630,l)
);
},
{
closed = 1;
nodes = (
(27,344,l),
(538,344,l),
(573,545,l),
(62,545,l)
);
},
{
closed = 1;
nodes = (
(-17,96,l),
(494,96,l),
(529,297,l),
(18,297,l)
);
}
);
width = 551;
},
{
layerId = "9E02F294-FA05-4D2D-A912-E8181F430C35";
shapes = (
{
closed = 1;
nodes = (
(294,633,l),
(211,158,l),
(299,158,l),
(383,633,l)
);
},
{
closed = 1;
nodes = (
(39,374,l),
(548,374,l),
(563,457,l),
(53,457,l)
);
},
{
closed = 1;
nodes = (
(-11,93,l),
(499,93,l),
(513,176,l),
(3,176,l)
);
}
);
width = 576;
},
{
layerId = "67B2D992-FDF5-421B-B89F-40A62CC9CD8A";
shapes = (
{
closed = 1;
nodes = (
(332,635,l),
(249,165,l),
(269,165,l),
(352,635,l)
);
},
{
closed = 1;
nodes = (
(45,391,l),
(554,391,l),
(557,409,l),
(48,409,l)
);
},
{
closed = 1;
nodes = (
(-8,91,l),
(501,91,l),
(504,109,l),
(-5,109,l)
);
}
);
width = 589;
}
);
unicode = 177;
},
{
glyphname = approxequal;
layers = (
{
layerId = "8A84D32D-FB1E-4DD2-B3EC-97AE96C1F3F2";
shapes = (
{
alignment = -1;
pos = (-20,-111);
ref = asciitilde;
},
{
alignment = -1;
pos = (28,164);
ref = asciitilde;
}
);
width = 710;
},
{
layerId = "9E02F294-FA05-4D2D-A912-E8181F430C35";
shapes = (
{
closed = 1;
nodes = (
(79,197,l),
(93,237,o),
(119,265,o),
(155,265,cs),
(214,265,o),
(242,198,o),
(319,198,cs),
(392,198,o),
(452,248,o),
(487,348,c),
(415,348,l),
(401,308,o),
(375,281,o),
(339,281,cs),
(281,281,o),
(252,348,o),
(175,348,cs),
(102,348,o),
(42,297,o),
(8,197,c)
);
},
{
closed = 1;
nodes = (
(115,408,l),
(129,448,o),
(155,476,o),
(191,476,cs),
(250,476,o),
(278,409,o),
(355,409,cs),
(428,409,o),
(488,459,o),
(523,559,c),
(451,559,l),
(437,519,o),
(411,492,o),
(375,492,cs),
(317,492,o),
(288,559,o),
(211,559,cs),
(138,559,o),
(78,508,o),
(44,408,c)
);
}
);
width = 518;
},
{
layerId = "67B2D992-FDF5-421B-B89F-40A62CC9CD8A";
shapes = (
{
alignment = -1;
pos = (-8,-11);
ref = asciitilde;
},
{
alignment = -1;
pos = (22,164);
ref = asciitilde;
}
);
width = 412;
}
);
unicode = 8776;
},
{
glyphname = asciitilde;
layers = (
{
layerId = "8A84D32D-FB1E-4DD2-B3EC-97AE96C1F3F2";
shapes = (
{
closed = 1;
nodes = (
(161,181,l),
(177,230,o),
(197,250,o),
(233,250,cs),
(292,250,o),
(336,183,o),
(432,183,cs),
(548,183,o),
(652,259,o),
(714,447,c),
(548,447,l),
(533,397,o),
(513,378,o),
(477,378,cs),
(419,378,o),
(374,445,o),
(278,445,cs),
(162,445,o),
(60,369,o),
(-3,181,c)
);
}
);
width = 711;
},
{
layerId = "9E02F294-FA05-4D2D-A912-E8181F430C35";
shapes = (
{
closed = 1;
nodes = (
(91,244,l),
(105,284,o),
(131,312,o),
(167,312,cs),
(226,312,o),
(254,245,o),
(331,245,cs),
(404,245,o),
(464,295,o),
(499,395,c),
(427,395,l),
(413,355,o),
(387,328,o),
(351,328,cs),
(293,328,o),
(264,395,o),
(187,395,cs),
(114,395,o),
(54,344,o),
(20,244,c)
);
}
);
width = 518;
},
{
layerId = "67B2D992-FDF5-421B-B89F-40A62CC9CD8A";
shapes = (
{
closed = 1;
nodes = (
(52,279,l),
(65,314,o),
(95,346,o),
(130,346,c),
(189,346,o),
(209,279,o),
(275,279,c),
(325,279,o),
(361,315,o),
(380,367,c),
(360,367,l),
(347,332,o),
(317,300,o),
(282,300,c),
(224,300,o),
(203,367,o),
(137,367,cs),
(87,367,o),
(51,331,o),
(32,279,c)
);
}
);
width = 412;
}
);
unicode = 126;
},
{
glyphname = logicalnot;
layers = (
{
layerId = "8A84D32D-FB1E-4DD2-B3EC-97AE96C1F3F2";
shapes = (
{
closed = 1;
nodes = (
(18,282,l),
(504,282,l),
(481,155,l),
(703,155,l),
(755,448,l),
(47,448,l)
);
}
);
width = 794;
},
{
layerId = "9E02F294-FA05-4D2D-A912-E8181F430C35";
shapes = (
{
closed = 1;
nodes = (
(52,361,l),
(602,361,l),
(577,220,l),
(668,220,l),
(705,433,l),
(64,433,l)
);
}
);
width = 739;
},
{
layerId = "67B2D992-FDF5-421B-B89F-40A62CC9CD8A";
shapes = (
{
closed = 1;
nodes = (
(70,404,l),
(656,404,l),
(630,255,l),
(648,255,l),
(678,424,l),
(74,424,l)
);
}
);
width = 708;
}
);
unicode = 172;
},
{
glyphname = infinity;
layers = (
{
layerId = "8A84D32D-FB1E-4DD2-B3EC-97AE96C1F3F2";
shapes = (
{
closed = 1;
nodes = (
(12,229,o),
(73,161,o),
(198,160,cs),
(318,159,o),
(421,243,o),
(462,344,c),
(354,372,l),
(322,322,o),
(276,303,o),
(239,303,cs),
(214,303,o),
(199,318,o),
(204,347,cs),
(209,377,o),
(230,393,o),
(255,393,cs),
(346,393,o),
(348,160,o),
(585,160,cs),
(691,160,o),
(791,230,o),
(812,348,cs),
(833,467,o),
(773,534,o),
(646,535,cs),
(527,536,o),
(424,452,o),
(383,351,c),
(490,324,l),
(522,373,o),
(568,393,o),
(605,393,cs),
(630,393,o),
(646,378,o),
(641,348,cs),
(636,319,o),
(614,303,o),
(589,303,c),
(454,303,o),
(498,535,o),
(259,535,cs),
(154,535,o),
(54,466,o),
(33,347,cs)
);
}
);
width = 844;
},
{
layerId = "9E02F294-FA05-4D2D-A912-E8181F430C35";
shapes = (
{
closed = 1;
nodes = (
(5,254,o),
(55,199,o),
(149,199,cs),
(246,198,o),
(322,273,o),
(360,344,c),
(320,368,l),
(277,304,o),
(222,262,o),
(165,262,cs),
(110,262,o),
(86,296,o),
(95,347,cs),
(104,399,o),
(143,434,o),
(198,434,cs),
(320,434,o),
(303,199,o),
(490,199,cs),
(577,199,o),
(654,254,o),
(671,348,cs),
(687,442,o),
(638,496,o),
(543,496,cs),
(446,497,o),
(370,422,o),
(332,351,c),
(372,327,l),
(415,391,o),
(469,433,o),
(526,433,cs),
(582,433,o),
(606,399,o),
(597,348,cs),
(588,296,o),
(549,261,o),
(494,261,cs),
(353,261,o),
(384,496,o),
(202,496,cs),
(115,496,o),
(38,441,o),
(21,347,cs)
);
}
);
width = 671;
},
{
layerId = "67B2D992-FDF5-421B-B89F-40A62CC9CD8A";
shapes = (
{
closed = 1;
nodes = (
(1,267,o),
(45,220,o),
(122,220,cs),
(207,220,o),
(268,289,o),
(304,344,c),
(301,366,l),
(252,294,o),
(193,240,o),
(125,240,cs),
(53,240,o),
(24,284,o),
(35,347,cs),
(46,411,o),
(95,457,o),
(167,457,cs),
(306,457,o),
(279,220,o),
(438,220,c),
(514,220,o),
(579,267,o),
(593,348,cs),
(607,428,o),
(563,475,o),
(486,475,cs),
(401,475,o),
(340,406,o),
(304,351,c),
(307,329,l),
(356,401,o),
(415,455,o),
(483,455,cs),
(555,455,o),
(584,411,o),
(573,348,cs),
(562,284,o),
(513,238,o),
(441,238,c),
(298,238,o),
(321,475,o),
(170,475,cs),
(94,475,o),
(29,428,o),
(15,347,cs)
);
}
);
width = 576;
}
);
unicode = 8734;
},
{
glyphname = integral;
layers = (
{
layerId = "8A84D32D-FB1E-4DD2-B3EC-97AE96C1F3F2";
shapes = (
{
closed = 1;
nodes = (
(-73,-98,l),
(-78,-110,o),
(-86,-120,o),
(-100,-120,cs),
(-117,-120,l),
(-169,-310,l),
(-156,-310,ls),
(-24,-310,o),
(101,-268,o),
(148,-98,cs),
(380,746,l),
(385,758,o),
(393,768,o),
(406,768,cs),
(424,768,l),
(476,958,l),
(463,958,ls),
(331,958,o),
(206,916,o),
(159,746,cs)
);
}
);
width = 312;
},
{
layerId = "9E02F294-FA05-4D2D-A912-E8181F430C35";
shapes = (
{
closed = 1;
nodes = (
(-30,-57,l),
(-44,-105,o),
(-56,-119,o),
(-92,-119,cs),
(-116,-119,l),
(-137,-198,l),
(-114,-198,ls),
(-23,-198,o),
(33,-157,o),
(61,-57,cs),
(301,783,ls),
(313,826,o),
(335,839,o),
(365,839,cs),
(385,839,l),
(407,918,l),
(387,918,ls),
(301,918,o),
(238,881,o),
(210,783,cs)
);
}
);
width = 262;
},
{
layerId = "67B2D992-FDF5-421B-B89F-40A62CC9CD8A";
shapes = (
{
closed = 1;
nodes = (
(-6,-34,ls),
(-26,-102,o),
(-39,-118,o),
(-87,-118,cs),
(-115,-118,l),
(-120,-136,l),
(-91,-136,ls),
(-23,-136,o),
(-5,-96,o),
(13,-34,cs),
(257,804,ls),
(274,863,o),
(303,878,o),
(342,878,cs),
(364,878,l),
(369,896,l),
(345,896,ls),
(285,896,o),
(255,862,o),
(238,804,cs)
);
}
);
width = 234;
}
);
unicode = 8747;
},
{
glyphname = Ohm;
layers = (
{
layerId = "8A84D32D-FB1E-4DD2-B3EC-97AE96C1F3F2";
shapes = (
{
closed = 1;
nodes = (
(17,270,o),
(32,173,o),
(160,108,c),
(197,167,l),
(-1,167,l),
(-30,0,l),
(237,0,l),
(267,172,l),
(252,234,o),
(245,284,o),
(257,355,cs),
(276,461,o),
(335,515,o),
(423,515,cs),
(512,515,o),
(551,460,o),
(532,355,cs),
(520,284,o),
(495,234,o),
(459,172,c),
(429,0,l),
(696,0,l),
(725,167,l),
(526,167,l),
(543,108,l),
(694,173,o),
(743,270,o),
(764,387,cs),
(802,602,o),
(661,720,o),
(459,720,cs),
(256,720,o),
(76,602,o),
(38,387,cs)
);
}
);
width = 791;
},
{
layerId = "9E02F294-FA05-4D2D-A912-E8181F430C35";
shapes = (
{
closed = 1;
nodes = (
(20,221,o),
(64,100,o),
(193,54,c),
(205,71,l),
(5,71,l),
(-7,0,l),
(269,0,l),
(282,75,l),
(174,106,o),
(110,207,o),
(135,354,c),
(165,520,o),
(295,632,o),
(447,632,cs),
(596,632,o),
(688,524,o),
(658,354,cs),
(632,207,o),
(534,106,o),
(413,75,c),
(400,0,l),
(676,0,l),
(688,71,l),
(489,71,l),
(496,54,l),
(640,100,o),
(728,221,o),
(753,366,cs),
(791,580,o),
(658,717,o),
(462,717,cs),
(264,717,o),
(83,580,o),
(45,366,cs)
);
}
);
width = 796;
},
{
layerId = "67B2D992-FDF5-421B-B89F-40A62CC9CD8A";
shapes = (
{
closed = 1;
nodes = (
(21,194,o),
(82,60,o),
(211,25,c),
(209,18,l),
(9,18,l),
(6,0,l),
(287,0,l),
(291,22,l),
(131,36,o),
(36,164,o),
(68,354,c),
(104,553,o),
(273,697,o),
(460,697,cs),
(642,697,o),
(763,559,o),
(727,354,cs),
(694,164,o),
(555,36,o),
(388,22,c),
(384,0,l),
(665,0,l),
(668,18,l),
(468,18,l),
(470,25,l),
(611,60,o),
(719,194,o),
(747,354,cs),
(785,568,o),
(656,715,o),
(463,715,cs),
(268,715,o),
(87,568,o),
(49,354,c)
);
}
);
width = 798;
}
);
unicode = 8486;
},
